<?xml version="1.0" encoding="UTF-8" standalone="no"?>
<!-- Created with Inkscape (http://www.inkscape.org/) -->

<svg
   xmlns:dc="http://purl.org/dc/elements/1.1/"
   xmlns:cc="http://creativecommons.org/ns#"
   xmlns:rdf="http://www.w3.org/1999/02/22-rdf-syntax-ns#"
   xmlns:svg="http://www.w3.org/2000/svg"
   xmlns="http://www.w3.org/2000/svg"
   xmlns:sodipodi="http://sodipodi.sourceforge.net/DTD/sodipodi-0.dtd"
   xmlns:inkscape="http://www.inkscape.org/namespaces/inkscape"
   width="210mm"
   height="297mm"
   viewBox="0 0 744.09448819 1052.3622047"
   id="svg2"
   version="1.1"
   inkscape:version="0.91pre4 r13712"
   sodipodi:docname="racepath3.svg">
  <defs
     id="defs4" />
  <sodipodi:namedview
     id="base"
     pagecolor="#ffffff"
     bordercolor="#666666"
     borderopacity="1.0"
     inkscape:pageopacity="0.0"
     inkscape:pageshadow="2"
     inkscape:zoom="0.494974747"
     inkscape:cx="423.977261"
     inkscape:cy="432.873087"
     inkscape:document-units="px"
     inkscape:current-layer="layer1"
     showgrid="false"
     inkscape:window-width="1280"
     inkscape:window-height="961"
     inkscape:window-x="-8"
     inkscape:window-y="-8"
     inkscape:window-maximized="1" />
  <metadata
     id="metadata7">
    <rdf:RDF>
      <cc:Work
         rdf:about="">
        <dc:format>image/svg+xml</dc:format>
        <dc:type
           rdf:resource="http://purl.org/dc/dcmitype/StillImage" />
        <dc:title></dc:title>
      </cc:Work>
    </rdf:RDF>
  </metadata>
  <g
     inkscape:label="Layer 1"
     inkscape:groupmode="layer"
     id="layer1">
    <path
       style="fill:none;fill-rule:evenodd;stroke:#000000;stroke-width:28.346456528;stroke-linecap:butt;stroke-linejoin:miter;stroke-miterlimit:4;stroke-dasharray:none;stroke-opacity:1"
       d="m 236.778809,83.1569888 c 102.585453,-56.6997803 268.769714,-38.9507725 348.483096,46.9818592 98.220056,105.8832 8.877037,357.354186 25.528653,432.520718 34.174065,154.264056 41.800919,255.441166 -11.914553,342.255206 -34.625647,55.961387 -149.81748,95.365388 -232.282828,87.979697 -83.701692,-7.49642 -172.270873,-52.281904 -216.145022,-129.772318 -115.5201762,-204.03145 42.973652,-341.424777 -35.836219,-511.425583 -34.4522275,-74.316915 36.097681,-220.968465 122.166873,-268.5395792 z"
       id="path4140"
       inkscape:connector-curvature="0"
       sodipodi:nodetypes="ssssssss" />
    <path
       style="fill:none;fill-rule:evenodd;stroke:#000000;stroke-width:28.346456528;stroke-linecap:butt;stroke-linejoin:miter;stroke-miterlimit:4;stroke-dasharray:none;stroke-opacity:1"
       d="m 245.021295,298.257453 c 45.161022,-117.745905 201.146948,-167.118243 277.772419,-104.541022 106.751242,87.179838 -79.391757,271.164097 -65.385079,408.277061 7.934586,77.672571 128.416965,155.480003 83.039789,219.01659 -46.872912,65.630899 -161.244394,86.520083 -241.827459,-7.735828 -63.684666,-74.490294 -135.800174,-300.699852 -53.59967,-515.016801 z"
       id="path4140-7"
       inkscape:connector-curvature="0"
       sodipodi:nodetypes="saaass" />
  </g>
</svg>
