  0
SECTION
  2
HEADER
  9
$ACADVER
  1
AC1014
  9
$HANDSEED
  5
FFFF
  9
$MEASUREMENT
 70
     1
  0
ENDSEC
  0
SECTION
  2
TABLES
  0
TABLE
  2
VPORT
  5
8
330
0
100
AcDbSymbolTable
 70
     4
  0
VPORT
  5
2E
330
8
100
AcDbSymbolTableRecord
100
AcDbViewportTableRecord
  2
*ACTIVE
 70
     0
 10
0.0
 20
0.0
 11
1.0
 21
1.0
 12
210.0
 22
148.5
 13
0.0
 23
0.0
 14
10.0
 24
10.0
 15
10.0
 25
10.0
 16
0.0
 26
0.0
 36
1.0
 17
0.0
 27
0.0
 37
0.0
 40
341.0
 41
1.24
 42
50.0
 43
0.0
 44
0.0
 50
0.0
 51
0.0
 71
     0
 72
   100
 73
     1
 74
     3
 75
     0
 76
     0
 77
     0
 78
     0
  0
ENDTAB
  0
TABLE
  2
LTYPE
  5
5
330
0
100
AcDbSymbolTable
 70
     1
  0
LTYPE
  5
14
330
5
100
AcDbSymbolTableRecord
100
AcDbLinetypeTableRecord
  2
BYBLOCK
 70
     0
  3

 72
    65
 73
     0
 40
0.0
  0
LTYPE
  5
15
330
5
100
AcDbSymbolTableRecord
100
AcDbLinetypeTableRecord
  2
BYLAYER
 70
     0
  3

 72
    65
 73
     0
 40
0.0
  0
LTYPE
  5
16
330
5
100
AcDbSymbolTableRecord
100
AcDbLinetypeTableRecord
  2
CONTINUOUS
 70
     0
  3
Solid line
 72
    65
 73
     0
 40
0.0
  0
ENDTAB
  0
TABLE
  2
LAYER
  5
2
100
AcDbSymbolTable
 70
2
  0
LAYER
  5
50
100
AcDbSymbolTableRecord
100
AcDbLayerTableRecord
  2
0
 70
0
  6
CONTINUOUS
  0
LAYER
  5
51
100
AcDbSymbolTableRecord
100
AcDbLayerTableRecord
  2
Layer_1
 70
0
  6
CONTINUOUS
  0
ENDTAB
  0
TABLE
  2
STYLE
  5
3
330
0
100
AcDbSymbolTable
 70
     1
  0
STYLE
  5
11
330
3
100
AcDbSymbolTableRecord
100
AcDbTextStyleTableRecord
  2
STANDARD
 70
     0
 40
0.0
 41
1.0
 50
0.0
 71
     0
 42
2.5
  3
txt
  4

  0
ENDTAB
  0
TABLE
  2
VIEW
  5
6
330
0
100
AcDbSymbolTable
 70
     0
  0
ENDTAB
  0
TABLE
  2
UCS
  5
7
330
0
100
AcDbSymbolTable
 70
     0
  0
ENDTAB
  0
TABLE
  2
APPID
  5
9
330
0
100
AcDbSymbolTable
 70
     2
  0
APPID
  5
12
330
9
100
AcDbSymbolTableRecord
100
AcDbRegAppTableRecord
  2
ACAD
 70
     0
  0
ENDTAB
  0
TABLE
  2
DIMSTYLE
  5
A
330
0
100
AcDbSymbolTable
 70
     1
  0
DIMSTYLE
105
27
330
A
100
AcDbSymbolTableRecord
100
AcDbDimStyleTableRecord
  2
ISO-25
 70
     0
  3

  4

  5

  6

  7

 40
1.0
 41
2.5
 42
0.625
 43
3.75
 44
1.25
 45
0.0
 46
0.0
 47
0.0
 48
0.0
140
2.5
141
2.5
142
0.0
143
0.03937007874016
144
1.0
145
0.0
146
1.0
147
0.625
 71
     0
 72
     0
 73
     0
 74
     0
 75
     0
 76
     0
 77
     1
 78
     8
170
     0
171
     3
172
     1
173
     0
174
     0
175
     0
176
     0
177
     0
178
     0
270
     2
271
     2
272
     2
273
     2
274
     3
340
11
275
     0
280
     0
281
     0
282
     0
283
     0
284
     8
285
     0
286
     0
287
     3
288
     0
  0
ENDTAB
  0
TABLE
  2
BLOCK_RECORD
  5
1
330
0
100
AcDbSymbolTable
 70
     1
  0
BLOCK_RECORD
  5
1F
330
1
100
AcDbSymbolTableRecord
100
AcDbBlockTableRecord
  2
*MODEL_SPACE
  0
BLOCK_RECORD
  5
1B
330
1
100
AcDbSymbolTableRecord
100
AcDbBlockTableRecord
  2
*PAPER_SPACE
  0
ENDTAB
  0
ENDSEC
  0
SECTION
  2
BLOCKS
  0
BLOCK
  5
20
330
1F
100
AcDbEntity
  8
0
100
AcDbBlockBegin
  2
*MODEL_SPACE
 70
     0
 10
0.0
 20
0.0
 30
0.0
  3
*MODEL_SPACE
  1

  0
ENDBLK
  5
21
330
1F
100
AcDbEntity
  8
0
100
AcDbBlockEnd
  0
BLOCK
  5
1C
330
1B
100
AcDbEntity
 67
     1
  8
0
100
AcDbBlockBegin
  2
*PAPER_SPACE
  1

  0
ENDBLK
  5
1D
330
1B
100
AcDbEntity
 67
     1
  8
0
100
AcDbBlockEnd
  0
ENDSEC
  0
SECTION
  2
ENTITIES
  0
LWPOLYLINE
  5
100
100
AcDbEntity
  8
Layer_1
 62
7
100
AcDbPolyline
 90
124
 70
0
 10
16.419920
 20
8.938021
 30
0.0
 10
16.301033
 20
9.626163
 30
0.0
 10
16.171009
 20
10.310564
 30
0.0
 10
16.013218
 20
10.990221
 30
0.0
 10
16.018480
 20
11.001283
 30
0.0
 10
16.024218
 20
11.013345
 30
0.0
 10
16.029848
 20
11.025181
 30
0.0
 10
16.216384
 20
11.030837
 30
0.0
 10
16.401964
 20
11.049002
 30
0.0
 10
16.587274
 20
11.073581
 30
0.0
 10
16.690386
 20
11.089117
 30
0.0
 10
16.793237
 20
11.105862
 30
0.0
 10
16.894755
 20
11.123901
 30
0.0
 10
16.961367
 20
11.139073
 30
0.0
 10
17.027628
 20
11.155390
 30
0.0
 10
17.093654
 20
11.174461
 30
0.0
 10
17.113175
 20
11.179201
 30
0.0
 10
17.132594
 20
11.183916
 30
0.0
 10
17.151315
 20
11.188461
 30
0.0
 10
17.156146
 20
11.178868
 30
0.0
 10
17.161414
 20
11.168406
 30
0.0
 10
17.166583
 20
11.158141
 30
0.0
 10
17.188004
 20
10.533597
 30
0.0
 10
17.243711
 20
9.911996
 30
0.0
 10
17.323697
 20
9.292205
 30
0.0
 10
17.327096
 20
9.268804
 30
0.0
 10
17.330478
 20
9.245527
 30
0.0
 10
17.333738
 20
9.223085
 30
0.0
 10
17.367172
 20
9.044317
 30
0.0
 10
17.422382
 20
8.870251
 30
0.0
 10
17.521038
 20
8.718405
 30
0.0
 10
17.522503
 20
8.708306
 30
0.0
 10
17.524101
 20
8.697292
 30
0.0
 10
17.525670
 20
8.686485
 30
0.0
 10
16.732892
 20
7.999535
 30
0.0
 10
15.791365
 20
7.534800
 30
0.0
 10
14.770928
 20
7.287597
 30
0.0
 10
14.263906
 20
7.244559
 30
0.0
 10
13.756094
 20
7.267177
 30
0.0
 10
13.256891
 20
7.360717
 30
0.0
 10
12.819343
 20
7.509699
 30
0.0
 10
12.405479
 20
7.715666
 30
0.0
 10
12.027163
 20
7.979901
 30
0.0
 10
11.698683
 20
8.288459
 30
0.0
 10
11.410244
 20
8.636332
 30
0.0
 10
11.165603
 20
9.016213
 30
0.0
 10
10.965095
 20
9.435668
 30
0.0
 10
10.818154
 20
9.875766
 30
0.0
 10
10.724954
 20
10.330765
 30
0.0
 10
10.683140
 20
10.774705
 30
0.0
 10
10.689529
 20
11.220907
 30
0.0
 10
10.748369
 20
11.663909
 30
0.0
 10
10.848663
 20
12.054835
 30
0.0
 10
10.991776
 20
12.432796
 30
0.0
 10
11.181694
 20
12.790653
 30
0.0
 10
11.402361
 20
13.106067
 30
0.0
 10
11.652147
 20
13.398097
 30
0.0
 10
11.928572
 20
13.664429
 30
0.0
 10
12.230209
 20
13.901909
 30
0.0
 10
12.554494
 20
14.109272
 30
0.0
 10
12.897098
 20
14.282757
 30
0.0
 10
13.250011
 20
14.421202
 30
0.0
 10
13.613529
 20
14.526688
 30
0.0
 10
13.985599
 20
14.598301
 30
0.0
 10
14.241838
 20
14.629275
 30
0.0
 10
14.500150
 20
14.648443
 30
0.0
 10
14.758719
 20
14.656381
 30
0.0
 10
14.993622
 20
14.658245
 30
0.0
 10
15.228620
 20
14.651556
 30
0.0
 10
15.462153
 20
14.633741
 30
0.0
 10
15.648829
 20
14.616240
 30
0.0
 10
15.835353
 20
14.594615
 30
0.0
 10
16.019848
 20
14.568221
 30
0.0
 10
16.148843
 20
14.546755
 30
0.0
 10
16.277851
 20
14.522590
 30
0.0
 10
16.405136
 20
14.493981
 30
0.0
 10
16.450676
 20
14.484068
 30
0.0
 10
16.495069
 20
14.474405
 30
0.0
 10
16.539650
 20
14.464701
 30
0.0
 10
16.547845
 20
14.455589
 30
0.0
 10
16.556782
 20
14.445652
 30
0.0
 10
16.565550
 20
14.435901
 30
0.0
 10
16.533735
 20
13.985840
 30
0.0
 10
16.522291
 20
13.535896
 30
0.0
 10
16.539137
 20
13.086045
 30
0.0
 10
16.503668
 20
13.077216
 30
0.0
 10
16.468386
 20
13.068433
 30
0.0
 10
16.434372
 20
13.059965
 30
0.0
 10
16.110204
 20
13.404426
 30
0.0
 10
15.731305
 20
13.687979
 30
0.0
 10
15.308182
 20
13.900421
 30
0.0
 10
14.855090
 20
14.036936
 30
0.0
 10
14.384493
 20
14.090482
 30
0.0
 10
13.911673
 20
14.061173
 30
0.0
 10
13.240043
 20
13.872364
 30
0.0
 10
12.654954
 20
13.494025
 30
0.0
 10
12.210541
 20
12.956485
 30
0.0
 10
11.890928
 20
12.214523
 30
0.0
 10
11.778660
 20
11.413351
 30
0.0
 10
11.830261
 20
10.605413
 30
0.0
 10
11.882542
 20
10.311452
 30
0.0
 10
11.953704
 20
10.020876
 30
0.0
 10
12.043495
 20
9.735429
 30
0.0
 10
12.160139
 20
9.454822
 30
0.0
 10
12.299528
 20
9.185124
 30
0.0
 10
12.459392
 20
8.927453
 30
0.0
 10
12.641245
 20
8.687256
 30
0.0
 10
12.845009
 20
8.466111
 30
0.0
 10
13.070913
 20
8.267309
 30
0.0
 10
13.327543
 20
8.095827
 30
0.0
 10
13.606404
 20
7.963281
 30
0.0
 10
13.899818
 20
7.866701
 30
0.0
 10
14.246878
 20
7.805376
 30
0.0
 10
14.598473
 20
7.792741
 30
0.0
 10
14.948153
 20
7.823581
 30
0.0
 10
15.505129
 20
7.933933
 30
0.0
 10
16.038836
 20
8.127322
 30
0.0
 10
16.487822
 20
8.470613
 30
0.0
 10
16.465194
 20
8.626365
 30
0.0
 10
16.442627
 20
8.781691
 30
0.0
 10
16.419866
 20
8.938357
 30
0.0
 10
16.419920
 20
8.938021
 30
0.0
 10
16.419920
 20
8.938021
 30
0.0
 10
16.419920
 20
8.938021
 30
0.0
  0
LWPOLYLINE
  5
101
100
AcDbEntity
  8
Layer_1
 62
7
100
AcDbPolyline
 90
109
 70
0
 10
20.216641
 20
10.412301
 30
0.0
 10
20.297514
 20
9.888808
 30
0.0
 10
20.393438
 20
9.366673
 30
0.0
 10
20.534808
 20
8.857413
 30
0.0
 10
21.005984
 20
8.929919
 30
0.0
 10
21.476077
 20
9.009460
 30
0.0
 10
21.944040
 20
9.094733
 30
0.0
 10
22.345433
 20
9.171311
 30
0.0
 10
22.746231
 20
9.250607
 30
0.0
 10
23.146655
 20
9.334613
 30
0.0
 10
23.292015
 20
9.366580
 30
0.0
 10
23.436976
 20
9.398459
 30
0.0
 10
23.583189
 20
9.430613
 30
0.0
 10
23.592480
 20
9.417261
 30
0.0
 10
23.601721
 20
9.403978
 30
0.0
 10
23.610631
 20
9.391173
 30
0.0
 10
23.615878
 20
9.269963
 30
0.0
 10
23.626460
 20
9.148358
 30
0.0
 10
23.641877
 20
9.026645
 30
0.0
 10
23.664407
 20
8.915651
 30
0.0
 10
23.687865
 20
8.805785
 30
0.0
 10
23.711793
 20
8.694869
 30
0.0
 10
23.706531
 20
8.683782
 30
0.0
 10
23.700793
 20
8.671692
 30
0.0
 10
23.695163
 20
8.659829
 30
0.0
 10
23.474641
 20
8.648044
 30
0.0
 10
23.255975
 20
8.625968
 30
0.0
 10
23.036748
 20
8.596789
 30
0.0
 10
22.046333
 20
8.452899
 30
0.0
 10
21.056239
 20
8.309055
 30
0.0
 10
20.065500
 20
8.165117
 30
0.0
 10
19.960607
 20
8.149306
 30
0.0
 10
19.856708
 20
8.132399
 30
0.0
 10
19.752704
 20
8.113997
 30
0.0
 10
19.689642
 20
8.099747
 30
0.0
 10
19.627029
 20
8.085382
 30
0.0
 10
19.563664
 20
8.070317
 30
0.0
 10
19.544392
 20
8.063844
 30
0.0
 10
19.525221
 20
8.057405
 30
0.0
 10
19.506740
 20
8.051197
 30
0.0
 10
19.501909
 20
8.060791
 30
0.0
 10
19.496641
 20
8.071252
 30
0.0
 10
19.491472
 20
8.081517
 30
0.0
 10
19.455593
 20
8.815690
 30
0.0
 10
19.379215
 20
9.546588
 30
0.0
 10
19.281164
 20
10.276237
 30
0.0
 10
19.152202
 20
11.163887
 30
0.0
 10
19.023282
 20
12.051249
 30
0.0
 10
18.894278
 20
12.939189
 30
0.0
 10
18.780433
 20
13.665723
 30
0.0
 10
18.644761
 20
14.388891
 30
0.0
 10
18.471358
 20
15.103013
 30
0.0
 10
18.476619
 20
15.114075
 30
0.0
 10
18.482357
 20
15.126137
 30
0.0
 10
18.487987
 20
15.137973
 30
0.0
 10
18.674523
 20
15.143629
 30
0.0
 10
18.860103
 20
15.161794
 30
0.0
 10
19.045412
 20
15.186373
 30
0.0
 10
20.000392
 20
15.325115
 30
0.0
 10
20.955062
 20
15.463811
 30
0.0
 10
21.910354
 20
15.602597
 30
0.0
 10
22.129018
 20
15.637152
 30
0.0
 10
22.345375
 20
15.678323
 30
0.0
 10
22.559499
 20
15.729493
 30
0.0
 10
22.567692
 20
15.720381
 30
0.0
 10
22.576625
 20
15.710444
 30
0.0
 10
22.585391
 20
15.700693
 30
0.0
 10
22.596315
 20
15.561899
 30
0.0
 10
22.608606
 20
15.422553
 30
0.0
 10
22.624368
 20
15.283013
 30
0.0
 10
22.641144
 20
15.189435
 30
0.0
 10
22.662446
 20
15.096379
 30
0.0
 10
22.686554
 20
15.004381
 30
0.0
 10
22.681448
 20
14.988943
 30
0.0
 10
22.676370
 20
14.973586
 30
0.0
 10
22.671474
 20
14.958781
 30
0.0
 10
21.675496
 20
14.885630
 30
0.0
 10
20.682979
 20
14.785241
 30
0.0
 10
19.692323
 20
14.656221
 30
0.0
 10
19.701948
 20
14.126951
 30
0.0
 10
19.758285
 20
13.600642
 30
0.0
 10
19.829771
 20
13.075077
 30
0.0
 10
19.870656
 20
12.793662
 30
0.0
 10
19.911639
 20
12.511576
 30
0.0
 10
19.952555
 20
12.229949
 30
0.0
 10
20.761469
 20
12.360556
 30
0.0
 10
21.565864
 20
12.514527
 30
0.0
 10
22.366197
 20
12.689165
 30
0.0
 10
22.377754
 20
12.680534
 30
0.0
 10
22.390357
 20
12.671121
 30
0.0
 10
22.402722
 20
12.661885
 30
0.0
 10
22.400230
 20
12.542459
 30
0.0
 10
22.407510
 20
12.424685
 30
0.0
 10
22.421800
 20
12.306445
 30
0.0
 10
22.441569
 20
12.190649
 30
0.0
 10
22.467931
 20
12.077468
 30
0.0
 10
22.503884
 20
11.965589
 30
0.0
 10
22.495260
 20
11.954022
 30
0.0
 10
22.485857
 20
11.941407
 30
0.0
 10
22.476630
 20
11.929029
 30
0.0
 10
21.659563
 20
11.874474
 30
0.0
 10
20.843917
 20
11.790092
 30
0.0
 10
20.032098
 20
11.682429
 30
0.0
 10
20.093554
 20
11.259421
 30
0.0
 10
20.155157
 20
10.835403
 30
0.0
 10
20.216660
 20
10.412077
 30
0.0
 10
20.216641
 20
10.412301
 30
0.0
 10
20.216641
 20
10.412301
 30
0.0
 10
20.216641
 20
10.412301
 30
0.0
  0
LWPOLYLINE
  5
102
100
AcDbEntity
  8
Layer_1
 62
7
100
AcDbPolyline
 90
73
 70
0
 10
26.080536
 20
13.983389
 30
0.0
 10
26.000130
 20
14.506412
 30
0.0
 10
25.905994
 20
15.027491
 30
0.0
 10
25.767683
 20
15.539053
 30
0.0
 10
25.369179
 20
15.477378
 30
0.0
 10
24.971536
 20
15.407416
 30
0.0
 10
24.577149
 20
15.328093
 30
0.0
 10
24.320877
 20
15.271270
 30
0.0
 10
24.064746
 20
15.210267
 30
0.0
 10
23.811928
 20
15.140933
 30
0.0
 10
23.737622
 20
15.117491
 30
0.0
 10
23.663519
 20
15.094113
 30
0.0
 10
23.588777
 20
15.070533
 30
0.0
 10
23.579486
 20
15.083886
 30
0.0
 10
23.570245
 20
15.097168
 30
0.0
 10
23.561335
 20
15.109973
 30
0.0
 10
23.541970
 20
15.351058
 30
0.0
 10
23.504545
 20
15.590331
 30
0.0
 10
23.457085
 20
15.827533
 30
0.0
 10
23.462346
 20
15.838595
 30
0.0
 10
23.468084
 20
15.850657
 30
0.0
 10
23.473714
 20
15.862493
 30
0.0
 10
23.694237
 20
15.874290
 30
0.0
 10
23.912904
 20
15.896394
 30
0.0
 10
24.132131
 20
15.925613
 30
0.0
 10
25.531822
 20
16.128968
 30
0.0
 10
26.931060
 20
16.332256
 30
0.0
 10
28.331210
 20
16.535677
 30
0.0
 10
28.549874
 20
16.570232
 30
0.0
 10
28.766231
 20
16.611400
 30
0.0
 10
28.980355
 20
16.662565
 30
0.0
 10
28.988550
 20
16.653453
 30
0.0
 10
28.997486
 20
16.643516
 30
0.0
 10
29.006255
 20
16.633765
 30
0.0
 10
29.028247
 20
16.392940
 30
0.0
 10
29.060512
 20
16.152556
 30
0.0
 10
29.110505
 20
15.916205
 30
0.0
 10
29.105397
 20
15.900767
 30
0.0
 10
29.100316
 20
15.885410
 30
0.0
 10
29.095417
 20
15.870605
 30
0.0
 10
28.352597
 20
15.861420
 30
0.0
 10
27.611392
 20
15.795749
 30
0.0
 10
26.873265
 20
15.699733
 30
0.0
 10
26.886147
 20
15.171059
 30
0.0
 10
26.944239
 20
14.643951
 30
0.0
 10
27.016029
 20
14.119357
 30
0.0
 10
27.144991
 20
13.231708
 30
0.0
 10
27.273911
 20
12.344346
 30
0.0
 10
27.402915
 20
11.456405
 30
0.0
 10
27.517523
 20
10.730473
 30
0.0
 10
27.655452
 20
10.008185
 30
0.0
 10
27.831150
 20
9.293349
 30
0.0
 10
27.824207
 20
9.282035
 30
0.0
 10
27.816637
 20
9.269696
 30
0.0
 10
27.809208
 20
9.257589
 30
0.0
 10
27.622161
 20
9.251293
 30
0.0
 10
27.436245
 20
9.233460
 30
0.0
 10
27.251783
 20
9.209189
 30
0.0
 10
27.066867
 20
9.179809
 30
0.0
 10
26.883945
 20
9.144041
 30
0.0
 10
26.703628
 20
9.096965
 30
0.0
 10
26.693753
 20
9.105850
 30
0.0
 10
26.682983
 20
9.115539
 30
0.0
 10
26.672416
 20
9.125045
 30
0.0
 10
26.638851
 20
9.859442
 30
0.0
 10
26.564666
 20
10.591215
 30
0.0
 10
26.467423
 20
11.320533
 30
0.0
 10
26.338461
 20
12.208183
 30
0.0
 10
26.209541
 20
13.095545
 30
0.0
 10
26.080537
 20
13.983485
 30
0.0
 10
26.080536
 20
13.983389
 30
0.0
 10
26.080536
 20
13.983389
 30
0.0
 10
26.080536
 20
13.983389
 30
0.0
  0
LWPOLYLINE
  5
103
100
AcDbEntity
  8
Layer_1
 62
7
100
AcDbPolyline
 90
28
 70
0
 10
32.841011
 20
14.839581
 30
0.0
 10
32.852635
 20
15.046593
 30
0.0
 10
32.920368
 20
15.242784
 30
0.0
 10
33.040287
 20
15.412437
 30
0.0
 10
33.204535
 20
15.549000
 30
0.0
 10
33.398955
 20
15.638122
 30
0.0
 10
33.609723
 20
15.675853
 30
0.0
 10
33.824141
 20
15.665855
 30
0.0
 10
34.029277
 20
15.601360
 30
0.0
 10
34.209028
 20
15.483685
 30
0.0
 10
34.351741
 20
15.333673
 30
0.0
 10
34.446583
 20
15.150824
 30
0.0
 10
34.486404
 20
14.947461
 30
0.0
 10
34.473550
 20
14.741005
 30
0.0
 10
34.403026
 20
14.546428
 30
0.0
 10
34.281417
 20
14.379613
 30
0.0
 10
34.117492
 20
14.241900
 30
0.0
 10
33.922339
 20
14.153250
 30
0.0
 10
33.711981
 20
14.116205
 30
0.0
 10
33.498838
 20
14.125443
 30
0.0
 10
33.293132
 20
14.188079
 30
0.0
 10
33.113027
 20
14.303005
 30
0.0
 10
32.973255
 20
14.453210
 30
0.0
 10
32.879737
 20
14.637694
 30
0.0
 10
32.841011
 20
14.839581
 30
0.0
 10
32.841011
 20
14.839581
 30
0.0
 10
32.841011
 20
14.839581
 30
0.0
 10
32.841011
 20
14.839581
 30
0.0
  0
LWPOLYLINE
  5
104
100
AcDbEntity
  8
Layer_1
 62
7
100
AcDbPolyline
 90
49
 70
0
 10
33.205251
 20
10.761901
 30
0.0
 10
33.152057
 20
11.470192
 30
0.0
 10
33.078997
 20
12.176470
 30
0.0
 10
32.958904
 20
12.877277
 30
0.0
 10
32.968840
 20
12.892499
 30
0.0
 10
32.978723
 20
12.907640
 30
0.0
 10
32.988251
 20
12.922237
 30
0.0
 10
33.099768
 20
12.925615
 30
0.0
 10
33.211087
 20
12.927015
 30
0.0
 10
33.321602
 20
12.927837
 30
0.0
 10
33.469976
 20
12.929845
 30
0.0
 10
33.619334
 20
12.933815
 30
0.0
 10
33.767500
 20
12.940957
 30
0.0
 10
34.021371
 20
12.967279
 30
0.0
 10
34.274182
 20
13.003561
 30
0.0
 10
34.525049
 20
13.044421
 30
0.0
 10
34.580846
 20
13.034757
 30
0.0
 10
34.617320
 20
12.993057
 30
0.0
 10
34.628901
 20
12.938197
 30
0.0
 10
34.622853
 20
12.285829
 30
0.0
 10
34.626291
 20
11.632951
 30
0.0
 10
34.649619
 20
10.980277
 30
0.0
 10
34.665416
 20
10.739350
 30
0.0
 10
34.681250
 20
10.497849
 30
0.0
 10
34.697059
 20
10.256741
 30
0.0
 10
34.749455
 20
9.596648
 30
0.0
 10
34.824649
 20
8.938839
 30
0.0
 10
34.933917
 20
8.286077
 30
0.0
 10
34.927802
 20
8.275446
 30
0.0
 10
34.921132
 20
8.263853
 30
0.0
 10
34.914589
 20
8.252477
 30
0.0
 10
34.641559
 20
8.250730
 30
0.0
 10
34.369623
 20
8.244381
 30
0.0
 10
34.097822
 20
8.231197
 30
0.0
 10
33.828613
 20
8.208769
 30
0.0
 10
33.559284
 20
8.179533
 30
0.0
 10
33.290634
 20
8.145965
 30
0.0
 10
33.283183
 20
8.155711
 30
0.0
 10
33.275059
 20
8.166338
 30
0.0
 10
33.267087
 20
8.176765
 30
0.0
 10
33.291435
 20
8.837625
 30
0.0
 10
33.279282
 20
9.500388
 30
0.0
 10
33.244612
 20
10.161485
 30
0.0
 10
33.231506
 20
10.361367
 30
0.0
 10
33.218370
 20
10.561726
 30
0.0
 10
33.205255
 20
10.761757
 30
0.0
 10
33.205251
 20
10.761901
 30
0.0
 10
33.205251
 20
10.761901
 30
0.0
 10
33.205251
 20
10.761901
 30
0.0
  0
LWPOLYLINE
  5
105
100
AcDbEntity
  8
Layer_1
 62
7
100
AcDbPolyline
 90
88
 70
0
 10
41.289347
 20
10.689077
 30
0.0
 10
41.342469
 20
10.028745
 30
0.0
 10
41.420552
 20
9.370694
 30
0.0
 10
41.536925
 20
8.719125
 30
0.0
 10
41.530809
 20
8.708494
 30
0.0
 10
41.524140
 20
8.696901
 30
0.0
 10
41.517596
 20
8.685525
 30
0.0
 10
41.230756
 20
8.683496
 30
0.0
 10
40.944671
 20
8.676008
 30
0.0
 10
40.657953
 20
8.661445
 30
0.0
 10
40.414156
 20
8.634703
 30
0.0
 10
40.169778
 20
8.607896
 30
0.0
 10
39.925799
 20
8.581133
 30
0.0
 10
39.918348
 20
8.590879
 30
0.0
 10
39.910223
 20
8.601506
 30
0.0
 10
39.902251
 20
8.611933
 30
0.0
 10
39.902742
 20
9.273562
 30
0.0
 10
39.875930
 20
9.934217
 30
0.0
 10
39.836899
 20
10.593845
 30
0.0
 10
39.815603
 20
10.918653
 30
0.0
 10
39.794257
 20
11.244234
 30
0.0
 10
39.772945
 20
11.569285
 30
0.0
 10
39.711198
 20
12.000623
 30
0.0
 10
39.528148
 20
12.393961
 30
0.0
 10
39.138062
 20
12.550365
 30
0.0
 10
38.641259
 20
12.370910
 30
0.0
 10
38.243068
 20
12.016756
 30
0.0
 10
37.919759
 20
11.593117
 30
0.0
 10
37.944215
 20
11.220123
 30
0.0
 10
37.968728
 20
10.846239
 30
0.0
 10
37.993202
 20
10.472965
 30
0.0
 10
38.041607
 20
9.814254
 30
0.0
 10
38.103517
 20
9.156093
 30
0.0
 10
38.187184
 20
8.499485
 30
0.0
 10
38.177677
 20
8.488626
 30
0.0
 10
38.167309
 20
8.476785
 30
0.0
 10
38.157136
 20
8.465165
 30
0.0
 10
37.929910
 20
8.469160
 30
0.0
 10
37.702027
 20
8.464484
 30
0.0
 10
37.474359
 20
8.452685
 30
0.0
 10
37.175238
 20
8.422317
 30
0.0
 10
36.875404
 20
8.391876
 30
0.0
 10
36.576058
 20
8.361485
 30
0.0
 10
36.568608
 20
8.371231
 30
0.0
 10
36.560483
 20
8.381858
 30
0.0
 10
36.552511
 20
8.392285
 30
0.0
 10
36.584910
 20
9.053357
 30
0.0
 10
36.578791
 20
9.715895
 30
0.0
 10
36.546111
 20
10.378061
 30
0.0
 10
36.533006
 20
10.577943
 30
0.0
 10
36.519869
 20
10.778302
 30
0.0
 10
36.506754
 20
10.978333
 30
0.0
 10
36.451546
 20
11.690548
 30
0.0
 10
36.372304
 20
12.400184
 30
0.0
 10
36.243626
 20
13.103365
 30
0.0
 10
36.249742
 20
13.113997
 30
0.0
 10
36.256411
 20
13.125590
 30
0.0
 10
36.262955
 20
13.136965
 30
0.0
 10
36.742168
 20
13.154027
 30
0.0
 10
37.219260
 20
13.189124
 30
0.0
 10
37.691855
 20
13.262957
 30
0.0
 10
37.744144
 20
13.250645
 30
0.0
 10
37.778622
 20
13.209108
 30
0.0
 10
37.795707
 20
13.156733
 30
0.0
 10
37.829349
 20
12.891817
 30
0.0
 10
37.851050
 20
12.625678
 30
0.0
 10
37.869504
 20
12.359557
 30
0.0
 10
37.884734
 20
12.349617
 30
0.0
 10
37.899885
 20
12.339730
 30
0.0
 10
37.914490
 20
12.330197
 30
0.0
 10
38.140926
 20
12.624816
 30
0.0
 10
38.401535
 20
12.888617
 30
0.0
 10
38.697436
 20
13.113565
 30
0.0
 10
38.972279
 20
13.267138
 30
0.0
 10
39.265701
 20
13.376537
 30
0.0
 10
39.575620
 20
13.429509
 30
0.0
 10
39.989811
 20
13.423173
 30
0.0
 10
40.391575
 20
13.328042
 30
0.0
 10
40.742864
 20
13.113109
 30
0.0
 10
41.007703
 20
12.761503
 30
0.0
 10
41.150138
 20
12.343917
 30
0.0
 10
41.209576
 20
11.905709
 30
0.0
 10
41.236138
 20
11.500589
 30
0.0
 10
41.262762
 20
11.094502
 30
0.0
 10
41.289344
 20
10.689077
 30
0.0
 10
41.289347
 20
10.689077
 30
0.0
 10
41.289347
 20
10.689077
 30
0.0
 10
41.289347
 20
10.689077
 30
0.0
  0
LWPOLYLINE
  5
106
100
AcDbEntity
  8
Layer_1
 62
7
100
AcDbPolyline
 90
22
 70
0
 10
44.240916
 20
9.027837
 30
0.0
 10
44.759504
 20
11.350195
 30
0.0
 10
45.277925
 20
13.671800
 30
0.0
 10
45.796683
 20
15.994917
 30
0.0
 10
46.288599
 20
15.885072
 30
0.0
 10
46.781687
 20
15.774965
 30
0.0
 10
47.273972
 20
15.665037
 30
0.0
 10
46.846189
 20
13.749330
 30
0.0
 10
46.418545
 20
11.834244
 30
0.0
 10
45.990623
 20
9.917909
 30
0.0
 10
46.932592
 20
9.707566
 30
0.0
 10
47.874255
 20
9.497290
 30
0.0
 10
48.816532
 20
9.286877
 30
0.0
 10
48.725821
 20
8.880651
 30
0.0
 10
48.634893
 20
8.473456
 30
0.0
 10
48.544113
 20
8.066925
 30
0.0
 10
47.109716
 20
8.387229
 30
0.0
 10
45.675783
 20
8.707429
 30
0.0
 10
44.240916
 20
9.027837
 30
0.0
 10
44.240916
 20
9.027837
 30
0.0
 10
44.240916
 20
9.027837
 30
0.0
 10
44.240916
 20
9.027837
 30
0.0
  0
LWPOLYLINE
  5
107
100
AcDbEntity
  8
Layer_1
 62
7
100
AcDbPolyline
 90
16
 70
0
 10
49.749771
 20
7.797693
 30
0.0
 10
50.268360
 20
10.120051
 30
0.0
 10
50.786781
 20
12.441656
 30
0.0
 10
51.305539
 20
14.764773
 30
0.0
 10
51.797454
 20
14.654928
 30
0.0
 10
52.290542
 20
14.544821
 30
0.0
 10
52.782827
 20
14.434893
 30
0.0
 10
52.264238
 20
12.112536
 30
0.0
 10
51.745817
 20
9.790931
 30
0.0
 10
51.227059
 20
7.467813
 30
0.0
 10
50.735144
 20
7.577659
 30
0.0
 10
50.242056
 20
7.687766
 30
0.0
 10
49.749771
 20
7.797693
 30
0.0
 10
49.749771
 20
7.797693
 30
0.0
 10
49.749771
 20
7.797693
 30
0.0
 10
49.749771
 20
7.797693
 30
0.0
  0
LWPOLYLINE
  5
108
100
AcDbEntity
  8
Layer_1
 62
7
100
AcDbPolyline
 90
46
 70
0
 10
59.171057
 20
5.693901
 30
0.0
 10
58.545848
 20
5.833510
 30
0.0
 10
57.919149
 20
5.973452
 30
0.0
 10
57.293472
 20
6.113165
 30
0.0
 10
56.675509
 20
8.095622
 30
0.0
 10
56.057748
 20
10.077436
 30
0.0
 10
55.439583
 20
12.060541
 30
0.0
 10
55.426013
 20
12.063579
 30
0.0
 10
55.411215
 20
12.066891
 30
0.0
 10
55.396695
 20
12.070141
 30
0.0
 10
55.289060
 20
11.397850
 30
0.0
 10
55.173858
 20
10.726012
 30
0.0
 10
55.042430
 20
10.057965
 30
0.0
 10
54.798388
 20
8.965092
 30
0.0
 10
54.554425
 20
7.872573
 30
0.0
 10
54.310304
 20
6.779341
 30
0.0
 10
53.870753
 20
6.877495
 30
0.0
 10
53.430155
 20
6.975882
 30
0.0
 10
52.990275
 20
7.074109
 30
0.0
 10
53.508864
 20
9.396467
 30
0.0
 10
54.027284
 20
11.718072
 30
0.0
 10
54.546043
 20
14.041189
 30
0.0
 10
55.166491
 20
13.902641
 30
0.0
 10
55.788419
 20
13.763762
 30
0.0
 10
56.409332
 20
13.625109
 30
0.0
 10
57.029608
 20
11.660482
 30
0.0
 10
57.649682
 20
9.696492
 30
0.0
 10
58.270160
 20
7.731221
 30
0.0
 10
58.280716
 20
7.728943
 30
0.0
 10
58.292228
 20
7.726459
 30
0.0
 10
58.303523
 20
7.724021
 30
0.0
 10
58.414785
 20
8.371758
 30
0.0
 10
58.531497
 20
9.017373
 30
0.0
 10
58.660890
 20
9.660453
 30
0.0
 10
58.906351
 20
10.759682
 30
0.0
 10
59.151732
 20
11.858553
 30
0.0
 10
59.397273
 20
12.958141
 30
0.0
 10
59.839997
 20
12.859279
 30
0.0
 10
60.283776
 20
12.760182
 30
0.0
 10
60.726832
 20
12.661245
 30
0.0
 10
60.208244
 20
10.338888
 30
0.0
 10
59.689823
 20
8.017283
 30
0.0
 10
59.171065
 20
5.694165
 30
0.0
 10
59.171057
 20
5.693901
 30
0.0
 10
59.171057
 20
5.693901
 30
0.0
 10
59.171057
 20
5.693901
 30
0.0
  0
LWPOLYLINE
  5
109
100
AcDbEntity
  8
Layer_1
 62
7
100
AcDbPolyline
 90
40
 70
0
 10
64.932480
 20
4.407357
 30
0.0
 10
63.594980
 20
4.706024
 30
0.0
 10
62.257913
 20
5.004593
 30
0.0
 10
60.919975
 20
5.303357
 30
0.0
 10
61.438564
 20
7.625715
 30
0.0
 10
61.956985
 20
9.947320
 30
0.0
 10
62.475743
 20
12.270437
 30
0.0
 10
63.813243
 20
11.971771
 30
0.0
 10
65.150310
 20
11.673201
 30
0.0
 10
66.488248
 20
11.374437
 30
0.0
 10
66.398245
 20
10.971384
 30
0.0
 10
66.308028
 20
10.567369
 30
0.0
 10
66.217957
 20
10.164013
 30
0.0
 10
65.372886
 20
10.352720
 30
0.0
 10
64.528088
 20
10.541365
 30
0.0
 10
63.682740
 20
10.730133
 30
0.0
 10
63.568997
 20
10.220764
 30
0.0
 10
63.454982
 20
9.710181
 30
0.0
 10
63.341153
 20
9.200429
 30
0.0
 10
64.127450
 20
9.024846
 30
0.0
 10
64.914498
 20
8.849094
 30
0.0
 10
65.700048
 20
8.673677
 30
0.0
 10
65.610045
 20
8.270624
 30
0.0
 10
65.519827
 20
7.866609
 30
0.0
 10
65.429756
 20
7.463253
 30
0.0
 10
64.643459
 20
7.638834
 30
0.0
 10
63.856411
 20
7.814583
 30
0.0
 10
63.070861
 20
7.989997
 30
0.0
 10
62.937274
 20
7.391766
 30
0.0
 10
62.803369
 20
6.792109
 30
0.0
 10
62.669682
 20
6.193429
 30
0.0
 10
63.514754
 20
6.004723
 30
0.0
 10
64.359551
 20
5.816078
 30
0.0
 10
65.204899
 20
5.627309
 30
0.0
 10
65.114188
 20
5.221083
 30
0.0
 10
65.023260
 20
4.813888
 30
0.0
 10
64.932480
 20
4.407357
 30
0.0
 10
64.932480
 20
4.407357
 30
0.0
 10
64.932480
 20
4.407357
 30
0.0
 10
64.932480
 20
4.407357
 30
0.0
  0
ENDSEC
  0
SECTION
  2
OBJECTS
  0
DICTIONARY
  5
C
330
0
100
AcDbDictionary
  3
ACAD_GROUP
350
D
  3
ACAD_MLINESTYLE
350
17
  0
DICTIONARY
  5
D
330
C
100
AcDbDictionary
  0
DICTIONARY
  5
1A
330
C
100
AcDbDictionary
  0
DICTIONARY
  5
17
330
C
100
AcDbDictionary
  3
STANDARD
350
18
  0
DICTIONARY
  5
19
330
C
100
AcDbDictionary
  0
ENDSEC
  0
EOF
