<?xml version="1.0" encoding="UTF-8" standalone="no"?>
<!-- Created with Inkscape (http://www.inkscape.org/) -->

<svg
   xmlns:dc="http://purl.org/dc/elements/1.1/"
   xmlns:cc="http://creativecommons.org/ns#"
   xmlns:rdf="http://www.w3.org/1999/02/22-rdf-syntax-ns#"
   xmlns:svg="http://www.w3.org/2000/svg"
   xmlns="http://www.w3.org/2000/svg"
   xmlns:sodipodi="http://sodipodi.sourceforge.net/DTD/sodipodi-0.dtd"
   xmlns:inkscape="http://www.inkscape.org/namespaces/inkscape"
   width="25mm"
   height="8mm"
   viewBox="0 0 88.5826772 28.3464566"
   id="svg2"
   version="1.1"
   inkscape:version="0.91pre4 r13712"
   sodipodi:docname="getinline.svg">
  <sodipodi:namedview
     id="base"
     pagecolor="#ffffff"
     bordercolor="#666666"
     borderopacity="1.0"
     inkscape:pageopacity="0.0"
     inkscape:pageshadow="2"
     inkscape:zoom="22.627417"
     inkscape:cx="29.2411292"
     inkscape:cy="13.2742132"
     inkscape:document-units="mm"
     inkscape:current-layer="layer1"
     showgrid="false"
     inkscape:window-width="1280"
     inkscape:window-height="961"
     inkscape:window-x="-8"
     inkscape:window-y="-8"
     inkscape:window-maximized="1" />
  <defs
     id="defs4" />
  <metadata
     id="metadata7">
    <rdf:RDF>
      <cc:Work
         rdf:about="">
        <dc:format>image/svg+xml</dc:format>
        <dc:type
           rdf:resource="http://purl.org/dc/dcmitype/StillImage" />
        <dc:title />
      </cc:Work>
    </rdf:RDF>
  </metadata>
  <g
     inkscape:label="Layer 1"
     inkscape:groupmode="layer"
     id="layer1"
     transform="translate(0,-1024.01575)">
    <path
       inkscape:connector-curvature="0"
       id="path4155"
       style="font-style:normal;font-variant:normal;font-weight:normal;font-stretch:normal;font-size:13.75px;line-height:1000%;font-family:'Linux Biolinum G';-inkscape-font-specification:'Linux Biolinum G, Normal';text-align:start;letter-spacing:0px;word-spacing:0px;writing-mode:lr-tb;text-anchor:start;fill:#000000;fill-opacity:1;stroke:none;stroke-width:1px;stroke-linecap:butt;stroke-linejoin:miter;stroke-opacity:1"
       d="M20.5249001 1041.18968L20.3762917933 1040.32950237L20.2137614293 1039.47400163L20.0165227 1038.62443L20.0230998367 1038.61060305L20.0302721701 1038.59552483L20.0373097 1038.58073L20.2704799788 1038.57366058L20.5024549793 1038.55095436L20.7340924 1038.52023L20.8629829586 1038.50081008L20.9915466228 1038.47987927L21.1184442 1038.45733L21.2017093389 1038.43836578L21.2845346853 1038.41796959L21.3670674 1038.39413L21.3914690457 1038.3882053L21.4157423883 1038.38231175L21.4391434 1038.37663L21.4451820133 1038.3886218L21.4517670896 1038.40169879L21.4582284 1038.41453L21.4850047193 1039.19521043L21.5546389308 1039.97221113L21.6546208 1040.74695L21.6588703346 1040.7762011L21.6630975253 1040.8052984L21.6671728 1040.83335L21.708964853 1041.05681064L21.7779780846 1041.27439306L21.9012971 1041.4642L21.9031290922 1041.47682461L21.9051268701 1041.49059168L21.9070871 1041.5041L20.9161153459 1042.36278806L19.7392066565 1042.94370678L18.4636599 1043.25271L17.8298827106 1043.30650758L17.1951169013 1043.27823592L16.5711143 1043.16131L16.0241782944 1042.97508304L15.5068483906 1042.71762369L15.0339534 1042.38733L14.623353904 1042.00163315L14.2628054092 1041.56679136L13.9570038 1041.09194L13.70636854 1040.56762221L13.5226926685 1040.01749936L13.4061922 1039.44875L13.3539255544 1038.89382496L13.3619109714 1038.33607328L13.4354612 1037.78232L13.5608288493 1037.29366318L13.7397201962 1036.82121144L13.977118 1036.37389L14.2529508047 1035.97962355L14.5651834623 1035.61458589L14.910715 1035.28167L15.2877618414 1034.98482052L15.6931180136 1034.72561722L16.1213728 1034.50876L16.5625140333 1034.33570405L17.0169107286 1034.20384679L17.4819992 1034.11433L17.8022969529 1034.07561304L18.1251874188 1034.05165355L18.4483989 1034.04173L18.7420281081 1034.03939985L19.0357744599 1034.04776205L19.3276913 1034.07003L19.5610362238 1034.09190695L19.7941906305 1034.11893837L20.0248096 1034.15193L20.186054034 1034.17876337L20.3473138028 1034.20896918L20.50642 1034.24473L20.5633455157 1034.25712109L20.6188364783 1034.26919992L20.6745629 1034.28133L20.6848065523 1034.29272062L20.6959772019 1034.30514204L20.7069379 1034.31733L20.6671692736 1034.87990693L20.6528643143 1035.44233616L20.6739209 1036.00465L20.6295850707 1036.01568687L20.5854823578 1036.02666571L20.5429646 1036.03725L20.1377544206 1035.60667461L19.6641315333 1035.25223336L19.135227 1034.98668L18.5688620419 1034.81603726L17.9806165462 1034.7491036L17.3895916 1034.78574L16.5500537089 1035.0217518L15.8186925363 1035.49467504L15.2631763 1036.1666L14.8636596039 1037.09405273L14.723325293 1038.09551812L14.7878261 1039.10544L14.8531772961 1039.47289149L14.9421304068 1039.83611156L15.0543691 1040.19292L15.2001741394 1040.54367893L15.3744097389 1040.88080185L15.5742406 1041.20289L15.8015556372 1041.50313622L16.0562611784 1041.77956829L16.3386408 1042.02807L16.6594286153 1042.24242356L17.0080047802 1042.40810567L17.3747719 1042.52883L17.8085969765 1042.60548629L18.248091296 1042.62128072L18.6851915 1042.58273L19.3814115308 1042.44479105L20.0485455319 1042.20305401L20.6097774 1041.77394L20.581491945 1041.57925003L20.5532839629 1041.3850933L20.5248324 1041.18926L20.5249001 1041.18968L20.5249001 1041.18968L20.5249001 1041.18968" />
    <path
       inkscape:connector-curvature="0"
       id="path4157"
       style="font-style:normal;font-variant:normal;font-weight:normal;font-stretch:normal;font-size:13.75px;line-height:1000%;font-family:'Linux Biolinum G';-inkscape-font-specification:'Linux Biolinum G, Normal';text-align:start;letter-spacing:0px;word-spacing:0px;writing-mode:lr-tb;text-anchor:start;fill:#000000;fill-opacity:1;stroke:none;stroke-width:1px;stroke-linecap:butt;stroke-linejoin:miter;stroke-opacity:1"
       d="M25.2708007 1039.34683L25.3718924039 1040.00119617L25.4917980182 1040.65386517L25.6685101 1041.29044L26.2574801773 1041.19980797L26.8450958249 1041.10038196L27.4300503 1040.99379L27.9317915396 1040.89806839L28.4327892483 1040.79894801L28.9333191 1040.69394L29.1150183765 1040.65398174L29.2962199846 1040.61413292L29.4789863 1040.57394L29.4905993924 1040.59063073L29.5021514236 1040.6072337L29.5132883 1040.62324L29.5198481027 1040.77475232L29.5330747554 1040.92675889L29.5523463 1041.0789L29.5805088271 1041.21764311L29.6098312449 1041.35497526L29.6397413 1041.49362L29.6331641633 1041.50747859L29.6259918299 1041.52259132L29.6189543 1041.53742L29.3433013914 1041.55215152L29.0699681639 1041.57974618L28.7959349 1041.61622L27.557916468 1041.79608314L26.320299254 1041.97588799L25.0818756 1042.15581L24.9507587669 1042.17557414L24.8208849973 1042.19670736L24.6908795 1042.21971L24.6120530125 1042.2375225L24.5337867989 1042.25547954L24.4545805 1042.27431L24.4304903244 1042.28240145L24.4065268141 1042.29045035L24.3834245 1042.29821L24.3773858867 1042.2862182L24.3708008104 1042.27314121L24.3643395 1042.26031L24.3194906853 1041.34259391L24.224018439 1040.42897193L24.1014546 1039.51691L23.9402524405 1038.40734786L23.7791025234 1037.29814531L23.6178476 1036.18822L23.4755411321 1035.28005291L23.3059518358 1034.37609327L23.0891969 1033.48344L23.0957740367 1033.46961305L23.1029463701 1033.45453483L23.1099839 1033.43974L23.3431535198 1033.43267058L23.5751282505 1033.40996436L23.8067656 1033.37924L25.0004898131 1033.20581352L26.193827163 1033.03244324L27.3879421 1032.85896L27.6612725644 1032.81576622L27.9317188211 1032.76430269L28.1993741 1032.70034L28.2096145883 1032.71173062L28.2207817874 1032.72415204L28.2317391 1032.73634L28.2453940494 1032.90983287L28.2607571452 1033.08401527L28.2804601 1033.25844L28.3014301082 1033.37541299L28.3280571432 1033.49173313L28.3581921 1033.60673L28.3518103499 1033.6260276L28.3454621548 1033.64522373L28.3393421 1033.66373L27.0943704686 1033.75516907L25.8537243033 1033.88065536L24.6154033 1034.04193L24.6274350155 1034.70351735L24.6978566834 1035.36140451L24.7872138 1036.01836L24.8383203178 1036.37012923L24.8895486547 1036.72273696L24.9406935 1037.07477L25.9518360045 1036.91151118L26.9573303366 1036.71904744L27.9577467 1036.50075L27.9721925438 1036.51153945L27.9879456611 1036.5233053L28.0034027 1036.53485L28.0002879031 1036.68413281L28.0093878318 1036.83135103L28.0272497 1036.97915L28.0519612005 1037.12389537L28.0849134299 1037.26537109L28.1298546 1037.40522L28.1190755883 1037.41967977L28.1073211321 1037.43544806L28.0957876 1037.45092L27.0744539672 1037.51911416L26.0548967397 1037.62459185L25.0401222 1037.75917L25.1169428586 1038.28793103L25.1939466294 1038.81795243L25.2708249 1039.34711L25.2708007 1039.34683L25.2708007 1039.34683L25.2708007 1039.34683" />
    <path
       inkscape:connector-curvature="0"
       id="path4159"
       style="font-style:normal;font-variant:normal;font-weight:normal;font-stretch:normal;font-size:13.75px;line-height:1000%;font-family:'Linux Biolinum G';-inkscape-font-specification:'Linux Biolinum G, Normal';text-align:start;letter-spacing:0px;word-spacing:0px;writing-mode:lr-tb;text-anchor:start;fill:#000000;fill-opacity:1;stroke:none;stroke-width:1px;stroke-linecap:butt;stroke-linejoin:miter;stroke-opacity:1"
       d="M32.6006706 1034.88297L32.5001630185 1034.22919228L32.3824931217 1033.57784328L32.2096041 1032.93839L31.7114734643 1033.01548379L31.2144205012 1033.10293656L30.7214363 1033.20209L30.4010956395 1033.27311865L30.0809327332 1033.34937327L29.7649102 1033.43604L29.6720275186 1033.46534273L29.5793992399 1033.49456519L29.4859711 1033.52404L29.4743580076 1033.50734927L29.4628059764 1033.4907463L29.4516691 1033.47474L29.4274623404 1033.17338445L29.3806815862 1032.87429268L29.3213559 1032.57779L29.3279330367 1032.56396305L29.3351053701 1032.54888483L29.3421429 1032.53409L29.6177963636 1032.51934397L29.891129859 1032.49171379L30.1651632 1032.45519L31.9147776804 1032.20099694L33.6638251444 1031.94688626L35.4140123 1031.69261L35.6873427286 1031.64941708L35.9577887219 1031.59795654L36.2254434 1031.534L36.2356870523 1031.54539063L36.2468577019 1031.55781204L36.2578184 1031.57L36.2853093086 1031.87103197L36.3256404747 1032.17151128L36.3881317 1032.46695L36.3817465643 1032.4862476L36.3753950015 1032.50544373L36.3692717 1032.52395L35.4407457926 1032.53543144L34.5142399338 1032.61752083L33.5915808 1032.73754L33.6076832671 1033.39838351L33.6802985565 1034.05726843L33.7700364 1034.71301L33.9312385929 1035.82257214L34.0923885432 1036.93177469L34.2536435 1038.0417L34.3969036985 1038.94911554L34.5693152098 1039.85197592L34.7889374 1040.74552L34.7802593258 1040.75966336L34.770795931 1040.77508662L34.7615104 1040.79022L34.5277013237 1040.79809006L34.2953064913 1040.82038129L34.0647287 1040.85072L33.8335841033 1040.88744517L33.6049311381 1040.93215595L33.3795353 1040.991L33.3671907102 1040.97989414L33.3537289992 1040.96778326L33.3405203 1040.9559L33.298563335 1040.03790415L33.2058321734 1039.1231882L33.0842787 1038.21154L32.9230765405 1037.10197786L32.7619266234 1035.99277531L32.6006717 1034.88285L32.6006706 1034.88297L32.6006706 1034.88297L32.6006706 1034.88297" />
    <path
       inkscape:connector-curvature="0"
       id="path4150"
       style="font-style:normal;font-variant:normal;font-weight:bold;font-stretch:normal;font-size:13.75px;line-height:1000%;font-family:'Linux Biolinum G';-inkscape-font-specification:'Linux Biolinum G, Bold';text-align:start;letter-spacing:0px;word-spacing:0px;writing-mode:lr-tb;text-anchor:start;fill:#000000;fill-opacity:1;stroke:none;stroke-width:1px;stroke-linecap:butt;stroke-linejoin:miter;stroke-opacity:1"
       d="M41.0512638 1033.81273L41.0657934013 1033.5539655L41.1504594474 1033.30872691L41.3003592 1033.09666L41.5056693644 1032.9259565L41.7486941298 1032.81455423L42.0121537 1032.76739L42.2801757774 1032.77988764L42.536595631 1032.86050649L42.7612854 1033.0076L42.9396760431 1033.19511493L43.058228477 1033.42367681L43.108005 1033.67788L43.0919380977 1033.93595049L43.0037829655 1034.17917218L42.8517712 1034.38769L42.6468646265 1034.55983165L42.4029241825 1034.67064465L42.139976 1034.71695L41.8735472555 1034.70540248L41.6164145972 1034.62710813L41.391284 1034.48345L41.2165685404 1034.2956937L41.0996718541 1034.06508968L41.0512638 1033.81273L41.0512638 1033.81273L41.0512638 1033.81273L41.0512638 1033.81273M41.5065637 1038.90983L41.4400715728 1038.02446665L41.3487463212 1037.1416189L41.1986302 1036.26561L41.2110493904 1036.24658324L41.2234032811 1036.22765653L41.2353132 1036.20941L41.3747094908 1036.20518739L41.5138588002 1036.20343764L41.6520027 1036.20241L41.8374695101 1036.19989984L42.0241677892 1036.19493737L42.2093748 1036.18601L42.5267132253 1036.15310818L42.8427273147 1036.10775557L43.1563115 1036.05668L43.2260580764 1036.06876045L43.2716495003 1036.12088569L43.2861263 1036.18946L43.278566505 1037.00492025L43.282864261 1037.82101781L43.3120243 1038.63686L43.3317700084 1038.93801876L43.3515627832 1039.23989538L43.3713233 1039.54128L43.4368181936 1040.36639621L43.5308111755 1041.18865765L43.6673967 1042.00461L43.6597520086 1042.01789906L43.6514155124 1042.03239072L43.6432357 1042.04661L43.3019492517 1042.04879367L42.9620286485 1042.05673013L42.6222777 1042.07321L42.2857656755 1042.10124482L41.9491047104 1042.13779098L41.6132924 1042.17975L41.6039792984 1042.16756836L41.5938234097 1042.15428434L41.5838584 1042.14125L41.6142935929 1041.31517542L41.59910269 1040.48672115L41.5557644 1039.66035L41.5393828443 1039.41049764L41.5229622411 1039.16004973L41.5065684 1038.91001L41.5065637 1038.90983L41.5065637 1038.90983L41.5065637 1038.90983" />
    <path
       inkscape:connector-curvature="0"
       id="path4152"
       style="font-style:normal;font-variant:normal;font-weight:bold;font-stretch:normal;font-size:13.75px;line-height:1000%;font-family:'Linux Biolinum G';-inkscape-font-specification:'Linux Biolinum G, Bold';text-align:start;letter-spacing:0px;word-spacing:0px;writing-mode:lr-tb;text-anchor:start;fill:#000000;fill-opacity:1;stroke:none;stroke-width:1px;stroke-linecap:butt;stroke-linejoin:miter;stroke-opacity:1"
       d="M51.6116834 1039.00086L51.6780866427 1039.82627512L51.7756904024 1040.64883889L51.9211557 1041.4633L51.9135110086 1041.47658906L51.9051745124 1041.49108072L51.8969947 1041.5053L51.5384444088 1041.50783685L51.180839341 1041.51719725L50.8224408 1041.5354L50.5176949159 1041.56882842L50.2122226298 1041.60233651L49.9072482 1041.63579L49.8979350984 1041.62360836L49.8877792097 1041.61032434L49.8778142 1041.59729L49.8784269222 1040.77025398L49.8449121819 1039.94443527L49.7961242 1039.1199L49.7695043385 1038.71389076L49.7428210251 1038.30691373L49.7161812 1037.9006L49.6389980282 1037.36142745L49.4101853429 1036.86975561L48.922578 1036.67425L48.3015732293 1036.89856943L47.8038353403 1037.34126196L47.3996989 1037.87081L47.4302683027 1038.337053L47.4609105716 1038.80440734L47.4915029 1039.271L47.5520084229 1040.09438878L47.6293958926 1040.91709103L47.7339799 1041.73785L47.7220956813 1041.75142383L47.7091360026 1041.76622602L47.6964199 1041.78075L47.4123876012 1041.77575622L47.1275335186 1041.78160222L46.842949 1041.79635L46.4690473843 1041.83431035L46.094254525 1041.87236118L45.7200725 1041.91035L45.7107593984 1041.89816836L45.7006035097 1041.88488434L45.6906385 1041.87185L45.7311371672 1041.04551059L45.7234885697 1040.21733832L45.6826385 1039.38963L45.6662569443 1039.13977764L45.6498363411 1038.88932973L45.6334425 1038.63929L45.5644326555 1037.74902225L45.4653804047 1036.86197684L45.3045327 1035.983L45.3121773914 1035.96971094L45.3205138876 1035.95521928L45.3286937 1035.941L45.9277100491 1035.91967248L46.5240748493 1035.87580131L47.1148191 1035.78351L47.1801800859 1035.79890094L47.2232769823 1035.85082227L47.244634 1035.91629L47.2866866372 1036.24743494L47.3138119849 1036.58010947L47.33688 1036.91276L47.3559179286 1036.92518495L47.3748557564 1036.93754456L47.393113 1036.94946L47.6761575542 1036.58118691L48.0019184249 1036.25143573L48.3717951 1035.97025L48.7153492845 1035.77828413L49.0821265674 1035.64153529L49.4695244 1035.57532L49.9872633782 1035.58323986L50.4894686359 1035.70215382L50.9285794 1035.97082L51.2596291028 1036.41032732L51.4376720418 1036.93230983L51.51197 1037.48007L51.5451719862 1037.98647105L51.5784531138 1038.49407917L51.61168 1039.00086L51.6116834 1039.00086L51.6116834 1039.00086L51.6116834 1039.00086" />
    <path
       inkscape:connector-curvature="0"
       id="path4141"
       style="font-style:normal;font-variant:normal;font-weight:bold;font-stretch:normal;font-size:12.5px;line-height:1000%;font-family:'Open Sans';-inkscape-font-specification:'Open Sans, Bold';text-align:start;letter-spacing:0px;word-spacing:0px;writing-mode:lr-tb;text-anchor:start;fill:#000000;fill-opacity:1;stroke:none;stroke-width:1px;stroke-linecap:butt;stroke-linejoin:miter;stroke-opacity:1"
       d="M55.3011446 1041.07741L55.9493804011 1038.17446313L56.5974061215 1035.27245705L57.2458541 1032.36856L57.8607485917 1032.50586658L58.4771087653 1032.64350045L59.0924644 1032.78091L58.5577363765 1035.17554409L58.023181648 1037.56940212L57.4882786 1039.96482L58.6657395973 1040.22774972L59.842819002 1040.49059422L61.0206654 1040.75361L60.9072759053 1041.26139294L60.7936161317 1041.77038625L60.6801416 1042.27855L58.887144533 1041.87817043L57.0947285419 1041.47792062L55.3011446 1041.07741L55.3011446 1041.07741L55.3011446 1041.07741L55.3011446 1041.07741" />
    <path
       inkscape:connector-curvature="0"
       id="path4143"
       style="font-style:normal;font-variant:normal;font-weight:bold;font-stretch:normal;font-size:12.5px;line-height:1000%;font-family:'Open Sans';-inkscape-font-specification:'Open Sans, Bold';text-align:start;letter-spacing:0px;word-spacing:0px;writing-mode:lr-tb;text-anchor:start;fill:#000000;fill-opacity:1;stroke:none;stroke-width:1px;stroke-linecap:butt;stroke-linejoin:miter;stroke-opacity:1"
       d="M62.1872143 1042.61509L62.8354501345 1039.71214313L63.4834758882 1036.81013705L64.1319239 1033.90624L64.7468180587 1034.04354658L65.3631778985 1034.18118045L65.9785332 1034.31859L65.3302973655 1037.22153687L64.6822716118 1040.12354295L64.0338236 1043.02744L63.4189294413 1042.89013342L62.8025696015 1042.75249955L62.1872143 1042.61509L62.1872143 1042.61509L62.1872143 1042.61509L62.1872143 1042.61509" />
    <path
       inkscape:connector-curvature="0"
       id="path4145"
       style="font-style:normal;font-variant:normal;font-weight:bold;font-stretch:normal;font-size:12.5px;line-height:1000%;font-family:'Open Sans';-inkscape-font-specification:'Open Sans, Bold';text-align:start;letter-spacing:0px;word-spacing:0px;writing-mode:lr-tb;text-anchor:start;fill:#000000;fill-opacity:1;stroke:none;stroke-width:1px;stroke-linecap:butt;stroke-linejoin:miter;stroke-opacity:1"
       d="M73.9638212 1045.24483L73.182310244 1045.07031895L72.3989364539 1044.89539193L71.6168394 1044.72075L70.8443867661 1042.24267934L70.0721844693 1039.76541177L69.299479 1037.28653L69.2825164609 1037.28273313L69.2640189004 1037.27859265L69.245869 1037.27453L69.1113251583 1038.11489457L68.9673219342 1038.9546917L68.803037 1039.78975L68.4979848622 1041.15584186L68.193031586 1042.521491L67.8878796 1043.88803L67.3384416371 1043.76533816L66.7876940165 1043.64235386L66.237844 1043.51957L66.8860798011 1040.61662313L67.5341055215 1037.71461705L68.1825535 1034.81072L68.958114038 1034.98390577L69.7355232266 1035.15750435L70.5116654 1035.33082L71.2870095974 1037.78660402L72.0621025207 1040.24159217L72.8377005 1042.69818L72.8508955898 1042.70102766L72.8652847666 1042.70413301L72.8794035 1042.70718L73.0184808468 1041.89750901L73.1643715183 1041.09049027L73.3261127 1040.28664L73.6329384359 1038.91260481L73.9396647354 1037.53901493L74.2465909 1036.16453L74.7999959525 1036.28810759L75.3547201187 1036.41197974L75.9085402 1036.53565L75.2603043989 1039.43859687L74.6122786785 1042.34060295L73.9638307 1045.2445L73.9638212 1045.24483L73.9638212 1045.24483L73.9638212 1045.24483" />
    <path
       inkscape:connector-curvature="0"
       id="path4147"
       style="font-style:normal;font-variant:normal;font-weight:bold;font-stretch:normal;font-size:12.5px;line-height:1000%;font-family:'Open Sans';-inkscape-font-specification:'Open Sans, Bold';text-align:start;letter-spacing:0px;word-spacing:0px;writing-mode:lr-tb;text-anchor:start;fill:#000000;fill-opacity:1;stroke:none;stroke-width:1px;stroke-linecap:butt;stroke-linejoin:miter;stroke-opacity:1"
       d="M81.1656004 1046.85301L79.4937251024 1046.47967707L77.8223916275 1046.10646513L76.1499691 1045.73301L76.7982049345 1042.83006313L77.4462306882 1039.92805705L78.0946787 1037.02416L79.7665539642 1037.39749293L81.4378874058 1037.77070487L83.1103099 1038.14416L82.9978062799 1038.64797708L82.8850344927 1039.15299508L82.7724465 1039.65719L81.7161073388 1039.42130692L80.6601105169 1039.18550029L79.6034256 1038.94954L79.4612458442 1039.5862516L79.3187271842 1040.22448089L79.1764408 1040.86167L80.159312807 1041.08114976L81.1431224662 1041.30083891L82.12506 1041.52011L82.0125560137 1042.02392708L81.8997838593 1042.52894508L81.7871955 1043.03314L80.8043235263 1042.81366357L79.8205139005 1042.59397776L78.8385764 1042.37471L78.6715930523 1043.12249891L78.5042116777 1043.87207028L78.3371031 1044.62042L79.3934422945 1044.85630308L80.4494391498 1045.09210971L81.5061241 1045.32807L81.3927346386 1045.83585294L81.2790748984 1046.34484625L81.1656004 1046.85301L81.1656004 1046.85301L81.1656004 1046.85301L81.1656004 1046.85301" />
  </g>
</svg>
