%
M48
M72
T01C0.01200
T02C0.03200
T03C0.03600
T04C0.07874
T05C0.15748
%
T01
X22555Y49837
X25213Y48459
X27969Y47672
X30724Y47475
X33874Y47475
X36630Y47475
X47071Y54648
X35571Y63644
X128559Y69325
X117732Y69916
X117831Y72869
X117831Y75329
X104445Y113912
X105035Y116766
X106020Y119719
X117929Y120408
X119110Y117652
X120291Y114995
X121276Y112731
X100257Y120537
X106754Y133254
X132299Y123656
X134661Y123656
X137024Y123656
X139386Y123656
X139583Y135467
X137220Y135270
X134858Y135270
X136630Y161845
X134071Y162140
X131512Y161944
X123244Y160959
X123244Y158696
X118913Y157810
X118717Y160566
X118717Y162928
X118224Y170900
X118126Y173558
X118028Y176018
X122358Y174640
X122457Y172081
X112319Y191766
X110449Y193932
X108480Y195703
X106413Y197180
X122555Y197180
X122457Y194916
X106984Y181530
X97071Y191648
X91571Y178648
X132496Y135270
X123146Y136353
X123146Y138814
X119110Y140290
X118815Y137436
X118028Y134877
X98571Y134648
X84571Y131648
X83740Y138064
X81171Y148848
X82071Y152648
X83370Y157949
X78371Y167748
X79071Y181048
X81471Y183648
X77071Y191648
X80080Y195048
X65071Y192248
X60750Y192995
X55071Y191648
X40843Y178774
X35071Y170148
X45887Y164664
X52571Y152648
X56354Y151412
X60488Y152514
X62571Y145148
X68071Y151648
X71236Y152869
X73126Y142003
X70071Y130648
X61551Y130585
X35071Y156148
X39571Y151148
X40071Y142648
X35071Y138648
X104370Y158649
X93071Y160648
X92840Y156964
X65504Y162885
X62850Y164995
X58071Y165648
X54071Y144648
X51571Y141648
X48071Y121648
X56571Y117148
X64391Y118096
X136335Y171294
X133579Y171294
X131315Y171392
X152575Y161451
X155232Y161156
X150114Y156530
X152083Y155054
X153953Y153085
X28571Y124648
X35071Y120648
X128559Y78085
X128559Y75034
X128559Y72475
X124228Y42259
X123343Y39404
X122457Y36156
X121374Y33499
X120488Y30841
X119110Y27790
X127969Y35270
X110547Y54365
X108382Y52003
X106020Y50034
X103461Y48459
X93571Y57148
X89268Y70507
X127969Y110073
X81571Y117148
X65071Y107148
X56571Y102148
X64071Y93648
X64071Y86648
X67571Y79148
X64071Y77648
X51571Y85648
X69071Y48648
T02
X54189Y50625
X64189Y50924
X74189Y50625
X74189Y63223
X64189Y63223
X54189Y63223
T03
X84000Y100207
X44709Y73436
X83646Y73436
X44354Y100207
T04
X95685Y98656
X95685Y76215
X32693Y98656
X32693Y76215
X111433Y149444
X16945Y149444
X139780Y104168
X139780Y41176
T05
X64189Y177003
M30
