G75*
%MOIN*%
%OFA0B0*%
%FSLAX25Y25*%
%IPPOS*%
%LPD*%
%AMOC8*
5,1,8,0,0,1.08239X$1,22.5*
%
%ADD10C,0.00197*%
%ADD11C,0.00000*%
D10*
X0028953Y0029365D02*
X0029740Y0029365D01*
X0029906Y0029367D01*
X0030073Y0029373D01*
X0030239Y0029383D01*
X0030405Y0029397D01*
X0030570Y0029415D01*
X0030736Y0029437D01*
X0030900Y0029463D01*
X0031064Y0029493D01*
X0031227Y0029527D01*
X0031389Y0029565D01*
X0031550Y0029607D01*
X0031710Y0029653D01*
X0031869Y0029702D01*
X0032027Y0029756D01*
X0032183Y0029813D01*
X0032338Y0029874D01*
X0032492Y0029938D01*
X0032643Y0030007D01*
X0032794Y0030079D01*
X0032942Y0030154D01*
X0033088Y0030233D01*
X0033233Y0030316D01*
X0033375Y0030402D01*
X0033516Y0030492D01*
X0033654Y0030585D01*
X0033790Y0030681D01*
X0033923Y0030780D01*
X0034054Y0030883D01*
X0034183Y0030989D01*
X0034309Y0031098D01*
X0034432Y0031210D01*
X0034553Y0031325D01*
X0034670Y0031442D01*
X0034785Y0031563D01*
X0034897Y0031686D01*
X0035006Y0031812D01*
X0035112Y0031941D01*
X0035215Y0032072D01*
X0035314Y0032205D01*
X0035410Y0032341D01*
X0035503Y0032479D01*
X0035593Y0032620D01*
X0035679Y0032762D01*
X0035762Y0032907D01*
X0035841Y0033053D01*
X0035916Y0033201D01*
X0035988Y0033352D01*
X0036057Y0033503D01*
X0036121Y0033657D01*
X0036182Y0033812D01*
X0036239Y0033968D01*
X0036293Y0034126D01*
X0036342Y0034285D01*
X0036388Y0034445D01*
X0036430Y0034606D01*
X0036468Y0034768D01*
X0036502Y0034931D01*
X0036532Y0035095D01*
X0036558Y0035259D01*
X0036580Y0035425D01*
X0036598Y0035590D01*
X0036612Y0035756D01*
X0036622Y0035922D01*
X0036628Y0036089D01*
X0036630Y0036255D01*
X0036630Y0045113D01*
X0038598Y0047082D02*
X0038684Y0047080D01*
X0038770Y0047075D01*
X0038855Y0047065D01*
X0038940Y0047052D01*
X0039024Y0047035D01*
X0039108Y0047015D01*
X0039190Y0046991D01*
X0039271Y0046963D01*
X0039352Y0046932D01*
X0039430Y0046898D01*
X0039507Y0046860D01*
X0039583Y0046818D01*
X0039656Y0046774D01*
X0039727Y0046726D01*
X0039797Y0046675D01*
X0039864Y0046621D01*
X0039928Y0046565D01*
X0039990Y0046505D01*
X0040050Y0046443D01*
X0040106Y0046379D01*
X0040160Y0046312D01*
X0040211Y0046242D01*
X0040259Y0046171D01*
X0040303Y0046098D01*
X0040345Y0046022D01*
X0040383Y0045945D01*
X0040417Y0045867D01*
X0040448Y0045786D01*
X0040476Y0045705D01*
X0040500Y0045623D01*
X0040520Y0045539D01*
X0040537Y0045455D01*
X0040550Y0045370D01*
X0040560Y0045285D01*
X0040565Y0045199D01*
X0040567Y0045113D01*
X0040567Y0013617D01*
X0040566Y0013617D02*
X0040568Y0013531D01*
X0040573Y0013445D01*
X0040583Y0013360D01*
X0040596Y0013275D01*
X0040613Y0013191D01*
X0040633Y0013107D01*
X0040657Y0013025D01*
X0040685Y0012944D01*
X0040716Y0012863D01*
X0040750Y0012785D01*
X0040788Y0012708D01*
X0040830Y0012633D01*
X0040874Y0012559D01*
X0040922Y0012488D01*
X0040973Y0012418D01*
X0041027Y0012351D01*
X0041083Y0012287D01*
X0041143Y0012225D01*
X0041205Y0012165D01*
X0041269Y0012109D01*
X0041336Y0012055D01*
X0041406Y0012004D01*
X0041477Y0011956D01*
X0041551Y0011912D01*
X0041626Y0011870D01*
X0041703Y0011832D01*
X0041781Y0011798D01*
X0041862Y0011767D01*
X0041943Y0011739D01*
X0042025Y0011715D01*
X0042109Y0011695D01*
X0042193Y0011678D01*
X0042278Y0011665D01*
X0042363Y0011655D01*
X0042449Y0011650D01*
X0042535Y0011648D01*
X0085843Y0011648D01*
X0085929Y0011650D01*
X0086015Y0011655D01*
X0086100Y0011665D01*
X0086185Y0011678D01*
X0086269Y0011695D01*
X0086353Y0011715D01*
X0086435Y0011739D01*
X0086516Y0011767D01*
X0086597Y0011798D01*
X0086675Y0011832D01*
X0086752Y0011870D01*
X0086828Y0011912D01*
X0086901Y0011956D01*
X0086972Y0012004D01*
X0087042Y0012055D01*
X0087109Y0012109D01*
X0087173Y0012165D01*
X0087235Y0012225D01*
X0087295Y0012287D01*
X0087351Y0012351D01*
X0087405Y0012418D01*
X0087456Y0012488D01*
X0087504Y0012559D01*
X0087548Y0012632D01*
X0087590Y0012708D01*
X0087628Y0012785D01*
X0087662Y0012863D01*
X0087693Y0012944D01*
X0087721Y0013025D01*
X0087745Y0013107D01*
X0087765Y0013191D01*
X0087782Y0013275D01*
X0087795Y0013360D01*
X0087805Y0013445D01*
X0087810Y0013531D01*
X0087812Y0013617D01*
X0087811Y0013617D02*
X0087811Y0045113D01*
X0087813Y0045199D01*
X0087818Y0045285D01*
X0087828Y0045370D01*
X0087841Y0045455D01*
X0087858Y0045539D01*
X0087878Y0045623D01*
X0087902Y0045705D01*
X0087930Y0045786D01*
X0087961Y0045867D01*
X0087995Y0045945D01*
X0088033Y0046022D01*
X0088075Y0046098D01*
X0088119Y0046171D01*
X0088167Y0046242D01*
X0088218Y0046312D01*
X0088272Y0046379D01*
X0088328Y0046443D01*
X0088388Y0046505D01*
X0088450Y0046565D01*
X0088514Y0046621D01*
X0088581Y0046675D01*
X0088651Y0046726D01*
X0088722Y0046774D01*
X0088796Y0046818D01*
X0088871Y0046860D01*
X0088948Y0046898D01*
X0089026Y0046932D01*
X0089107Y0046963D01*
X0089188Y0046991D01*
X0089270Y0047015D01*
X0089354Y0047035D01*
X0089438Y0047052D01*
X0089523Y0047065D01*
X0089608Y0047075D01*
X0089694Y0047080D01*
X0089780Y0047082D01*
X0089780Y0047081D02*
X0097260Y0047081D01*
X0100803Y0047475D02*
X0101156Y0047563D01*
X0101155Y0047563D02*
X0101240Y0047582D01*
X0101324Y0047598D01*
X0101410Y0047609D01*
X0101496Y0047617D01*
X0101582Y0047621D01*
X0101668Y0047622D01*
X0101754Y0047618D01*
X0101840Y0047611D01*
X0101926Y0047600D01*
X0102011Y0047585D01*
X0102095Y0047567D01*
X0102178Y0047545D01*
X0102260Y0047519D01*
X0102342Y0047490D01*
X0102421Y0047457D01*
X0102500Y0047421D01*
X0102576Y0047381D01*
X0102651Y0047338D01*
X0102724Y0047292D01*
X0102794Y0047243D01*
X0102863Y0047191D01*
X0102929Y0047135D01*
X0102993Y0047077D01*
X0103054Y0047016D01*
X0103112Y0046953D01*
X0103168Y0046887D01*
X0103167Y0046887D02*
X0117875Y0028592D01*
X0117925Y0028528D01*
X0117971Y0028462D01*
X0118014Y0028393D01*
X0118054Y0028323D01*
X0118091Y0028251D01*
X0118124Y0028177D01*
X0118154Y0028102D01*
X0118180Y0028025D01*
X0118203Y0027947D01*
X0118223Y0027869D01*
X0118238Y0027789D01*
X0118250Y0027709D01*
X0118258Y0027629D01*
X0118263Y0027548D01*
X0118264Y0027467D01*
X0118261Y0027386D01*
X0118254Y0027305D01*
X0118244Y0027225D01*
X0118230Y0027145D01*
X0118212Y0027066D01*
X0118191Y0026988D01*
X0118166Y0026911D01*
X0118138Y0026835D01*
X0117732Y0025822D01*
X0116354Y0023066D01*
X0116354Y0023065D02*
X0116323Y0023010D01*
X0116295Y0022952D01*
X0116270Y0022894D01*
X0116249Y0022833D01*
X0116232Y0022772D01*
X0116219Y0022709D01*
X0116209Y0022646D01*
X0116204Y0022583D01*
X0116202Y0022519D01*
X0116204Y0022455D01*
X0116210Y0022391D01*
X0116221Y0022328D01*
X0116235Y0022266D01*
X0116252Y0022205D01*
X0116274Y0022145D01*
X0116299Y0022086D01*
X0116328Y0022029D01*
X0116360Y0021974D01*
X0116395Y0021921D01*
X0116434Y0021870D01*
X0116476Y0021822D01*
X0116520Y0021776D01*
X0116568Y0021733D01*
X0116617Y0021693D01*
X0116670Y0021657D01*
X0116724Y0021623D01*
X0116780Y0021593D01*
X0116839Y0021567D01*
X0116898Y0021544D01*
X0116959Y0021525D01*
X0117021Y0021509D01*
X0117084Y0021498D01*
X0117147Y0021490D01*
X0117211Y0021486D01*
X0117275Y0021487D01*
X0117338Y0021491D01*
X0117339Y0021491D02*
X0141354Y0021491D01*
X0141594Y0021491D01*
X0141833Y0021496D01*
X0142072Y0021507D01*
X0142311Y0021524D01*
X0142550Y0021547D01*
X0142788Y0021575D01*
X0143025Y0021609D01*
X0143261Y0021649D01*
X0143497Y0021695D01*
X0143731Y0021746D01*
X0143963Y0021803D01*
X0144195Y0021866D01*
X0144424Y0021934D01*
X0144652Y0022007D01*
X0144879Y0022086D01*
X0145103Y0022171D01*
X0145325Y0022261D01*
X0145545Y0022356D01*
X0145762Y0022457D01*
X0145977Y0022563D01*
X0146190Y0022674D01*
X0146399Y0022790D01*
X0146606Y0022911D01*
X0146810Y0023037D01*
X0147010Y0023168D01*
X0147208Y0023303D01*
X0147402Y0023444D01*
X0147593Y0023589D01*
X0147780Y0023739D01*
X0147963Y0023893D01*
X0148143Y0024051D01*
X0148319Y0024214D01*
X0148490Y0024381D01*
X0148658Y0024552D01*
X0148822Y0024728D01*
X0148981Y0024907D01*
X0149136Y0025090D01*
X0149286Y0025276D01*
X0149432Y0025466D01*
X0149573Y0025660D01*
X0149710Y0025857D01*
X0149842Y0026057D01*
X0149968Y0026260D01*
X0150090Y0026466D01*
X0150207Y0026676D01*
X0150319Y0026888D01*
X0150426Y0027102D01*
X0150527Y0027319D01*
X0150623Y0027539D01*
X0150714Y0027760D01*
X0150799Y0027984D01*
X0150879Y0028210D01*
X0150954Y0028438D01*
X0151023Y0028667D01*
X0151086Y0028898D01*
X0151144Y0029131D01*
X0151196Y0029365D01*
X0124425Y0044326D02*
X0124401Y0044249D01*
X0124374Y0044173D01*
X0124343Y0044099D01*
X0124308Y0044026D01*
X0124270Y0043955D01*
X0124229Y0043886D01*
X0124185Y0043819D01*
X0124138Y0043754D01*
X0124087Y0043691D01*
X0124034Y0043631D01*
X0123978Y0043573D01*
X0123919Y0043518D01*
X0123858Y0043466D01*
X0123795Y0043417D01*
X0123729Y0043370D01*
X0123661Y0043327D01*
X0123591Y0043287D01*
X0123519Y0043251D01*
X0123446Y0043218D01*
X0123371Y0043188D01*
X0123295Y0043162D01*
X0123218Y0043139D01*
X0123140Y0043120D01*
X0123061Y0043105D01*
X0122981Y0043093D01*
X0122901Y0043086D01*
X0122821Y0043082D01*
X0122741Y0043081D01*
X0122660Y0043085D01*
X0122580Y0043092D01*
X0122501Y0043103D01*
X0122421Y0043118D01*
X0122343Y0043136D01*
X0122266Y0043158D01*
X0122190Y0043184D01*
X0122115Y0043213D01*
X0122041Y0043246D01*
X0121969Y0043282D01*
X0121899Y0043321D01*
X0121831Y0043364D01*
X0121765Y0043410D01*
X0121701Y0043459D01*
X0121639Y0043510D01*
X0121580Y0043565D01*
X0112015Y0052840D01*
X0111952Y0052893D01*
X0111892Y0052949D01*
X0111835Y0053009D01*
X0111780Y0053070D01*
X0111728Y0053135D01*
X0111680Y0053201D01*
X0111635Y0053270D01*
X0111593Y0053341D01*
X0111554Y0053414D01*
X0111519Y0053488D01*
X0111488Y0053565D01*
X0111460Y0053642D01*
X0111436Y0053721D01*
X0111416Y0053801D01*
X0111399Y0053881D01*
X0111387Y0053963D01*
X0111378Y0054045D01*
X0111373Y0054127D01*
X0111372Y0054209D01*
X0111375Y0054292D01*
X0111382Y0054374D01*
X0111393Y0054455D01*
X0111407Y0054537D01*
X0111426Y0054617D01*
X0111448Y0054696D01*
X0111474Y0054774D01*
X0111504Y0054851D01*
X0111537Y0054927D01*
X0111574Y0055000D01*
X0111614Y0055072D01*
X0111658Y0055142D01*
X0111705Y0055210D01*
X0111827Y0055349D01*
X0117535Y0067948D02*
X0117623Y0068299D01*
X0117645Y0068376D01*
X0117669Y0068452D01*
X0117698Y0068527D01*
X0117730Y0068601D01*
X0117766Y0068673D01*
X0117804Y0068743D01*
X0117847Y0068811D01*
X0117892Y0068877D01*
X0117941Y0068941D01*
X0117992Y0069002D01*
X0118046Y0069061D01*
X0118104Y0069117D01*
X0118163Y0069171D01*
X0118225Y0069221D01*
X0118290Y0069269D01*
X0118357Y0069313D01*
X0118425Y0069354D01*
X0118496Y0069392D01*
X0118568Y0069426D01*
X0118642Y0069457D01*
X0118718Y0069485D01*
X0118794Y0069509D01*
X0118872Y0069529D01*
X0118950Y0069545D01*
X0119029Y0069558D01*
X0119109Y0069567D01*
X0119189Y0069572D01*
X0126395Y0069855D01*
X0126476Y0069847D01*
X0126556Y0069835D01*
X0126636Y0069819D01*
X0126715Y0069800D01*
X0126793Y0069777D01*
X0126869Y0069750D01*
X0126945Y0069719D01*
X0127018Y0069685D01*
X0127090Y0069648D01*
X0127161Y0069607D01*
X0127229Y0069563D01*
X0127295Y0069516D01*
X0127359Y0069465D01*
X0127420Y0069412D01*
X0127479Y0069356D01*
X0127535Y0069297D01*
X0127588Y0069236D01*
X0127638Y0069172D01*
X0127685Y0069106D01*
X0127729Y0069038D01*
X0127770Y0068967D01*
X0127807Y0068895D01*
X0127841Y0068821D01*
X0127871Y0068746D01*
X0127898Y0068669D01*
X0127921Y0068591D01*
X0127940Y0068512D01*
X0127956Y0068433D01*
X0127967Y0068352D01*
X0127975Y0068272D01*
X0127979Y0068190D01*
X0127980Y0068109D01*
X0127976Y0068028D01*
X0127969Y0067947D01*
X0127976Y0068028D01*
X0127980Y0068109D01*
X0127979Y0068190D01*
X0127975Y0068272D01*
X0127967Y0068352D01*
X0127956Y0068433D01*
X0127940Y0068512D01*
X0127921Y0068591D01*
X0127898Y0068669D01*
X0127871Y0068746D01*
X0127841Y0068821D01*
X0127807Y0068895D01*
X0127770Y0068967D01*
X0127729Y0069038D01*
X0127685Y0069106D01*
X0127638Y0069172D01*
X0127588Y0069236D01*
X0127535Y0069297D01*
X0127479Y0069356D01*
X0127420Y0069412D01*
X0127359Y0069465D01*
X0127295Y0069516D01*
X0127229Y0069563D01*
X0127161Y0069607D01*
X0127090Y0069648D01*
X0127018Y0069685D01*
X0126945Y0069719D01*
X0126869Y0069750D01*
X0126793Y0069777D01*
X0126715Y0069800D01*
X0126636Y0069819D01*
X0126556Y0069835D01*
X0126476Y0069847D01*
X0126395Y0069855D01*
X0126476Y0069847D01*
X0126556Y0069835D01*
X0126636Y0069819D01*
X0126715Y0069800D01*
X0126793Y0069777D01*
X0126869Y0069750D01*
X0126945Y0069719D01*
X0127018Y0069685D01*
X0127090Y0069648D01*
X0127161Y0069607D01*
X0127229Y0069563D01*
X0127295Y0069516D01*
X0127359Y0069465D01*
X0127420Y0069412D01*
X0127479Y0069356D01*
X0127535Y0069297D01*
X0127588Y0069236D01*
X0127638Y0069172D01*
X0127685Y0069106D01*
X0127729Y0069038D01*
X0127770Y0068967D01*
X0127807Y0068895D01*
X0127841Y0068821D01*
X0127871Y0068746D01*
X0127898Y0068669D01*
X0127921Y0068591D01*
X0127940Y0068512D01*
X0127956Y0068433D01*
X0127967Y0068352D01*
X0127975Y0068272D01*
X0127979Y0068190D01*
X0127980Y0068109D01*
X0127976Y0068028D01*
X0127969Y0067947D01*
X0126626Y0077521D02*
X0120056Y0076208D01*
X0120057Y0076207D02*
X0119978Y0076194D01*
X0119900Y0076184D01*
X0119821Y0076178D01*
X0119742Y0076176D01*
X0119662Y0076178D01*
X0119583Y0076184D01*
X0119505Y0076193D01*
X0119426Y0076207D01*
X0119349Y0076224D01*
X0119273Y0076245D01*
X0119197Y0076270D01*
X0119123Y0076298D01*
X0119051Y0076330D01*
X0118980Y0076366D01*
X0118911Y0076405D01*
X0118844Y0076447D01*
X0118779Y0076493D01*
X0118717Y0076542D01*
X0118657Y0076594D01*
X0118599Y0076648D01*
X0118545Y0076706D01*
X0118493Y0076766D01*
X0118444Y0076828D01*
X0118398Y0076893D01*
X0118356Y0076960D01*
X0118317Y0077029D01*
X0118281Y0077100D01*
X0118249Y0077172D01*
X0118220Y0077246D01*
X0118196Y0077321D01*
X0118174Y0077398D01*
X0118157Y0077475D01*
X0118143Y0077553D01*
X0118134Y0077632D01*
X0118128Y0077711D01*
X0118126Y0077790D01*
X0118123Y0077869D01*
X0118116Y0077947D01*
X0118105Y0078025D01*
X0118090Y0078102D01*
X0118072Y0078178D01*
X0118050Y0078253D01*
X0118024Y0078327D01*
X0117995Y0078400D01*
X0117962Y0078471D01*
X0117926Y0078541D01*
X0117886Y0078609D01*
X0117843Y0078674D01*
X0117797Y0078738D01*
X0117748Y0078799D01*
X0117695Y0078858D01*
X0117640Y0078914D01*
X0117583Y0078967D01*
X0117523Y0079017D01*
X0117460Y0079065D01*
X0117395Y0079109D01*
X0117328Y0079150D01*
X0117259Y0079187D01*
X0117189Y0079222D01*
X0117116Y0079252D01*
X0117043Y0079280D01*
X0116968Y0079303D01*
X0116892Y0079323D01*
X0116815Y0079339D01*
X0116738Y0079351D01*
X0116660Y0079359D01*
X0116581Y0079364D01*
X0116503Y0079365D01*
X0107567Y0079365D01*
X0107459Y0079360D01*
X0107351Y0079359D01*
X0107243Y0079362D01*
X0107135Y0079368D01*
X0107027Y0079378D01*
X0106920Y0079393D01*
X0106813Y0079411D01*
X0106707Y0079432D01*
X0106602Y0079458D01*
X0106498Y0079487D01*
X0106395Y0079520D01*
X0106293Y0079557D01*
X0106193Y0079597D01*
X0106094Y0079641D01*
X0105996Y0079688D01*
X0105901Y0079739D01*
X0105807Y0079793D01*
X0105716Y0079851D01*
X0105626Y0079911D01*
X0105539Y0079975D01*
X0105454Y0080042D01*
X0105371Y0080112D01*
X0105291Y0080185D01*
X0105214Y0080260D01*
X0105139Y0080339D01*
X0105067Y0080419D01*
X0104999Y0080503D01*
X0104933Y0080589D01*
X0104870Y0080677D01*
X0104811Y0080767D01*
X0104754Y0080860D01*
X0104701Y0080954D01*
X0104652Y0081050D01*
X0104606Y0081148D01*
X0104563Y0081247D01*
X0104524Y0081348D01*
X0104489Y0081451D01*
X0104457Y0081554D01*
X0104429Y0081658D01*
X0104405Y0081764D01*
X0104385Y0081870D01*
X0104368Y0081977D01*
X0104355Y0082084D01*
X0104346Y0082192D01*
X0104346Y0095113D01*
X0104348Y0095199D01*
X0104353Y0095285D01*
X0104363Y0095370D01*
X0104376Y0095455D01*
X0104393Y0095539D01*
X0104413Y0095623D01*
X0104437Y0095705D01*
X0104465Y0095786D01*
X0104496Y0095867D01*
X0104530Y0095945D01*
X0104568Y0096022D01*
X0104610Y0096098D01*
X0104654Y0096171D01*
X0104702Y0096242D01*
X0104753Y0096312D01*
X0104807Y0096379D01*
X0104863Y0096443D01*
X0104923Y0096505D01*
X0104985Y0096565D01*
X0105049Y0096621D01*
X0105116Y0096675D01*
X0105186Y0096726D01*
X0105257Y0096774D01*
X0105331Y0096818D01*
X0105406Y0096860D01*
X0105483Y0096898D01*
X0105561Y0096932D01*
X0105642Y0096963D01*
X0105723Y0096991D01*
X0105805Y0097015D01*
X0105889Y0097035D01*
X0105973Y0097052D01*
X0106058Y0097065D01*
X0106143Y0097075D01*
X0106229Y0097080D01*
X0106315Y0097082D01*
X0106315Y0097081D02*
X0114976Y0097081D01*
X0116157Y0098262D01*
X0116157Y0101412D01*
X0114976Y0102593D01*
X0106315Y0102593D01*
X0106229Y0102595D01*
X0106143Y0102600D01*
X0106058Y0102610D01*
X0105973Y0102623D01*
X0105889Y0102640D01*
X0105805Y0102660D01*
X0105723Y0102684D01*
X0105642Y0102712D01*
X0105561Y0102743D01*
X0105483Y0102777D01*
X0105406Y0102815D01*
X0105331Y0102857D01*
X0105257Y0102901D01*
X0105186Y0102949D01*
X0105116Y0103000D01*
X0105049Y0103054D01*
X0104985Y0103110D01*
X0104923Y0103170D01*
X0104863Y0103232D01*
X0104807Y0103296D01*
X0104753Y0103363D01*
X0104702Y0103433D01*
X0104654Y0103504D01*
X0104610Y0103578D01*
X0104568Y0103653D01*
X0104530Y0103730D01*
X0104496Y0103808D01*
X0104465Y0103889D01*
X0104437Y0103970D01*
X0104413Y0104052D01*
X0104393Y0104136D01*
X0104376Y0104220D01*
X0104363Y0104305D01*
X0104353Y0104390D01*
X0104348Y0104476D01*
X0104346Y0104562D01*
X0104346Y0109680D01*
X0104543Y0112042D02*
X0104554Y0112120D01*
X0104570Y0112197D01*
X0104589Y0112274D01*
X0104611Y0112349D01*
X0104638Y0112423D01*
X0104668Y0112496D01*
X0104701Y0112567D01*
X0104738Y0112637D01*
X0104778Y0112704D01*
X0104821Y0112770D01*
X0104868Y0112834D01*
X0104917Y0112895D01*
X0104969Y0112954D01*
X0105024Y0113010D01*
X0105082Y0113063D01*
X0105142Y0113114D01*
X0105205Y0113161D01*
X0105270Y0113206D01*
X0105337Y0113247D01*
X0105405Y0113285D01*
X0105476Y0113320D01*
X0105548Y0113352D01*
X0105622Y0113379D01*
X0105697Y0113404D01*
X0105773Y0113424D01*
X0105849Y0113441D01*
X0105927Y0113454D01*
X0106005Y0113464D01*
X0106084Y0113469D01*
X0106162Y0113471D01*
X0106241Y0113469D01*
X0106319Y0113463D01*
X0106320Y0113463D02*
X0119864Y0112141D01*
X0119863Y0112141D02*
X0119943Y0112131D01*
X0120021Y0112118D01*
X0120100Y0112101D01*
X0120177Y0112080D01*
X0120253Y0112056D01*
X0120328Y0112028D01*
X0120401Y0111996D01*
X0120473Y0111961D01*
X0120543Y0111923D01*
X0120611Y0111881D01*
X0120677Y0111836D01*
X0120741Y0111788D01*
X0120803Y0111737D01*
X0120862Y0111683D01*
X0120918Y0111627D01*
X0120972Y0111567D01*
X0121023Y0111506D01*
X0121071Y0111442D01*
X0121116Y0111376D01*
X0121157Y0111307D01*
X0121195Y0111237D01*
X0121230Y0111165D01*
X0121262Y0111092D01*
X0121669Y0110073D01*
X0104544Y0112042D02*
X0104501Y0111808D01*
X0104463Y0111574D01*
X0104430Y0111339D01*
X0104402Y0111103D01*
X0104380Y0110866D01*
X0104363Y0110629D01*
X0104351Y0110392D01*
X0104345Y0110155D01*
X0104343Y0109917D01*
X0104347Y0109680D01*
X0108874Y0118193D02*
X0115559Y0119131D01*
X0115559Y0119132D02*
X0115638Y0119140D01*
X0115718Y0119152D01*
X0115796Y0119168D01*
X0115874Y0119188D01*
X0115950Y0119212D01*
X0116026Y0119239D01*
X0116100Y0119269D01*
X0116172Y0119304D01*
X0116243Y0119341D01*
X0116312Y0119382D01*
X0116378Y0119426D01*
X0116443Y0119474D01*
X0116505Y0119524D01*
X0116565Y0119577D01*
X0116622Y0119634D01*
X0116677Y0119692D01*
X0116728Y0119754D01*
X0116777Y0119817D01*
X0116822Y0119883D01*
X0116864Y0119952D01*
X0116903Y0120022D01*
X0116939Y0120093D01*
X0116971Y0120167D01*
X0116999Y0120242D01*
X0117024Y0120318D01*
X0117046Y0120395D01*
X0117063Y0120473D01*
X0117077Y0120552D01*
X0117087Y0120632D01*
X0117093Y0120712D01*
X0117095Y0120792D01*
X0117093Y0120872D01*
X0117088Y0120952D01*
X0117079Y0121031D01*
X0117066Y0121110D01*
X0117049Y0121189D01*
X0117028Y0121266D01*
X0117004Y0121342D01*
X0116976Y0121418D01*
X0116945Y0121491D01*
X0116551Y0122278D01*
X0116521Y0122334D01*
X0116495Y0122391D01*
X0116472Y0122450D01*
X0116453Y0122510D01*
X0116437Y0122571D01*
X0116425Y0122633D01*
X0116417Y0122695D01*
X0116412Y0122758D01*
X0116411Y0122821D01*
X0116414Y0122884D01*
X0116421Y0122947D01*
X0116431Y0123009D01*
X0116445Y0123070D01*
X0116463Y0123131D01*
X0116484Y0123190D01*
X0116509Y0123248D01*
X0116537Y0123305D01*
X0116569Y0123359D01*
X0116603Y0123412D01*
X0116641Y0123462D01*
X0116682Y0123511D01*
X0116725Y0123556D01*
X0116772Y0123599D01*
X0116820Y0123639D01*
X0116871Y0123676D01*
X0116924Y0123710D01*
X0116979Y0123741D01*
X0117036Y0123769D01*
X0117094Y0123793D01*
X0117154Y0123813D01*
X0117215Y0123830D01*
X0117276Y0123843D01*
X0117338Y0123853D01*
X0117339Y0123853D02*
X0130724Y0123853D01*
X0130801Y0123855D01*
X0130878Y0123861D01*
X0130955Y0123870D01*
X0131031Y0123883D01*
X0131107Y0123900D01*
X0131181Y0123921D01*
X0131255Y0123945D01*
X0131327Y0123973D01*
X0131397Y0124004D01*
X0131466Y0124039D01*
X0131534Y0124077D01*
X0131599Y0124118D01*
X0131662Y0124163D01*
X0131723Y0124211D01*
X0131782Y0124261D01*
X0131838Y0124314D01*
X0131891Y0124370D01*
X0131941Y0124429D01*
X0131989Y0124490D01*
X0132034Y0124553D01*
X0132075Y0124618D01*
X0132113Y0124686D01*
X0132148Y0124755D01*
X0132179Y0124825D01*
X0132207Y0124897D01*
X0132231Y0124971D01*
X0132252Y0125045D01*
X0132269Y0125121D01*
X0132282Y0125197D01*
X0132291Y0125274D01*
X0132297Y0125351D01*
X0132299Y0125428D01*
X0132299Y0133400D01*
X0132297Y0133477D01*
X0132291Y0133554D01*
X0132282Y0133631D01*
X0132269Y0133707D01*
X0132252Y0133783D01*
X0132231Y0133857D01*
X0132207Y0133931D01*
X0132179Y0134003D01*
X0132148Y0134073D01*
X0132113Y0134142D01*
X0132075Y0134210D01*
X0132034Y0134275D01*
X0131989Y0134338D01*
X0131941Y0134399D01*
X0131891Y0134458D01*
X0131838Y0134514D01*
X0131782Y0134567D01*
X0131723Y0134617D01*
X0131662Y0134665D01*
X0131599Y0134710D01*
X0131534Y0134751D01*
X0131466Y0134789D01*
X0131397Y0134824D01*
X0131327Y0134855D01*
X0131255Y0134883D01*
X0131181Y0134907D01*
X0131107Y0134928D01*
X0131031Y0134945D01*
X0130955Y0134958D01*
X0130878Y0134967D01*
X0130801Y0134973D01*
X0130724Y0134975D01*
X0123047Y0134975D01*
X0122779Y0134926D02*
X0118800Y0134143D01*
X0117637Y0133308D02*
X0117240Y0132613D01*
X0117637Y0133307D02*
X0117679Y0133378D01*
X0117725Y0133446D01*
X0117774Y0133512D01*
X0117826Y0133575D01*
X0117881Y0133636D01*
X0117938Y0133694D01*
X0117999Y0133750D01*
X0118062Y0133802D01*
X0118127Y0133852D01*
X0118195Y0133898D01*
X0118265Y0133941D01*
X0118337Y0133980D01*
X0118410Y0134016D01*
X0118486Y0134049D01*
X0118562Y0134078D01*
X0118640Y0134103D01*
X0118719Y0134125D01*
X0118799Y0134143D01*
X0122779Y0134926D02*
X0122845Y0134943D01*
X0122912Y0134957D01*
X0122979Y0134968D01*
X0123047Y0134975D01*
X0123082Y0139680D02*
X0129228Y0139680D01*
X0131984Y0141255D02*
X0134346Y0141255D01*
X0131984Y0141255D02*
X0131922Y0141159D01*
X0131856Y0141066D01*
X0131788Y0140975D01*
X0131716Y0140886D01*
X0131642Y0140800D01*
X0131564Y0140716D01*
X0131484Y0140635D01*
X0131401Y0140557D01*
X0131316Y0140482D01*
X0131228Y0140409D01*
X0131137Y0140340D01*
X0131045Y0140274D01*
X0130950Y0140211D01*
X0130853Y0140151D01*
X0130754Y0140094D01*
X0130653Y0140041D01*
X0130550Y0139991D01*
X0130446Y0139945D01*
X0130341Y0139903D01*
X0130234Y0139863D01*
X0130125Y0139828D01*
X0130016Y0139796D01*
X0129905Y0139768D01*
X0129794Y0139744D01*
X0129682Y0139724D01*
X0129569Y0139707D01*
X0129456Y0139694D01*
X0129342Y0139685D01*
X0129228Y0139680D01*
X0139385Y0161647D02*
X0140006Y0161514D01*
X0140623Y0161366D01*
X0141237Y0161204D01*
X0141847Y0161027D01*
X0142452Y0160836D01*
X0143053Y0160631D01*
X0143649Y0160412D01*
X0144239Y0160179D01*
X0144824Y0159933D01*
X0145403Y0159672D01*
X0145976Y0159399D01*
X0146542Y0159111D01*
X0147101Y0158811D01*
X0147653Y0158498D01*
X0147654Y0158499D02*
X0148584Y0157879D01*
X0148583Y0157879D02*
X0148648Y0157837D01*
X0148715Y0157800D01*
X0148784Y0157765D01*
X0148854Y0157734D01*
X0148926Y0157706D01*
X0148999Y0157682D01*
X0149073Y0157662D01*
X0149148Y0157645D01*
X0149224Y0157631D01*
X0149300Y0157622D01*
X0149377Y0157616D01*
X0149453Y0157614D01*
X0149530Y0157616D01*
X0149607Y0157621D01*
X0149683Y0157630D01*
X0149759Y0157643D01*
X0149834Y0157660D01*
X0149908Y0157680D01*
X0149981Y0157704D01*
X0150053Y0157731D01*
X0150124Y0157762D01*
X0150192Y0157796D01*
X0150259Y0157834D01*
X0150325Y0157874D01*
X0150388Y0157918D01*
X0150449Y0157965D01*
X0150507Y0158015D01*
X0150563Y0158068D01*
X0150616Y0158123D01*
X0150667Y0158181D01*
X0150715Y0158241D01*
X0150760Y0158304D01*
X0150801Y0158368D01*
X0150840Y0158435D01*
X0151501Y0159646D01*
X0151501Y0159647D02*
X0151536Y0159716D01*
X0151568Y0159786D01*
X0151597Y0159858D01*
X0151621Y0159932D01*
X0151643Y0160006D01*
X0151660Y0160082D01*
X0151674Y0160158D01*
X0151684Y0160235D01*
X0151690Y0160312D01*
X0151693Y0160389D01*
X0151692Y0160467D01*
X0151687Y0160544D01*
X0151678Y0160621D01*
X0151665Y0160697D01*
X0151648Y0160773D01*
X0151628Y0160848D01*
X0151605Y0160921D01*
X0151577Y0160994D01*
X0151546Y0161065D01*
X0151512Y0161134D01*
X0151474Y0161202D01*
X0151433Y0161268D01*
X0151389Y0161331D01*
X0151342Y0161393D01*
X0151291Y0161452D01*
X0151238Y0161508D01*
X0151183Y0161562D01*
X0151124Y0161613D01*
X0151063Y0161661D01*
X0151000Y0161706D01*
X0150935Y0161747D01*
X0150868Y0161786D01*
X0150799Y0161821D01*
X0150728Y0161853D01*
X0150656Y0161881D01*
X0150213Y0162042D01*
X0156093Y0159695D02*
X0154861Y0153226D01*
X0155097Y0152057D02*
X0156315Y0150231D01*
X0155098Y0152057D02*
X0155057Y0152122D01*
X0155019Y0152188D01*
X0154985Y0152257D01*
X0154954Y0152326D01*
X0154926Y0152398D01*
X0154902Y0152470D01*
X0154881Y0152544D01*
X0154864Y0152618D01*
X0154851Y0152693D01*
X0154841Y0152769D01*
X0154835Y0152845D01*
X0154833Y0152922D01*
X0154834Y0152998D01*
X0154840Y0153074D01*
X0154848Y0153150D01*
X0154861Y0153226D01*
X0156093Y0159695D02*
X0156109Y0159771D01*
X0156130Y0159847D01*
X0156154Y0159921D01*
X0156181Y0159994D01*
X0156213Y0160066D01*
X0156248Y0160136D01*
X0156286Y0160204D01*
X0156328Y0160271D01*
X0156372Y0160335D01*
X0156420Y0160397D01*
X0156471Y0160456D01*
X0156525Y0160513D01*
X0156582Y0160567D01*
X0156641Y0160618D01*
X0156703Y0160666D01*
X0156767Y0160711D01*
X0156833Y0160753D01*
X0156901Y0160791D01*
X0156971Y0160826D01*
X0157043Y0160857D01*
X0157116Y0160885D01*
X0157191Y0160909D01*
X0157266Y0160930D01*
X0157342Y0160947D01*
X0157420Y0160960D01*
X0157497Y0160969D01*
X0157497Y0160968D02*
X0158480Y0161058D01*
X0159661Y0161058D01*
X0159196Y0165035D01*
X0159106Y0165027D01*
X0159016Y0165022D01*
X0158925Y0165021D01*
X0158834Y0165024D01*
X0158744Y0165031D01*
X0158654Y0165042D01*
X0158564Y0165056D01*
X0158476Y0165075D01*
X0158388Y0165097D01*
X0158301Y0165122D01*
X0158215Y0165152D01*
X0158130Y0165185D01*
X0158047Y0165221D01*
X0157966Y0165262D01*
X0157887Y0165305D01*
X0157809Y0165352D01*
X0157733Y0165402D01*
X0157660Y0165455D01*
X0157589Y0165512D01*
X0157520Y0165571D01*
X0157454Y0165633D01*
X0157391Y0165698D01*
X0157330Y0165765D01*
X0157273Y0165836D01*
X0157218Y0165908D01*
X0157167Y0165983D01*
X0157119Y0166059D01*
X0157074Y0166138D01*
X0157032Y0166219D01*
X0156994Y0166301D01*
X0156959Y0166385D01*
X0156928Y0166470D01*
X0156901Y0166556D01*
X0156878Y0166644D01*
X0156858Y0166733D01*
X0156841Y0166822D01*
X0156829Y0166912D01*
X0156821Y0167002D01*
X0156816Y0167092D01*
X0156815Y0167183D01*
X0156818Y0167274D01*
X0156825Y0167364D01*
X0156836Y0167454D01*
X0156850Y0167544D01*
X0156869Y0167632D01*
X0156891Y0167720D01*
X0156916Y0167807D01*
X0156946Y0167893D01*
X0156979Y0167978D01*
X0157015Y0168061D01*
X0157056Y0168142D01*
X0157099Y0168221D01*
X0157146Y0168299D01*
X0157196Y0168375D01*
X0157249Y0168448D01*
X0157306Y0168519D01*
X0157365Y0168588D01*
X0157427Y0168654D01*
X0157492Y0168717D01*
X0157559Y0168778D01*
X0157630Y0168835D01*
X0157702Y0168890D01*
X0157777Y0168941D01*
X0157853Y0168989D01*
X0157932Y0169034D01*
X0158013Y0169076D01*
X0158095Y0169114D01*
X0158179Y0169149D01*
X0158264Y0169180D01*
X0158350Y0169207D01*
X0158438Y0169230D01*
X0158527Y0169250D01*
X0158616Y0169267D01*
X0158706Y0169279D01*
X0158705Y0169279D02*
X0164977Y0169932D01*
X0164449Y0174422D01*
X0158178Y0173769D01*
X0158177Y0173769D02*
X0158087Y0173761D01*
X0157997Y0173756D01*
X0157906Y0173755D01*
X0157815Y0173758D01*
X0157725Y0173765D01*
X0157635Y0173776D01*
X0157545Y0173790D01*
X0157457Y0173809D01*
X0157369Y0173831D01*
X0157282Y0173856D01*
X0157196Y0173886D01*
X0157111Y0173919D01*
X0157028Y0173955D01*
X0156947Y0173996D01*
X0156868Y0174039D01*
X0156790Y0174086D01*
X0156714Y0174136D01*
X0156641Y0174189D01*
X0156570Y0174246D01*
X0156501Y0174305D01*
X0156435Y0174367D01*
X0156372Y0174432D01*
X0156311Y0174499D01*
X0156254Y0174570D01*
X0156199Y0174642D01*
X0156148Y0174717D01*
X0156100Y0174793D01*
X0156055Y0174872D01*
X0156013Y0174953D01*
X0155975Y0175035D01*
X0155940Y0175119D01*
X0155909Y0175204D01*
X0155882Y0175290D01*
X0155859Y0175378D01*
X0155839Y0175467D01*
X0155822Y0175556D01*
X0155810Y0175646D01*
X0155802Y0175736D01*
X0155797Y0175826D01*
X0155796Y0175917D01*
X0155799Y0176008D01*
X0155806Y0176098D01*
X0155817Y0176188D01*
X0155831Y0176278D01*
X0155850Y0176366D01*
X0155872Y0176454D01*
X0155897Y0176541D01*
X0155927Y0176627D01*
X0155960Y0176712D01*
X0155996Y0176795D01*
X0156037Y0176876D01*
X0156080Y0176955D01*
X0156127Y0177033D01*
X0156177Y0177109D01*
X0156230Y0177182D01*
X0156287Y0177253D01*
X0156346Y0177322D01*
X0156408Y0177388D01*
X0156473Y0177451D01*
X0156540Y0177512D01*
X0156611Y0177569D01*
X0156683Y0177624D01*
X0156758Y0177675D01*
X0156834Y0177723D01*
X0156913Y0177768D01*
X0156994Y0177810D01*
X0157076Y0177848D01*
X0157160Y0177883D01*
X0157245Y0177914D01*
X0157331Y0177941D01*
X0157419Y0177964D01*
X0157508Y0177984D01*
X0157597Y0178001D01*
X0157687Y0178013D01*
X0157123Y0182750D01*
X0144110Y0168341D02*
X0144240Y0168061D01*
X0144377Y0167785D01*
X0144520Y0167512D01*
X0144670Y0167242D01*
X0144826Y0166976D01*
X0144989Y0166714D01*
X0145158Y0166456D01*
X0145333Y0166202D01*
X0145514Y0165952D01*
X0145701Y0165706D01*
X0145893Y0165465D01*
X0146091Y0165229D01*
X0146295Y0164997D01*
X0146505Y0164770D01*
X0146719Y0164549D01*
X0146939Y0164332D01*
X0147164Y0164121D01*
X0147394Y0163916D01*
X0147629Y0163715D01*
X0147868Y0163521D01*
X0148112Y0163332D01*
X0148361Y0163149D01*
X0148614Y0162972D01*
X0148871Y0162802D01*
X0149131Y0162637D01*
X0149396Y0162478D01*
X0149665Y0162326D01*
X0149937Y0162181D01*
X0150212Y0162042D01*
X0139386Y0161648D02*
X0138460Y0161803D01*
X0138460Y0161802D02*
X0138383Y0161817D01*
X0138307Y0161836D01*
X0138232Y0161858D01*
X0138158Y0161884D01*
X0138086Y0161914D01*
X0138015Y0161947D01*
X0137945Y0161984D01*
X0137878Y0162024D01*
X0137813Y0162068D01*
X0137750Y0162114D01*
X0137690Y0162164D01*
X0137632Y0162217D01*
X0137576Y0162272D01*
X0137524Y0162330D01*
X0137474Y0162391D01*
X0137428Y0162454D01*
X0137385Y0162519D01*
X0137345Y0162587D01*
X0137308Y0162656D01*
X0137275Y0162727D01*
X0137245Y0162800D01*
X0137220Y0162874D01*
X0137198Y0162949D01*
X0137179Y0163025D01*
X0137165Y0163102D01*
X0137154Y0163180D01*
X0137147Y0163258D01*
X0137144Y0163336D01*
X0137145Y0163414D01*
X0137150Y0163492D01*
X0137150Y0163493D02*
X0137686Y0169659D01*
X0137686Y0169658D02*
X0137695Y0169736D01*
X0137707Y0169813D01*
X0137723Y0169889D01*
X0137743Y0169964D01*
X0137767Y0170038D01*
X0137794Y0170111D01*
X0137825Y0170183D01*
X0137860Y0170253D01*
X0137898Y0170321D01*
X0137939Y0170387D01*
X0137983Y0170451D01*
X0138031Y0170513D01*
X0138081Y0170572D01*
X0138135Y0170629D01*
X0138191Y0170683D01*
X0138249Y0170734D01*
X0138311Y0170782D01*
X0138374Y0170828D01*
X0138440Y0170870D01*
X0138507Y0170908D01*
X0138577Y0170943D01*
X0138648Y0170975D01*
X0138720Y0171004D01*
X0138794Y0171028D01*
X0138869Y0171049D01*
X0138945Y0171066D01*
X0139022Y0171080D01*
X0139099Y0171089D01*
X0139177Y0171095D01*
X0139255Y0171097D01*
X0140173Y0171097D01*
X0140173Y0171098D02*
X0140301Y0171095D01*
X0140428Y0171088D01*
X0140555Y0171077D01*
X0140682Y0171063D01*
X0140809Y0171044D01*
X0140935Y0171022D01*
X0141060Y0170996D01*
X0141184Y0170966D01*
X0141307Y0170933D01*
X0141429Y0170896D01*
X0141550Y0170855D01*
X0141670Y0170811D01*
X0141788Y0170763D01*
X0141905Y0170711D01*
X0142021Y0170656D01*
X0142134Y0170598D01*
X0142246Y0170536D01*
X0142356Y0170471D01*
X0142464Y0170402D01*
X0142569Y0170331D01*
X0142673Y0170256D01*
X0142774Y0170178D01*
X0142873Y0170097D01*
X0142969Y0170013D01*
X0143063Y0169927D01*
X0143154Y0169837D01*
X0143243Y0169745D01*
X0143328Y0169650D01*
X0143411Y0169553D01*
X0143491Y0169453D01*
X0143567Y0169351D01*
X0143641Y0169246D01*
X0143711Y0169140D01*
X0143779Y0169031D01*
X0143842Y0168921D01*
X0143903Y0168808D01*
X0143960Y0168694D01*
X0144014Y0168578D01*
X0144064Y0168461D01*
X0144110Y0168342D01*
X0157123Y0182750D02*
X0156949Y0183227D01*
X0156764Y0183700D01*
X0156567Y0184168D01*
X0156358Y0184631D01*
X0156138Y0185089D01*
X0155907Y0185542D01*
X0155665Y0185988D01*
X0155412Y0186429D01*
X0155149Y0186863D01*
X0154875Y0187291D01*
X0154590Y0187711D01*
X0154296Y0188125D01*
X0153991Y0188531D01*
X0153676Y0188930D01*
X0153352Y0189321D01*
X0153018Y0189704D01*
X0152675Y0190078D01*
X0152323Y0190444D01*
X0151962Y0190802D01*
X0151592Y0191150D01*
X0151214Y0191489D01*
X0150828Y0191819D01*
X0150434Y0192139D01*
X0150032Y0192450D01*
X0149622Y0192751D01*
X0133480Y0192357D02*
X0133664Y0192423D01*
X0133850Y0192484D01*
X0134037Y0192540D01*
X0134225Y0192591D01*
X0134415Y0192638D01*
X0134606Y0192681D01*
X0134797Y0192718D01*
X0134990Y0192751D01*
X0135183Y0192779D01*
X0135377Y0192803D01*
X0135572Y0192821D01*
X0135767Y0192835D01*
X0135962Y0192844D01*
X0136157Y0192849D01*
X0136352Y0192848D01*
X0136548Y0192843D01*
X0136743Y0192833D01*
X0136938Y0192818D01*
X0137132Y0192798D01*
X0137326Y0192774D01*
X0137519Y0192745D01*
X0137712Y0192711D01*
X0137903Y0192673D01*
X0138094Y0192630D01*
X0138283Y0192582D01*
X0138471Y0192529D01*
X0138658Y0192472D01*
X0138843Y0192411D01*
X0139027Y0192344D01*
X0139209Y0192274D01*
X0139390Y0192199D01*
X0139568Y0192119D01*
X0139745Y0192035D01*
X0139919Y0191947D01*
X0140091Y0191855D01*
X0140261Y0191758D01*
X0140428Y0191658D01*
X0140593Y0191553D01*
X0140756Y0191444D01*
X0140915Y0191331D01*
X0141072Y0191215D01*
X0141226Y0191094D01*
X0141377Y0190970D01*
X0141524Y0190842D01*
X0141669Y0190711D01*
X0141810Y0190576D01*
X0141948Y0190438D01*
X0142083Y0190296D01*
X0142214Y0190151D01*
X0142341Y0190003D01*
X0142465Y0189852D01*
X0142585Y0189698D01*
X0142701Y0189541D01*
X0142814Y0189381D01*
X0142922Y0189219D01*
X0143026Y0189053D01*
X0143127Y0188886D01*
X0143223Y0188716D01*
X0143315Y0188543D01*
X0143403Y0188369D01*
X0143486Y0188192D01*
X0143565Y0188013D01*
X0143640Y0187833D01*
X0143710Y0187651D01*
X0143776Y0187467D01*
X0143837Y0187281D01*
X0143893Y0187094D01*
X0143946Y0186906D01*
X0143993Y0186716D01*
X0144036Y0186526D01*
X0144074Y0186334D01*
X0144107Y0186142D01*
X0144136Y0185948D01*
X0144160Y0185754D01*
X0144179Y0185560D01*
X0144193Y0185365D01*
X0144203Y0185170D01*
X0144207Y0184975D01*
X0144207Y0184779D01*
X0144203Y0184584D01*
X0144193Y0184389D01*
X0144179Y0184194D01*
X0144160Y0184000D01*
X0144136Y0183806D01*
X0144107Y0183612D01*
X0144074Y0183420D01*
X0144036Y0183228D01*
X0143993Y0183038D01*
X0143946Y0182848D01*
X0143893Y0182660D01*
X0143837Y0182473D01*
X0143776Y0182287D01*
X0143710Y0182103D01*
X0143640Y0181921D01*
X0143565Y0181741D01*
X0143486Y0181562D01*
X0143403Y0181385D01*
X0143315Y0181211D01*
X0143223Y0181038D01*
X0143127Y0180868D01*
X0143026Y0180701D01*
X0142922Y0180535D01*
X0142814Y0180373D01*
X0142701Y0180213D01*
X0142585Y0180056D01*
X0142465Y0179902D01*
X0142341Y0179751D01*
X0142214Y0179603D01*
X0142083Y0179458D01*
X0141948Y0179316D01*
X0141810Y0179178D01*
X0141669Y0179043D01*
X0141524Y0178912D01*
X0141377Y0178784D01*
X0141226Y0178660D01*
X0141072Y0178539D01*
X0140915Y0178423D01*
X0140756Y0178310D01*
X0140593Y0178201D01*
X0140428Y0178096D01*
X0140261Y0177996D01*
X0140091Y0177899D01*
X0139919Y0177807D01*
X0139745Y0177719D01*
X0139568Y0177635D01*
X0139390Y0177555D01*
X0139209Y0177480D01*
X0139027Y0177410D01*
X0138843Y0177343D01*
X0138658Y0177282D01*
X0138471Y0177225D01*
X0138283Y0177172D01*
X0138094Y0177124D01*
X0137903Y0177081D01*
X0137712Y0177043D01*
X0137519Y0177009D01*
X0137326Y0176980D01*
X0137132Y0176956D01*
X0136938Y0176936D01*
X0136743Y0176921D01*
X0136548Y0176911D01*
X0136352Y0176906D01*
X0136157Y0176905D01*
X0135962Y0176910D01*
X0135767Y0176919D01*
X0135572Y0176933D01*
X0135377Y0176951D01*
X0135183Y0176975D01*
X0134990Y0177003D01*
X0134797Y0177036D01*
X0134606Y0177073D01*
X0134415Y0177116D01*
X0134225Y0177163D01*
X0134037Y0177214D01*
X0133850Y0177270D01*
X0133664Y0177331D01*
X0133480Y0177397D01*
X0133480Y0177396D02*
X0131118Y0177396D01*
X0128362Y0175822D02*
X0122142Y0175822D01*
X0121985Y0175829D02*
X0119480Y0176080D01*
X0119480Y0176079D02*
X0119399Y0176089D01*
X0119318Y0176103D01*
X0119238Y0176121D01*
X0119160Y0176143D01*
X0119082Y0176169D01*
X0119006Y0176198D01*
X0118931Y0176231D01*
X0118858Y0176268D01*
X0118787Y0176308D01*
X0118717Y0176351D01*
X0118650Y0176398D01*
X0118586Y0176448D01*
X0118524Y0176501D01*
X0118464Y0176557D01*
X0118408Y0176616D01*
X0118354Y0176678D01*
X0118303Y0176742D01*
X0118256Y0176808D01*
X0118211Y0176877D01*
X0118170Y0176948D01*
X0118133Y0177020D01*
X0118099Y0177095D01*
X0118069Y0177171D01*
X0118043Y0177248D01*
X0118020Y0177326D01*
X0118001Y0177406D01*
X0117986Y0177486D01*
X0117975Y0177567D01*
X0117976Y0177568D02*
X0117929Y0177987D01*
X0121985Y0175829D02*
X0122064Y0175823D01*
X0122142Y0175821D01*
X0120119Y0171097D02*
X0129217Y0171097D01*
X0129295Y0171095D01*
X0129372Y0171089D01*
X0129449Y0171080D01*
X0129525Y0171067D01*
X0129601Y0171049D01*
X0129676Y0171029D01*
X0129749Y0171004D01*
X0129822Y0170976D01*
X0129892Y0170945D01*
X0129962Y0170910D01*
X0130029Y0170871D01*
X0130095Y0170830D01*
X0130158Y0170785D01*
X0130219Y0170737D01*
X0130278Y0170686D01*
X0130334Y0170633D01*
X0130387Y0170576D01*
X0130437Y0170518D01*
X0130485Y0170456D01*
X0130529Y0170393D01*
X0130571Y0170327D01*
X0130609Y0170259D01*
X0130643Y0170190D01*
X0130674Y0170119D01*
X0130702Y0170046D01*
X0130726Y0169973D01*
X0130746Y0169898D01*
X0130763Y0169822D01*
X0130776Y0169746D01*
X0130785Y0169669D01*
X0130790Y0169591D01*
X0130791Y0169592D02*
X0131046Y0163784D01*
X0131048Y0163707D01*
X0131046Y0163630D01*
X0131040Y0163553D01*
X0131030Y0163477D01*
X0131016Y0163401D01*
X0130999Y0163326D01*
X0130978Y0163252D01*
X0130954Y0163179D01*
X0130926Y0163107D01*
X0130894Y0163036D01*
X0130859Y0162968D01*
X0130821Y0162901D01*
X0130780Y0162836D01*
X0130735Y0162773D01*
X0130688Y0162712D01*
X0130637Y0162654D01*
X0130584Y0162598D01*
X0130528Y0162545D01*
X0130469Y0162495D01*
X0130409Y0162448D01*
X0130346Y0162404D01*
X0130280Y0162363D01*
X0130213Y0162325D01*
X0130144Y0162290D01*
X0130074Y0162259D01*
X0130002Y0162231D01*
X0129929Y0162207D01*
X0129854Y0162187D01*
X0129779Y0162170D01*
X0129703Y0162157D01*
X0129627Y0162148D01*
X0129550Y0162142D01*
X0129473Y0162140D01*
X0122949Y0162140D01*
X0119759Y0163550D01*
X0119682Y0163587D01*
X0119607Y0163626D01*
X0119533Y0163669D01*
X0119462Y0163716D01*
X0119392Y0163765D01*
X0119326Y0163818D01*
X0119261Y0163874D01*
X0119199Y0163933D01*
X0119140Y0163994D01*
X0119084Y0164058D01*
X0119030Y0164125D01*
X0118980Y0164193D01*
X0118933Y0164265D01*
X0118890Y0164338D01*
X0118849Y0164413D01*
X0118812Y0164490D01*
X0118779Y0164568D01*
X0118749Y0164648D01*
X0118723Y0164729D01*
X0118701Y0164812D01*
X0118683Y0164895D01*
X0118668Y0164979D01*
X0118657Y0165063D01*
X0118650Y0165148D01*
X0118618Y0165684D01*
X0118520Y0167751D01*
X0118428Y0169304D01*
X0118429Y0169305D02*
X0118426Y0169386D01*
X0118427Y0169467D01*
X0118432Y0169548D01*
X0118441Y0169628D01*
X0118454Y0169709D01*
X0118470Y0169788D01*
X0118490Y0169867D01*
X0118514Y0169944D01*
X0118542Y0170020D01*
X0118573Y0170095D01*
X0118608Y0170168D01*
X0118647Y0170240D01*
X0118688Y0170309D01*
X0118733Y0170377D01*
X0118782Y0170442D01*
X0118833Y0170505D01*
X0118887Y0170565D01*
X0118944Y0170623D01*
X0119004Y0170678D01*
X0119066Y0170730D01*
X0119131Y0170779D01*
X0119198Y0170825D01*
X0119267Y0170867D01*
X0119338Y0170906D01*
X0119411Y0170942D01*
X0119486Y0170974D01*
X0119562Y0171003D01*
X0119639Y0171027D01*
X0119717Y0171049D01*
X0119796Y0171066D01*
X0119876Y0171080D01*
X0119957Y0171089D01*
X0120038Y0171095D01*
X0120119Y0171097D01*
X0128362Y0175822D02*
X0128476Y0175827D01*
X0128590Y0175836D01*
X0128703Y0175849D01*
X0128816Y0175866D01*
X0128928Y0175886D01*
X0129039Y0175910D01*
X0129150Y0175938D01*
X0129259Y0175970D01*
X0129368Y0176005D01*
X0129475Y0176045D01*
X0129580Y0176087D01*
X0129684Y0176133D01*
X0129787Y0176183D01*
X0129888Y0176236D01*
X0129987Y0176293D01*
X0130084Y0176353D01*
X0130179Y0176416D01*
X0130271Y0176482D01*
X0130362Y0176551D01*
X0130450Y0176624D01*
X0130535Y0176699D01*
X0130618Y0176777D01*
X0130698Y0176858D01*
X0130776Y0176942D01*
X0130850Y0177028D01*
X0130922Y0177117D01*
X0130990Y0177208D01*
X0131056Y0177301D01*
X0131118Y0177397D01*
X0132299Y0198263D02*
X0132950Y0198279D01*
X0133602Y0198281D01*
X0134253Y0198266D01*
X0134903Y0198236D01*
X0135553Y0198191D01*
X0136201Y0198131D01*
X0136848Y0198055D01*
X0137493Y0197963D01*
X0138135Y0197856D01*
X0138775Y0197735D01*
X0139411Y0197598D01*
X0140044Y0197445D01*
X0140674Y0197278D01*
X0141299Y0197096D01*
X0141920Y0196900D01*
X0142536Y0196688D01*
X0133480Y0192357D02*
X0131512Y0192357D01*
X0129150Y0193538D02*
X0122063Y0193538D01*
X0116480Y0192980D01*
X0115845Y0192861D02*
X0115194Y0192680D01*
X0115194Y0192679D02*
X0115112Y0192655D01*
X0115032Y0192626D01*
X0114953Y0192594D01*
X0114876Y0192558D01*
X0114800Y0192519D01*
X0114726Y0192477D01*
X0114654Y0192431D01*
X0114585Y0192381D01*
X0114517Y0192329D01*
X0114452Y0192274D01*
X0114390Y0192215D01*
X0114331Y0192154D01*
X0114274Y0192090D01*
X0114221Y0192024D01*
X0114170Y0191955D01*
X0114123Y0191884D01*
X0114079Y0191811D01*
X0114038Y0191736D01*
X0114001Y0191660D01*
X0113967Y0191581D01*
X0113938Y0191501D01*
X0113911Y0191420D01*
X0113889Y0191338D01*
X0113870Y0191255D01*
X0113855Y0191171D01*
X0113844Y0191086D01*
X0113837Y0191001D01*
X0113834Y0190916D01*
X0113835Y0190831D01*
X0113840Y0190746D01*
X0113848Y0190661D01*
X0113861Y0190577D01*
X0113877Y0190493D01*
X0113897Y0190410D01*
X0113921Y0190328D01*
X0113949Y0190248D01*
X0113980Y0190168D01*
X0114015Y0190090D01*
X0114053Y0190014D01*
X0114095Y0189940D01*
X0114141Y0189868D01*
X0114189Y0189798D01*
X0115845Y0192860D02*
X0115949Y0192887D01*
X0116055Y0192912D01*
X0116160Y0192933D01*
X0116267Y0192952D01*
X0116374Y0192967D01*
X0116481Y0192979D01*
X0122063Y0198262D02*
X0105596Y0198262D01*
X0105597Y0198262D02*
X0105502Y0198266D01*
X0105407Y0198274D01*
X0105313Y0198285D01*
X0105219Y0198301D01*
X0105127Y0198320D01*
X0105034Y0198343D01*
X0104943Y0198369D01*
X0104854Y0198400D01*
X0104765Y0198434D01*
X0104678Y0198471D01*
X0104592Y0198512D01*
X0104509Y0198557D01*
X0104427Y0198605D01*
X0104347Y0198656D01*
X0122063Y0198262D02*
X0132299Y0198262D01*
X0129149Y0193539D02*
X0129251Y0193540D01*
X0129353Y0193537D01*
X0129455Y0193531D01*
X0129556Y0193521D01*
X0129657Y0193507D01*
X0129757Y0193489D01*
X0129857Y0193468D01*
X0129956Y0193443D01*
X0130054Y0193415D01*
X0130151Y0193383D01*
X0130246Y0193348D01*
X0130340Y0193309D01*
X0130433Y0193267D01*
X0130524Y0193221D01*
X0130614Y0193172D01*
X0130701Y0193120D01*
X0130787Y0193065D01*
X0130870Y0193007D01*
X0130952Y0192946D01*
X0131031Y0192881D01*
X0131107Y0192814D01*
X0131182Y0192744D01*
X0131253Y0192672D01*
X0131322Y0192597D01*
X0131388Y0192520D01*
X0131452Y0192440D01*
X0131512Y0192358D01*
X0142535Y0196688D02*
X0143218Y0196406D01*
X0143895Y0196108D01*
X0144564Y0195795D01*
X0145226Y0195466D01*
X0145880Y0195122D01*
X0146526Y0194763D01*
X0147163Y0194390D01*
X0147792Y0194001D01*
X0148412Y0193598D01*
X0149022Y0193181D01*
X0149622Y0192751D01*
X0134346Y0156215D02*
X0132378Y0156215D01*
X0130016Y0157396D02*
X0122949Y0157416D01*
X0120781Y0157138D01*
X0120781Y0157139D02*
X0120700Y0157126D01*
X0120620Y0157110D01*
X0120541Y0157091D01*
X0120462Y0157068D01*
X0120385Y0157041D01*
X0120310Y0157010D01*
X0120235Y0156977D01*
X0120163Y0156939D01*
X0120092Y0156899D01*
X0120023Y0156855D01*
X0119956Y0156808D01*
X0119891Y0156759D01*
X0119829Y0156706D01*
X0119769Y0156650D01*
X0119712Y0156592D01*
X0119658Y0156531D01*
X0119606Y0156468D01*
X0119558Y0156402D01*
X0119512Y0156334D01*
X0119470Y0156265D01*
X0119431Y0156193D01*
X0119395Y0156120D01*
X0119363Y0156045D01*
X0119334Y0155968D01*
X0119309Y0155891D01*
X0119287Y0155812D01*
X0119269Y0155732D01*
X0119255Y0155652D01*
X0119244Y0155571D01*
X0119237Y0155490D01*
X0119234Y0155408D01*
X0119235Y0155327D01*
X0119239Y0155245D01*
X0119504Y0144719D02*
X0119406Y0142062D01*
X0119394Y0141866D01*
X0119394Y0141865D02*
X0119391Y0141784D01*
X0119392Y0141703D01*
X0119397Y0141623D01*
X0119406Y0141542D01*
X0119419Y0141462D01*
X0119435Y0141383D01*
X0119455Y0141304D01*
X0119479Y0141227D01*
X0119507Y0141150D01*
X0119538Y0141076D01*
X0119573Y0141002D01*
X0119611Y0140931D01*
X0119653Y0140862D01*
X0119698Y0140794D01*
X0119746Y0140729D01*
X0119797Y0140666D01*
X0119851Y0140606D01*
X0119908Y0140548D01*
X0119968Y0140493D01*
X0120030Y0140441D01*
X0120095Y0140392D01*
X0120162Y0140346D01*
X0120231Y0140304D01*
X0120301Y0140265D01*
X0120374Y0140229D01*
X0120449Y0140197D01*
X0120524Y0140168D01*
X0120602Y0140143D01*
X0120680Y0140122D01*
X0120759Y0140105D01*
X0120759Y0140104D02*
X0122779Y0139709D01*
X0122780Y0139709D02*
X0122855Y0139697D01*
X0122930Y0139687D01*
X0123006Y0139682D01*
X0123082Y0139680D01*
X0132378Y0156216D02*
X0132318Y0156298D01*
X0132254Y0156378D01*
X0132188Y0156455D01*
X0132119Y0156530D01*
X0132048Y0156602D01*
X0131973Y0156672D01*
X0131897Y0156739D01*
X0131818Y0156804D01*
X0131736Y0156865D01*
X0131653Y0156923D01*
X0131567Y0156978D01*
X0131480Y0157030D01*
X0131390Y0157079D01*
X0131299Y0157125D01*
X0131206Y0157167D01*
X0131112Y0157206D01*
X0131017Y0157241D01*
X0130920Y0157273D01*
X0130822Y0157301D01*
X0130723Y0157326D01*
X0130623Y0157347D01*
X0130523Y0157365D01*
X0130422Y0157379D01*
X0130321Y0157389D01*
X0130219Y0157395D01*
X0130117Y0157398D01*
X0130015Y0157397D01*
X0134346Y0156215D02*
X0134530Y0156281D01*
X0134716Y0156342D01*
X0134903Y0156398D01*
X0135091Y0156449D01*
X0135281Y0156496D01*
X0135472Y0156539D01*
X0135663Y0156576D01*
X0135856Y0156609D01*
X0136049Y0156637D01*
X0136243Y0156661D01*
X0136438Y0156679D01*
X0136633Y0156693D01*
X0136828Y0156702D01*
X0137023Y0156707D01*
X0137218Y0156706D01*
X0137414Y0156701D01*
X0137609Y0156691D01*
X0137804Y0156676D01*
X0137998Y0156656D01*
X0138192Y0156632D01*
X0138385Y0156603D01*
X0138578Y0156569D01*
X0138769Y0156531D01*
X0138960Y0156488D01*
X0139149Y0156440D01*
X0139337Y0156387D01*
X0139524Y0156330D01*
X0139709Y0156269D01*
X0139893Y0156202D01*
X0140075Y0156132D01*
X0140256Y0156057D01*
X0140434Y0155977D01*
X0140611Y0155893D01*
X0140785Y0155805D01*
X0140957Y0155713D01*
X0141127Y0155616D01*
X0141294Y0155516D01*
X0141459Y0155411D01*
X0141622Y0155302D01*
X0141781Y0155189D01*
X0141938Y0155073D01*
X0142092Y0154952D01*
X0142243Y0154828D01*
X0142390Y0154700D01*
X0142535Y0154569D01*
X0142676Y0154434D01*
X0142814Y0154296D01*
X0142949Y0154154D01*
X0143080Y0154009D01*
X0143207Y0153861D01*
X0143331Y0153710D01*
X0143451Y0153556D01*
X0143567Y0153399D01*
X0143680Y0153239D01*
X0143788Y0153077D01*
X0143892Y0152911D01*
X0143993Y0152744D01*
X0144089Y0152574D01*
X0144181Y0152401D01*
X0144269Y0152227D01*
X0144352Y0152050D01*
X0144431Y0151871D01*
X0144506Y0151691D01*
X0144576Y0151509D01*
X0144642Y0151325D01*
X0144703Y0151139D01*
X0144759Y0150952D01*
X0144812Y0150764D01*
X0144859Y0150574D01*
X0144902Y0150384D01*
X0144940Y0150192D01*
X0144973Y0150000D01*
X0145002Y0149806D01*
X0145026Y0149612D01*
X0145045Y0149418D01*
X0145059Y0149223D01*
X0145069Y0149028D01*
X0145073Y0148833D01*
X0145073Y0148637D01*
X0145069Y0148442D01*
X0145059Y0148247D01*
X0145045Y0148052D01*
X0145026Y0147858D01*
X0145002Y0147664D01*
X0144973Y0147470D01*
X0144940Y0147278D01*
X0144902Y0147086D01*
X0144859Y0146896D01*
X0144812Y0146706D01*
X0144759Y0146518D01*
X0144703Y0146331D01*
X0144642Y0146145D01*
X0144576Y0145961D01*
X0144506Y0145779D01*
X0144431Y0145599D01*
X0144352Y0145420D01*
X0144269Y0145243D01*
X0144181Y0145069D01*
X0144089Y0144896D01*
X0143993Y0144726D01*
X0143892Y0144559D01*
X0143788Y0144393D01*
X0143680Y0144231D01*
X0143567Y0144071D01*
X0143451Y0143914D01*
X0143331Y0143760D01*
X0143207Y0143609D01*
X0143080Y0143461D01*
X0142949Y0143316D01*
X0142814Y0143174D01*
X0142676Y0143036D01*
X0142535Y0142901D01*
X0142390Y0142770D01*
X0142243Y0142642D01*
X0142092Y0142518D01*
X0141938Y0142397D01*
X0141781Y0142281D01*
X0141622Y0142168D01*
X0141459Y0142059D01*
X0141294Y0141954D01*
X0141127Y0141854D01*
X0140957Y0141757D01*
X0140785Y0141665D01*
X0140611Y0141577D01*
X0140434Y0141493D01*
X0140256Y0141413D01*
X0140075Y0141338D01*
X0139893Y0141268D01*
X0139709Y0141201D01*
X0139524Y0141140D01*
X0139337Y0141083D01*
X0139149Y0141030D01*
X0138960Y0140982D01*
X0138769Y0140939D01*
X0138578Y0140901D01*
X0138385Y0140867D01*
X0138192Y0140838D01*
X0137998Y0140814D01*
X0137804Y0140794D01*
X0137609Y0140779D01*
X0137414Y0140769D01*
X0137218Y0140764D01*
X0137023Y0140763D01*
X0136828Y0140768D01*
X0136633Y0140777D01*
X0136438Y0140791D01*
X0136243Y0140809D01*
X0136049Y0140833D01*
X0135856Y0140861D01*
X0135663Y0140894D01*
X0135472Y0140931D01*
X0135281Y0140974D01*
X0135091Y0141021D01*
X0134903Y0141072D01*
X0134716Y0141128D01*
X0134530Y0141189D01*
X0134346Y0141255D01*
X0140961Y0134975D02*
X0141354Y0134975D01*
X0140961Y0134975D02*
X0140884Y0134973D01*
X0140807Y0134967D01*
X0140730Y0134958D01*
X0140654Y0134945D01*
X0140578Y0134928D01*
X0140504Y0134907D01*
X0140430Y0134883D01*
X0140358Y0134855D01*
X0140288Y0134824D01*
X0140219Y0134789D01*
X0140151Y0134751D01*
X0140086Y0134710D01*
X0140023Y0134665D01*
X0139962Y0134617D01*
X0139903Y0134567D01*
X0139847Y0134514D01*
X0139794Y0134458D01*
X0139744Y0134399D01*
X0139696Y0134338D01*
X0139651Y0134275D01*
X0139610Y0134210D01*
X0139572Y0134142D01*
X0139537Y0134073D01*
X0139506Y0134003D01*
X0139478Y0133931D01*
X0139454Y0133857D01*
X0139433Y0133783D01*
X0139416Y0133707D01*
X0139403Y0133631D01*
X0139394Y0133554D01*
X0139388Y0133477D01*
X0139386Y0133400D01*
X0139386Y0125428D01*
X0139388Y0125351D01*
X0139394Y0125274D01*
X0139403Y0125197D01*
X0139416Y0125121D01*
X0139433Y0125045D01*
X0139454Y0124971D01*
X0139478Y0124897D01*
X0139506Y0124825D01*
X0139537Y0124755D01*
X0139572Y0124686D01*
X0139610Y0124618D01*
X0139651Y0124553D01*
X0139696Y0124490D01*
X0139744Y0124429D01*
X0139794Y0124370D01*
X0139847Y0124314D01*
X0139903Y0124261D01*
X0139962Y0124211D01*
X0140023Y0124163D01*
X0140086Y0124118D01*
X0140151Y0124077D01*
X0140219Y0124039D01*
X0140288Y0124004D01*
X0140358Y0123973D01*
X0140430Y0123945D01*
X0140504Y0123921D01*
X0140578Y0123900D01*
X0140654Y0123883D01*
X0140730Y0123870D01*
X0140807Y0123861D01*
X0140884Y0123855D01*
X0140961Y0123853D01*
X0141354Y0123853D01*
X0145095Y0132317D02*
X0145050Y0132434D01*
X0145001Y0132549D01*
X0144949Y0132663D01*
X0144894Y0132775D01*
X0144835Y0132885D01*
X0144773Y0132994D01*
X0144707Y0133100D01*
X0144638Y0133205D01*
X0144566Y0133307D01*
X0144491Y0133407D01*
X0144413Y0133505D01*
X0144332Y0133600D01*
X0144248Y0133692D01*
X0144161Y0133782D01*
X0144072Y0133869D01*
X0143979Y0133954D01*
X0143885Y0134035D01*
X0143787Y0134114D01*
X0143688Y0134190D01*
X0143586Y0134262D01*
X0143482Y0134331D01*
X0143375Y0134397D01*
X0143267Y0134460D01*
X0143157Y0134519D01*
X0143045Y0134575D01*
X0142932Y0134628D01*
X0142817Y0134676D01*
X0142700Y0134722D01*
X0142582Y0134763D01*
X0142463Y0134801D01*
X0142343Y0134836D01*
X0142222Y0134866D01*
X0142100Y0134893D01*
X0141977Y0134916D01*
X0141853Y0134936D01*
X0141729Y0134951D01*
X0141605Y0134963D01*
X0141480Y0134971D01*
X0141355Y0134974D01*
X0157988Y0146589D02*
X0157890Y0146910D01*
X0157784Y0147228D01*
X0157671Y0147543D01*
X0157549Y0147856D01*
X0157421Y0148165D01*
X0157284Y0148471D01*
X0157141Y0148774D01*
X0156990Y0149073D01*
X0156832Y0149369D01*
X0156666Y0149660D01*
X0156494Y0149948D01*
X0156315Y0150231D01*
X0157988Y0146589D02*
X0158553Y0141872D01*
X0158463Y0141860D01*
X0158374Y0141843D01*
X0158285Y0141823D01*
X0158197Y0141800D01*
X0158111Y0141773D01*
X0158026Y0141742D01*
X0157942Y0141707D01*
X0157860Y0141669D01*
X0157779Y0141627D01*
X0157700Y0141582D01*
X0157624Y0141534D01*
X0157549Y0141483D01*
X0157477Y0141428D01*
X0157406Y0141371D01*
X0157339Y0141310D01*
X0157274Y0141247D01*
X0157212Y0141181D01*
X0157153Y0141112D01*
X0157096Y0141041D01*
X0157043Y0140968D01*
X0156993Y0140892D01*
X0156946Y0140814D01*
X0156903Y0140735D01*
X0156862Y0140654D01*
X0156826Y0140571D01*
X0156793Y0140486D01*
X0156763Y0140400D01*
X0156738Y0140313D01*
X0156716Y0140225D01*
X0156697Y0140137D01*
X0156683Y0140047D01*
X0156672Y0139957D01*
X0156665Y0139867D01*
X0156662Y0139776D01*
X0156663Y0139685D01*
X0156668Y0139595D01*
X0156676Y0139505D01*
X0156688Y0139415D01*
X0156705Y0139326D01*
X0156725Y0139237D01*
X0156748Y0139149D01*
X0156775Y0139063D01*
X0156806Y0138978D01*
X0156841Y0138894D01*
X0156879Y0138812D01*
X0156921Y0138731D01*
X0156966Y0138652D01*
X0157014Y0138576D01*
X0157065Y0138501D01*
X0157120Y0138429D01*
X0157177Y0138358D01*
X0157238Y0138291D01*
X0157301Y0138226D01*
X0157367Y0138164D01*
X0157436Y0138105D01*
X0157507Y0138048D01*
X0157580Y0137995D01*
X0157656Y0137945D01*
X0157734Y0137898D01*
X0157813Y0137855D01*
X0157894Y0137814D01*
X0157977Y0137778D01*
X0158062Y0137745D01*
X0158148Y0137715D01*
X0158235Y0137690D01*
X0158323Y0137668D01*
X0158411Y0137649D01*
X0158501Y0137635D01*
X0158591Y0137624D01*
X0158681Y0137617D01*
X0158772Y0137614D01*
X0158863Y0137615D01*
X0158953Y0137620D01*
X0159043Y0137628D01*
X0159044Y0137628D02*
X0165315Y0138281D01*
X0165843Y0133790D01*
X0159571Y0133137D01*
X0159481Y0133125D01*
X0159391Y0133109D01*
X0159302Y0133089D01*
X0159214Y0133066D01*
X0159127Y0133038D01*
X0159042Y0133008D01*
X0158957Y0132973D01*
X0158875Y0132935D01*
X0158793Y0132893D01*
X0158714Y0132848D01*
X0158637Y0132800D01*
X0158562Y0132749D01*
X0158489Y0132694D01*
X0158418Y0132636D01*
X0158351Y0132575D01*
X0158285Y0132512D01*
X0158223Y0132446D01*
X0158163Y0132377D01*
X0158106Y0132306D01*
X0158052Y0132232D01*
X0158002Y0132156D01*
X0157955Y0132078D01*
X0157911Y0131999D01*
X0157870Y0131917D01*
X0157833Y0131834D01*
X0157800Y0131749D01*
X0157770Y0131663D01*
X0157744Y0131576D01*
X0157722Y0131487D01*
X0157703Y0131398D01*
X0157689Y0131308D01*
X0157678Y0131218D01*
X0157670Y0131127D01*
X0157667Y0131036D01*
X0157668Y0130945D01*
X0157672Y0130854D01*
X0157681Y0130763D01*
X0157693Y0130673D01*
X0157709Y0130583D01*
X0157729Y0130494D01*
X0157752Y0130406D01*
X0157780Y0130319D01*
X0157810Y0130234D01*
X0157845Y0130149D01*
X0157883Y0130067D01*
X0157925Y0129985D01*
X0157970Y0129906D01*
X0158018Y0129829D01*
X0158069Y0129754D01*
X0158124Y0129681D01*
X0158182Y0129610D01*
X0158243Y0129543D01*
X0158306Y0129477D01*
X0158372Y0129415D01*
X0158441Y0129355D01*
X0158512Y0129298D01*
X0158586Y0129244D01*
X0158662Y0129194D01*
X0158740Y0129147D01*
X0158819Y0129103D01*
X0158901Y0129062D01*
X0158984Y0129025D01*
X0159069Y0128992D01*
X0159155Y0128962D01*
X0159242Y0128936D01*
X0159331Y0128914D01*
X0159420Y0128895D01*
X0159510Y0128881D01*
X0159600Y0128870D01*
X0159691Y0128862D01*
X0159782Y0128859D01*
X0159873Y0128860D01*
X0159964Y0128864D01*
X0160055Y0128873D01*
X0160547Y0125034D01*
X0156709Y0124739D01*
X0155134Y0124837D02*
X0154884Y0124835D01*
X0154635Y0124839D01*
X0154385Y0124849D01*
X0154136Y0124865D01*
X0153888Y0124888D01*
X0153640Y0124916D01*
X0153392Y0124951D01*
X0153146Y0124991D01*
X0152901Y0125038D01*
X0152657Y0125090D01*
X0152414Y0125149D01*
X0152173Y0125213D01*
X0151933Y0125283D01*
X0151696Y0125359D01*
X0151460Y0125441D01*
X0151226Y0125529D01*
X0150995Y0125622D01*
X0150765Y0125721D01*
X0150539Y0125826D01*
X0150315Y0125936D01*
X0150093Y0126051D01*
X0149875Y0126172D01*
X0149660Y0126299D01*
X0149447Y0126430D01*
X0149239Y0126567D01*
X0149033Y0126708D01*
X0148831Y0126855D01*
X0148633Y0127007D01*
X0148438Y0127163D01*
X0148248Y0127324D01*
X0148061Y0127490D01*
X0147878Y0127660D01*
X0147700Y0127835D01*
X0147526Y0128014D01*
X0147356Y0128197D01*
X0147191Y0128384D01*
X0147031Y0128575D01*
X0146875Y0128771D01*
X0146724Y0128969D01*
X0146579Y0129172D01*
X0146438Y0129378D01*
X0146302Y0129587D01*
X0146171Y0129800D01*
X0146046Y0130016D01*
X0145926Y0130235D01*
X0145811Y0130457D01*
X0145702Y0130681D01*
X0145598Y0130908D01*
X0145500Y0131138D01*
X0145407Y0131369D01*
X0145320Y0131603D01*
X0145239Y0131840D01*
X0145164Y0132078D01*
X0145095Y0132317D01*
X0155134Y0124838D02*
X0155396Y0124806D01*
X0155658Y0124781D01*
X0155920Y0124762D01*
X0156183Y0124748D01*
X0156446Y0124741D01*
X0156709Y0124739D01*
X0151197Y0115979D02*
X0151155Y0116205D01*
X0151108Y0116430D01*
X0151056Y0116654D01*
X0150998Y0116876D01*
X0150935Y0117097D01*
X0150867Y0117316D01*
X0150793Y0117534D01*
X0150714Y0117750D01*
X0150629Y0117963D01*
X0150540Y0118175D01*
X0150446Y0118384D01*
X0150346Y0118592D01*
X0150242Y0118796D01*
X0150132Y0118998D01*
X0150018Y0119198D01*
X0149899Y0119394D01*
X0149775Y0119588D01*
X0149646Y0119778D01*
X0149513Y0119965D01*
X0149376Y0120149D01*
X0149234Y0120330D01*
X0149088Y0120507D01*
X0148937Y0120681D01*
X0148782Y0120851D01*
X0148624Y0121017D01*
X0148461Y0121179D01*
X0148294Y0121337D01*
X0148124Y0121491D01*
X0147950Y0121641D01*
X0147772Y0121787D01*
X0147591Y0121928D01*
X0147406Y0122065D01*
X0147219Y0122198D01*
X0147028Y0122325D01*
X0146834Y0122449D01*
X0146637Y0122567D01*
X0146437Y0122681D01*
X0146235Y0122789D01*
X0146030Y0122893D01*
X0145822Y0122992D01*
X0145613Y0123086D01*
X0145401Y0123175D01*
X0145187Y0123258D01*
X0144971Y0123336D01*
X0144753Y0123409D01*
X0144533Y0123477D01*
X0144312Y0123540D01*
X0144090Y0123597D01*
X0143866Y0123648D01*
X0143641Y0123695D01*
X0143415Y0123735D01*
X0143188Y0123771D01*
X0142960Y0123800D01*
X0142731Y0123825D01*
X0142502Y0123843D01*
X0142273Y0123856D01*
X0142043Y0123864D01*
X0141814Y0123866D01*
X0141584Y0123862D01*
X0141354Y0123853D01*
X0114189Y0129365D02*
X0113732Y0129022D01*
X0113284Y0128667D01*
X0112844Y0128303D01*
X0112413Y0127928D01*
X0111991Y0127542D01*
X0111579Y0127147D01*
X0111176Y0126742D01*
X0110783Y0126328D01*
X0110400Y0125904D01*
X0110027Y0125471D01*
X0109665Y0125030D01*
X0109313Y0124580D01*
X0108972Y0124121D01*
X0108642Y0123655D01*
X0108324Y0123181D01*
X0108016Y0122699D01*
X0107721Y0122210D01*
X0107437Y0121714D01*
X0107165Y0121212D01*
X0106905Y0120703D01*
X0106905Y0120704D02*
X0106875Y0120624D01*
X0106849Y0120542D01*
X0106826Y0120459D01*
X0106808Y0120376D01*
X0106793Y0120291D01*
X0106783Y0120206D01*
X0106776Y0120121D01*
X0106773Y0120035D01*
X0106774Y0119950D01*
X0106780Y0119864D01*
X0106789Y0119779D01*
X0106802Y0119694D01*
X0106819Y0119610D01*
X0106840Y0119527D01*
X0106865Y0119445D01*
X0106893Y0119364D01*
X0106925Y0119285D01*
X0106961Y0119207D01*
X0107001Y0119131D01*
X0107044Y0119057D01*
X0107090Y0118985D01*
X0107140Y0118915D01*
X0107193Y0118848D01*
X0107249Y0118783D01*
X0107307Y0118721D01*
X0107369Y0118661D01*
X0107434Y0118605D01*
X0107500Y0118551D01*
X0107570Y0118501D01*
X0107641Y0118454D01*
X0107715Y0118411D01*
X0107791Y0118370D01*
X0107868Y0118334D01*
X0107947Y0118301D01*
X0108028Y0118272D01*
X0108110Y0118246D01*
X0108193Y0118224D01*
X0108276Y0118207D01*
X0108361Y0118193D01*
X0108446Y0118183D01*
X0108532Y0118177D01*
X0108617Y0118175D01*
X0108703Y0118177D01*
X0108788Y0118183D01*
X0108873Y0118193D01*
X0114189Y0129365D02*
X0114427Y0129545D01*
X0114661Y0129731D01*
X0114891Y0129922D01*
X0115115Y0130119D01*
X0115335Y0130322D01*
X0115550Y0130529D01*
X0115760Y0130742D01*
X0115964Y0130960D01*
X0116163Y0131182D01*
X0116357Y0131410D01*
X0116545Y0131642D01*
X0116728Y0131878D01*
X0116905Y0132119D01*
X0117075Y0132364D01*
X0117240Y0132613D01*
X0117929Y0177987D02*
X0117895Y0178555D01*
X0117847Y0179123D01*
X0117786Y0179689D01*
X0117712Y0180253D01*
X0117625Y0180816D01*
X0117524Y0181377D01*
X0117411Y0181935D01*
X0117284Y0182490D01*
X0117144Y0183042D01*
X0116991Y0183590D01*
X0116826Y0184135D01*
X0116648Y0184676D01*
X0116457Y0185212D01*
X0116253Y0185744D01*
X0116037Y0186271D01*
X0115809Y0186793D01*
X0115569Y0187309D01*
X0115316Y0187819D01*
X0115052Y0188324D01*
X0114776Y0188822D01*
X0114488Y0189313D01*
X0114189Y0189798D01*
X0010646Y0179758D02*
X0010047Y0173987D01*
X0009573Y0168203D01*
X0009224Y0162411D01*
X0008998Y0156613D01*
X0008898Y0150811D01*
X0008922Y0145008D01*
X0009071Y0139207D01*
X0119504Y0144720D02*
X0119521Y0147352D01*
X0119482Y0149985D01*
X0119389Y0152616D01*
X0119240Y0155245D01*
X0010646Y0179758D02*
X0010047Y0173987D01*
X0009573Y0168203D01*
X0009224Y0162411D01*
X0008998Y0156613D01*
X0008898Y0150811D01*
X0008922Y0145008D01*
X0009071Y0139207D01*
X0009085Y0138898D01*
X0009106Y0138588D01*
X0009135Y0138280D01*
X0009171Y0137972D01*
X0009214Y0137665D01*
X0009265Y0137359D01*
X0009323Y0137054D01*
X0009389Y0136751D01*
X0009462Y0136450D01*
X0009542Y0136150D01*
X0009630Y0135853D01*
X0009724Y0135557D01*
X0009826Y0135265D01*
X0009935Y0134974D01*
X0010051Y0134687D01*
X0010173Y0134402D01*
X0010303Y0134120D01*
X0010439Y0133842D01*
X0010582Y0133566D01*
X0010732Y0133295D01*
X0010888Y0133027D01*
X0011051Y0132763D01*
X0011220Y0132503D01*
X0011395Y0132247D01*
X0011576Y0131996D01*
X0011764Y0131749D01*
X0011957Y0131506D01*
X0012156Y0131269D01*
X0012361Y0131036D01*
X0012571Y0130808D01*
X0012787Y0130585D01*
X0013008Y0130368D01*
X0013235Y0130156D01*
X0013466Y0129950D01*
X0013702Y0129749D01*
X0013944Y0129554D01*
X0014189Y0129365D01*
X0024031Y0109680D02*
X0024031Y0104562D01*
X0024032Y0104562D02*
X0024030Y0104476D01*
X0024025Y0104390D01*
X0024015Y0104305D01*
X0024002Y0104220D01*
X0023985Y0104136D01*
X0023965Y0104052D01*
X0023941Y0103970D01*
X0023913Y0103889D01*
X0023882Y0103808D01*
X0023848Y0103730D01*
X0023810Y0103653D01*
X0023768Y0103578D01*
X0023724Y0103504D01*
X0023676Y0103433D01*
X0023625Y0103363D01*
X0023571Y0103296D01*
X0023515Y0103232D01*
X0023455Y0103170D01*
X0023393Y0103110D01*
X0023329Y0103054D01*
X0023262Y0103000D01*
X0023192Y0102949D01*
X0023121Y0102901D01*
X0023048Y0102857D01*
X0022972Y0102815D01*
X0022895Y0102777D01*
X0022817Y0102743D01*
X0022736Y0102712D01*
X0022655Y0102684D01*
X0022573Y0102660D01*
X0022489Y0102640D01*
X0022405Y0102623D01*
X0022320Y0102610D01*
X0022235Y0102600D01*
X0022149Y0102595D01*
X0022063Y0102593D01*
X0013402Y0102593D01*
X0012220Y0101412D01*
X0012220Y0098262D01*
X0013402Y0097081D01*
X0022063Y0097081D01*
X0022063Y0097082D02*
X0022149Y0097080D01*
X0022235Y0097075D01*
X0022320Y0097065D01*
X0022405Y0097052D01*
X0022489Y0097035D01*
X0022573Y0097015D01*
X0022655Y0096991D01*
X0022736Y0096963D01*
X0022817Y0096932D01*
X0022895Y0096898D01*
X0022972Y0096860D01*
X0023048Y0096818D01*
X0023121Y0096774D01*
X0023192Y0096726D01*
X0023262Y0096675D01*
X0023329Y0096621D01*
X0023393Y0096565D01*
X0023455Y0096505D01*
X0023515Y0096443D01*
X0023571Y0096379D01*
X0023625Y0096312D01*
X0023676Y0096242D01*
X0023724Y0096171D01*
X0023768Y0096098D01*
X0023810Y0096022D01*
X0023848Y0095945D01*
X0023882Y0095867D01*
X0023913Y0095786D01*
X0023941Y0095705D01*
X0023965Y0095623D01*
X0023985Y0095539D01*
X0024002Y0095455D01*
X0024015Y0095370D01*
X0024025Y0095285D01*
X0024030Y0095199D01*
X0024032Y0095113D01*
X0024031Y0095113D02*
X0024031Y0082192D01*
X0024032Y0082192D02*
X0024023Y0082084D01*
X0024010Y0081977D01*
X0023993Y0081870D01*
X0023973Y0081764D01*
X0023949Y0081658D01*
X0023921Y0081554D01*
X0023889Y0081451D01*
X0023854Y0081348D01*
X0023815Y0081247D01*
X0023772Y0081148D01*
X0023726Y0081050D01*
X0023677Y0080954D01*
X0023624Y0080860D01*
X0023567Y0080767D01*
X0023508Y0080677D01*
X0023445Y0080589D01*
X0023379Y0080503D01*
X0023311Y0080419D01*
X0023239Y0080339D01*
X0023164Y0080260D01*
X0023087Y0080185D01*
X0023007Y0080112D01*
X0022924Y0080042D01*
X0022839Y0079975D01*
X0022752Y0079911D01*
X0022662Y0079851D01*
X0022571Y0079793D01*
X0022477Y0079739D01*
X0022382Y0079688D01*
X0022284Y0079641D01*
X0022185Y0079597D01*
X0022085Y0079557D01*
X0021983Y0079520D01*
X0021880Y0079487D01*
X0021776Y0079458D01*
X0021671Y0079432D01*
X0021565Y0079411D01*
X0021458Y0079393D01*
X0021351Y0079378D01*
X0021243Y0079368D01*
X0021135Y0079362D01*
X0021027Y0079359D01*
X0020919Y0079360D01*
X0020811Y0079365D01*
X0011875Y0079365D01*
X0011795Y0079363D01*
X0011716Y0079357D01*
X0011637Y0079347D01*
X0011558Y0079334D01*
X0011481Y0079316D01*
X0011404Y0079295D01*
X0011328Y0079270D01*
X0011254Y0079241D01*
X0011181Y0079209D01*
X0011110Y0079173D01*
X0011041Y0079134D01*
X0010973Y0079091D01*
X0010908Y0079046D01*
X0010845Y0078997D01*
X0010785Y0078945D01*
X0010727Y0078890D01*
X0010672Y0078832D01*
X0010620Y0078772D01*
X0010571Y0078709D01*
X0010526Y0078644D01*
X0010483Y0078576D01*
X0010444Y0078507D01*
X0010408Y0078436D01*
X0010376Y0078363D01*
X0010347Y0078289D01*
X0010322Y0078213D01*
X0010301Y0078136D01*
X0010283Y0078059D01*
X0010270Y0077980D01*
X0010260Y0077901D01*
X0010254Y0077822D01*
X0010252Y0077742D01*
X0010252Y0073459D01*
X0151197Y0115979D02*
X0152193Y0110945D01*
X0153065Y0105888D01*
X0153814Y0100812D01*
X0154439Y0095718D01*
X0154939Y0090611D01*
X0155315Y0085493D01*
X0155565Y0080368D01*
X0155690Y0075238D01*
X0155690Y0070106D01*
X0155565Y0064976D01*
X0155315Y0059851D01*
X0154939Y0054733D01*
X0154439Y0049626D01*
X0153814Y0044532D01*
X0153065Y0039456D01*
X0152193Y0034399D01*
X0151197Y0029365D01*
X0127969Y0079159D02*
X0127969Y0079365D01*
X0127968Y0079159D02*
X0127966Y0079080D01*
X0127961Y0079001D01*
X0127951Y0078923D01*
X0127938Y0078845D01*
X0127921Y0078767D01*
X0127901Y0078691D01*
X0127877Y0078615D01*
X0127850Y0078541D01*
X0127819Y0078469D01*
X0127784Y0078397D01*
X0127746Y0078328D01*
X0127706Y0078260D01*
X0127661Y0078195D01*
X0127614Y0078131D01*
X0127564Y0078070D01*
X0127511Y0078011D01*
X0127455Y0077955D01*
X0127397Y0077902D01*
X0127336Y0077851D01*
X0127273Y0077803D01*
X0127208Y0077759D01*
X0127141Y0077717D01*
X0127071Y0077679D01*
X0127001Y0077644D01*
X0126928Y0077612D01*
X0126854Y0077584D01*
X0126779Y0077560D01*
X0126703Y0077539D01*
X0126625Y0077521D01*
X0126703Y0077539D01*
X0126779Y0077560D01*
X0126854Y0077584D01*
X0126928Y0077612D01*
X0127001Y0077644D01*
X0127071Y0077679D01*
X0127141Y0077717D01*
X0127208Y0077759D01*
X0127273Y0077803D01*
X0127336Y0077851D01*
X0127397Y0077902D01*
X0127455Y0077955D01*
X0127511Y0078011D01*
X0127564Y0078070D01*
X0127614Y0078131D01*
X0127661Y0078195D01*
X0127706Y0078260D01*
X0127746Y0078328D01*
X0127784Y0078397D01*
X0127819Y0078469D01*
X0127850Y0078541D01*
X0127877Y0078615D01*
X0127901Y0078691D01*
X0127921Y0078767D01*
X0127938Y0078845D01*
X0127951Y0078923D01*
X0127961Y0079001D01*
X0127966Y0079080D01*
X0127968Y0079159D01*
X0127966Y0079080D01*
X0127961Y0079001D01*
X0127951Y0078923D01*
X0127938Y0078845D01*
X0127921Y0078767D01*
X0127901Y0078691D01*
X0127877Y0078615D01*
X0127850Y0078541D01*
X0127819Y0078469D01*
X0127784Y0078397D01*
X0127746Y0078328D01*
X0127706Y0078260D01*
X0127661Y0078195D01*
X0127614Y0078131D01*
X0127564Y0078070D01*
X0127511Y0078011D01*
X0127455Y0077955D01*
X0127397Y0077902D01*
X0127336Y0077851D01*
X0127273Y0077803D01*
X0127208Y0077759D01*
X0127141Y0077717D01*
X0127071Y0077679D01*
X0127001Y0077644D01*
X0126928Y0077612D01*
X0126854Y0077584D01*
X0126779Y0077560D01*
X0126703Y0077539D01*
X0126625Y0077521D01*
X0100804Y0047475D02*
X0100514Y0047404D01*
X0100223Y0047340D01*
X0099931Y0047282D01*
X0099637Y0047232D01*
X0099342Y0047189D01*
X0099046Y0047152D01*
X0098749Y0047123D01*
X0098452Y0047100D01*
X0098154Y0047085D01*
X0097856Y0047077D01*
X0097558Y0047075D01*
X0097260Y0047081D01*
X0111826Y0055349D02*
X0112238Y0055872D01*
X0112637Y0056405D01*
X0113023Y0056948D01*
X0113396Y0057499D01*
X0113755Y0058059D01*
X0114101Y0058628D01*
X0114433Y0059205D01*
X0114751Y0059790D01*
X0115055Y0060383D01*
X0115344Y0060982D01*
X0115619Y0061589D01*
X0115879Y0062201D01*
X0116124Y0062820D01*
X0116354Y0063445D01*
X0116569Y0064075D01*
X0116769Y0064710D01*
X0116953Y0065350D01*
X0117122Y0065994D01*
X0117275Y0066642D01*
X0117413Y0067293D01*
X0117535Y0067947D01*
X0104346Y0198656D02*
X0102471Y0199549D01*
X0100575Y0200398D01*
X0098660Y0201203D01*
X0096726Y0201962D01*
X0094776Y0202676D01*
X0092809Y0203344D01*
X0090827Y0203965D01*
X0088831Y0204540D01*
X0086822Y0205068D01*
X0084801Y0205549D01*
X0082769Y0205982D01*
X0080728Y0206367D01*
X0078678Y0206705D01*
X0076621Y0206994D01*
X0074558Y0207235D01*
X0072490Y0207427D01*
X0070418Y0207571D01*
X0068343Y0207666D01*
X0066266Y0207713D01*
X0064189Y0207711D01*
X0024032Y0198656D02*
X0023505Y0198392D01*
X0022985Y0198115D01*
X0022472Y0197825D01*
X0021966Y0197523D01*
X0021468Y0197208D01*
X0020978Y0196882D01*
X0020495Y0196543D01*
X0020022Y0196193D01*
X0019556Y0195832D01*
X0019100Y0195459D01*
X0018653Y0195075D01*
X0018216Y0194680D01*
X0017788Y0194274D01*
X0017371Y0193859D01*
X0016964Y0193433D01*
X0016567Y0192997D01*
X0016181Y0192552D01*
X0015806Y0192098D01*
X0015442Y0191634D01*
X0015090Y0191162D01*
X0014749Y0190681D01*
X0014421Y0190192D01*
X0014104Y0189695D01*
X0013800Y0189190D01*
X0013508Y0188679D01*
X0013228Y0188160D01*
X0012962Y0187634D01*
X0012708Y0187103D01*
X0012468Y0186565D01*
X0012240Y0186021D01*
X0012026Y0185472D01*
X0011826Y0184918D01*
X0011639Y0184359D01*
X0011466Y0183796D01*
X0011307Y0183229D01*
X0011161Y0182658D01*
X0011030Y0182083D01*
X0010913Y0181506D01*
X0010810Y0180926D01*
X0010721Y0180343D01*
X0010646Y0179759D01*
X0010721Y0180343D01*
X0010810Y0180926D01*
X0010913Y0181506D01*
X0011030Y0182083D01*
X0011161Y0182658D01*
X0011307Y0183229D01*
X0011466Y0183796D01*
X0011639Y0184359D01*
X0011826Y0184918D01*
X0012026Y0185472D01*
X0012240Y0186021D01*
X0012468Y0186565D01*
X0012708Y0187103D01*
X0012962Y0187634D01*
X0013228Y0188160D01*
X0013508Y0188679D01*
X0013800Y0189190D01*
X0014104Y0189695D01*
X0014421Y0190192D01*
X0014749Y0190681D01*
X0015090Y0191162D01*
X0015442Y0191634D01*
X0015806Y0192098D01*
X0016181Y0192552D01*
X0016567Y0192997D01*
X0016964Y0193433D01*
X0017371Y0193859D01*
X0017788Y0194274D01*
X0018216Y0194680D01*
X0018653Y0195075D01*
X0019100Y0195459D01*
X0019556Y0195832D01*
X0020022Y0196193D01*
X0020495Y0196543D01*
X0020978Y0196882D01*
X0021468Y0197208D01*
X0021966Y0197523D01*
X0022472Y0197825D01*
X0022985Y0198115D01*
X0023505Y0198392D01*
X0024032Y0198656D01*
X0023505Y0198392D01*
X0022985Y0198115D01*
X0022472Y0197825D01*
X0021966Y0197523D01*
X0021468Y0197208D01*
X0020978Y0196882D01*
X0020495Y0196543D01*
X0020022Y0196193D01*
X0019556Y0195832D01*
X0019100Y0195459D01*
X0018653Y0195075D01*
X0018216Y0194680D01*
X0017788Y0194274D01*
X0017371Y0193859D01*
X0016964Y0193433D01*
X0016567Y0192997D01*
X0016181Y0192552D01*
X0015806Y0192098D01*
X0015442Y0191634D01*
X0015090Y0191162D01*
X0014749Y0190681D01*
X0014421Y0190192D01*
X0014104Y0189695D01*
X0013800Y0189190D01*
X0013508Y0188679D01*
X0013228Y0188160D01*
X0012962Y0187634D01*
X0012708Y0187103D01*
X0012468Y0186565D01*
X0012240Y0186021D01*
X0012026Y0185472D01*
X0011826Y0184918D01*
X0011639Y0184359D01*
X0011466Y0183796D01*
X0011307Y0183229D01*
X0011161Y0182658D01*
X0011030Y0182083D01*
X0010913Y0181506D01*
X0010810Y0180926D01*
X0010721Y0180343D01*
X0010646Y0179759D01*
X0010721Y0180343D01*
X0010810Y0180926D01*
X0010913Y0181506D01*
X0011030Y0182083D01*
X0011161Y0182658D01*
X0011307Y0183229D01*
X0011466Y0183796D01*
X0011639Y0184359D01*
X0011826Y0184918D01*
X0012026Y0185472D01*
X0012240Y0186021D01*
X0012468Y0186565D01*
X0012708Y0187103D01*
X0012962Y0187634D01*
X0013228Y0188160D01*
X0013508Y0188679D01*
X0013800Y0189190D01*
X0014104Y0189695D01*
X0014421Y0190192D01*
X0014749Y0190681D01*
X0015090Y0191162D01*
X0015442Y0191634D01*
X0015806Y0192098D01*
X0016181Y0192552D01*
X0016567Y0192997D01*
X0016964Y0193433D01*
X0017371Y0193859D01*
X0017788Y0194274D01*
X0018216Y0194680D01*
X0018653Y0195075D01*
X0019100Y0195459D01*
X0019556Y0195832D01*
X0020022Y0196193D01*
X0020495Y0196543D01*
X0020978Y0196882D01*
X0021468Y0197208D01*
X0021966Y0197523D01*
X0022472Y0197825D01*
X0022985Y0198115D01*
X0023505Y0198392D01*
X0024032Y0198656D01*
X0023505Y0198392D01*
X0022985Y0198115D01*
X0022472Y0197825D01*
X0021966Y0197523D01*
X0021468Y0197208D01*
X0020978Y0196882D01*
X0020495Y0196543D01*
X0020022Y0196193D01*
X0019556Y0195832D01*
X0019100Y0195459D01*
X0018653Y0195075D01*
X0018216Y0194680D01*
X0017788Y0194274D01*
X0017371Y0193859D01*
X0016964Y0193433D01*
X0016567Y0192997D01*
X0016181Y0192552D01*
X0015806Y0192098D01*
X0015442Y0191634D01*
X0015090Y0191162D01*
X0014749Y0190681D01*
X0014421Y0190192D01*
X0014104Y0189695D01*
X0013800Y0189190D01*
X0013508Y0188679D01*
X0013228Y0188160D01*
X0012962Y0187634D01*
X0012708Y0187103D01*
X0012468Y0186565D01*
X0012240Y0186021D01*
X0012026Y0185472D01*
X0011826Y0184918D01*
X0011639Y0184359D01*
X0011466Y0183796D01*
X0011307Y0183229D01*
X0011161Y0182658D01*
X0011030Y0182083D01*
X0010913Y0181506D01*
X0010810Y0180926D01*
X0010721Y0180343D01*
X0010646Y0179759D01*
X0010721Y0180343D01*
X0010810Y0180926D01*
X0010913Y0181506D01*
X0011030Y0182083D01*
X0011161Y0182658D01*
X0011307Y0183229D01*
X0011466Y0183796D01*
X0011639Y0184359D01*
X0011826Y0184918D01*
X0012026Y0185472D01*
X0012240Y0186021D01*
X0012468Y0186565D01*
X0012708Y0187103D01*
X0012962Y0187634D01*
X0013228Y0188160D01*
X0013508Y0188679D01*
X0013800Y0189190D01*
X0014104Y0189695D01*
X0014421Y0190192D01*
X0014749Y0190681D01*
X0015090Y0191162D01*
X0015442Y0191634D01*
X0015806Y0192098D01*
X0016181Y0192552D01*
X0016567Y0192997D01*
X0016964Y0193433D01*
X0017371Y0193859D01*
X0017788Y0194274D01*
X0018216Y0194680D01*
X0018653Y0195075D01*
X0019100Y0195459D01*
X0019556Y0195832D01*
X0020022Y0196193D01*
X0020495Y0196543D01*
X0020978Y0196882D01*
X0021468Y0197208D01*
X0021966Y0197523D01*
X0022472Y0197825D01*
X0022985Y0198115D01*
X0023505Y0198392D01*
X0024032Y0198656D01*
X0023505Y0198392D01*
X0022985Y0198115D01*
X0022472Y0197825D01*
X0021966Y0197523D01*
X0021468Y0197208D01*
X0020978Y0196882D01*
X0020495Y0196543D01*
X0020022Y0196193D01*
X0019556Y0195832D01*
X0019100Y0195459D01*
X0018653Y0195075D01*
X0018216Y0194680D01*
X0017788Y0194274D01*
X0017371Y0193859D01*
X0016964Y0193433D01*
X0016567Y0192997D01*
X0016181Y0192552D01*
X0015806Y0192098D01*
X0015442Y0191634D01*
X0015090Y0191162D01*
X0014749Y0190681D01*
X0014421Y0190192D01*
X0014104Y0189695D01*
X0013800Y0189190D01*
X0013508Y0188679D01*
X0013228Y0188160D01*
X0012962Y0187634D01*
X0012708Y0187103D01*
X0012468Y0186565D01*
X0012240Y0186021D01*
X0012026Y0185472D01*
X0011826Y0184918D01*
X0011639Y0184359D01*
X0011466Y0183796D01*
X0011307Y0183229D01*
X0011161Y0182658D01*
X0011030Y0182083D01*
X0010913Y0181506D01*
X0010810Y0180926D01*
X0010721Y0180343D01*
X0010646Y0179759D01*
X0010721Y0180343D01*
X0010810Y0180926D01*
X0010913Y0181506D01*
X0011030Y0182083D01*
X0011161Y0182658D01*
X0011307Y0183229D01*
X0011466Y0183796D01*
X0011639Y0184359D01*
X0011826Y0184918D01*
X0012026Y0185472D01*
X0012240Y0186021D01*
X0012468Y0186565D01*
X0012708Y0187103D01*
X0012962Y0187634D01*
X0013228Y0188160D01*
X0013508Y0188679D01*
X0013800Y0189190D01*
X0014104Y0189695D01*
X0014421Y0190192D01*
X0014749Y0190681D01*
X0015090Y0191162D01*
X0015442Y0191634D01*
X0015806Y0192098D01*
X0016181Y0192552D01*
X0016567Y0192997D01*
X0016964Y0193433D01*
X0017371Y0193859D01*
X0017788Y0194274D01*
X0018216Y0194680D01*
X0018653Y0195075D01*
X0019100Y0195459D01*
X0019556Y0195832D01*
X0020022Y0196193D01*
X0020495Y0196543D01*
X0020978Y0196882D01*
X0021468Y0197208D01*
X0021966Y0197523D01*
X0022472Y0197825D01*
X0022985Y0198115D01*
X0023505Y0198392D01*
X0024032Y0198656D01*
X0025907Y0199549D01*
X0027803Y0200398D01*
X0029718Y0201202D01*
X0031651Y0201962D01*
X0033602Y0202675D01*
X0035569Y0203343D01*
X0037551Y0203965D01*
X0039547Y0204540D01*
X0041556Y0205067D01*
X0043577Y0205548D01*
X0045609Y0205981D01*
X0047650Y0206367D01*
X0049700Y0206704D01*
X0051757Y0206993D01*
X0053820Y0207234D01*
X0055888Y0207427D01*
X0057960Y0207571D01*
X0060035Y0207666D01*
X0062112Y0207713D01*
X0064189Y0207711D01*
X0062112Y0207713D01*
X0060035Y0207666D01*
X0057960Y0207571D01*
X0055888Y0207427D01*
X0053820Y0207234D01*
X0051757Y0206993D01*
X0049700Y0206704D01*
X0047650Y0206367D01*
X0045609Y0205981D01*
X0043577Y0205548D01*
X0041556Y0205067D01*
X0039547Y0204540D01*
X0037551Y0203965D01*
X0035569Y0203343D01*
X0033602Y0202675D01*
X0031651Y0201962D01*
X0029718Y0201202D01*
X0027803Y0200398D01*
X0025907Y0199549D01*
X0024032Y0198656D01*
X0025907Y0199549D01*
X0027803Y0200398D01*
X0029718Y0201202D01*
X0031651Y0201962D01*
X0033602Y0202675D01*
X0035569Y0203343D01*
X0037551Y0203965D01*
X0039547Y0204540D01*
X0041556Y0205067D01*
X0043577Y0205548D01*
X0045609Y0205981D01*
X0047650Y0206367D01*
X0049700Y0206704D01*
X0051757Y0206993D01*
X0053820Y0207234D01*
X0055888Y0207427D01*
X0057960Y0207571D01*
X0060035Y0207666D01*
X0062112Y0207713D01*
X0064189Y0207711D01*
X0062112Y0207713D01*
X0060035Y0207666D01*
X0057960Y0207571D01*
X0055888Y0207427D01*
X0053820Y0207234D01*
X0051757Y0206993D01*
X0049700Y0206704D01*
X0047650Y0206367D01*
X0045609Y0205981D01*
X0043577Y0205548D01*
X0041556Y0205067D01*
X0039547Y0204540D01*
X0037551Y0203965D01*
X0035569Y0203343D01*
X0033602Y0202675D01*
X0031651Y0201962D01*
X0029718Y0201202D01*
X0027803Y0200398D01*
X0025907Y0199549D01*
X0024032Y0198656D01*
X0014189Y0129365D02*
X0014665Y0128999D01*
X0015131Y0128621D01*
X0015589Y0128232D01*
X0016037Y0127832D01*
X0016475Y0127422D01*
X0016903Y0127000D01*
X0017320Y0126569D01*
X0017727Y0126127D01*
X0018123Y0125676D01*
X0018507Y0125215D01*
X0018881Y0124744D01*
X0019242Y0124265D01*
X0019592Y0123777D01*
X0019930Y0123281D01*
X0020256Y0122777D01*
X0020569Y0122264D01*
X0020870Y0121745D01*
X0021158Y0121218D01*
X0021433Y0120684D01*
X0021695Y0120144D01*
X0021944Y0119597D01*
X0022179Y0119045D01*
X0022401Y0118487D01*
X0022609Y0117924D01*
X0022803Y0117356D01*
X0022984Y0116783D01*
X0023150Y0116206D01*
X0023302Y0115625D01*
X0023440Y0115041D01*
X0023564Y0114453D01*
X0023673Y0113863D01*
X0023768Y0113270D01*
X0023848Y0112675D01*
X0023914Y0112078D01*
X0023965Y0111480D01*
X0024002Y0110880D01*
X0024024Y0110280D01*
X0024031Y0109680D01*
X0121669Y0110073D02*
X0122473Y0107791D01*
X0123225Y0105490D01*
X0123925Y0103173D01*
X0124571Y0100841D01*
X0125165Y0098495D01*
X0125705Y0096136D01*
X0126191Y0093765D01*
X0126623Y0091384D01*
X0127001Y0088993D01*
X0127325Y0086595D01*
X0127594Y0084190D01*
X0127809Y0081779D01*
X0127969Y0079365D01*
X0009071Y0139207D02*
X0008922Y0145008D01*
X0008898Y0150811D01*
X0008998Y0156613D01*
X0009224Y0162411D01*
X0009573Y0168203D01*
X0010047Y0173987D01*
X0010646Y0179758D01*
X0121669Y0110073D02*
X0122473Y0107791D01*
X0123225Y0105490D01*
X0123925Y0103173D01*
X0124571Y0100841D01*
X0125165Y0098495D01*
X0125705Y0096136D01*
X0126191Y0093765D01*
X0126623Y0091384D01*
X0127001Y0088993D01*
X0127325Y0086595D01*
X0127594Y0084190D01*
X0127809Y0081779D01*
X0127969Y0079365D01*
X0009071Y0139207D02*
X0008922Y0145008D01*
X0008898Y0150811D01*
X0008998Y0156613D01*
X0009224Y0162411D01*
X0009573Y0168203D01*
X0010047Y0173987D01*
X0010646Y0179758D01*
X0121669Y0110073D02*
X0122473Y0107791D01*
X0123225Y0105490D01*
X0123925Y0103173D01*
X0124571Y0100841D01*
X0125165Y0098495D01*
X0125705Y0096136D01*
X0126191Y0093765D01*
X0126623Y0091384D01*
X0127001Y0088993D01*
X0127325Y0086595D01*
X0127594Y0084190D01*
X0127809Y0081779D01*
X0127969Y0079365D01*
X0009071Y0139207D02*
X0008922Y0145008D01*
X0008898Y0150811D01*
X0008998Y0156613D01*
X0009224Y0162411D01*
X0009573Y0168203D01*
X0010047Y0173987D01*
X0010646Y0179758D01*
X0010252Y0073459D02*
X0010274Y0072727D01*
X0010313Y0071995D01*
X0010370Y0071264D01*
X0010445Y0070535D01*
X0010537Y0069809D01*
X0010647Y0069084D01*
X0010774Y0068362D01*
X0010919Y0067644D01*
X0011080Y0066929D01*
X0011259Y0066218D01*
X0011455Y0065512D01*
X0011668Y0064811D01*
X0011898Y0064115D01*
X0012144Y0063425D01*
X0012407Y0062741D01*
X0012687Y0062064D01*
X0012982Y0061393D01*
X0013294Y0060730D01*
X0013622Y0060075D01*
X0013965Y0059427D01*
X0014324Y0058788D01*
X0014698Y0058158D01*
X0015087Y0057537D01*
X0015491Y0056926D01*
X0015909Y0056324D01*
X0016342Y0055733D01*
X0016789Y0055152D01*
X0017250Y0054583D01*
X0017725Y0054024D01*
X0018213Y0053477D01*
X0018713Y0052942D01*
X0019227Y0052420D01*
X0019753Y0051909D01*
X0020291Y0051412D01*
X0021389Y0050436D01*
X0022063Y0048936D02*
X0022063Y0036255D01*
X0022065Y0036089D01*
X0022071Y0035922D01*
X0022081Y0035756D01*
X0022095Y0035590D01*
X0022113Y0035425D01*
X0022135Y0035259D01*
X0022161Y0035095D01*
X0022191Y0034931D01*
X0022225Y0034768D01*
X0022263Y0034606D01*
X0022305Y0034445D01*
X0022351Y0034285D01*
X0022400Y0034126D01*
X0022454Y0033968D01*
X0022511Y0033812D01*
X0022572Y0033657D01*
X0022636Y0033503D01*
X0022705Y0033352D01*
X0022777Y0033201D01*
X0022852Y0033053D01*
X0022931Y0032907D01*
X0023014Y0032762D01*
X0023100Y0032620D01*
X0023190Y0032479D01*
X0023283Y0032341D01*
X0023379Y0032205D01*
X0023478Y0032072D01*
X0023581Y0031941D01*
X0023687Y0031812D01*
X0023796Y0031686D01*
X0023908Y0031563D01*
X0024023Y0031442D01*
X0024140Y0031325D01*
X0024261Y0031210D01*
X0024384Y0031098D01*
X0024510Y0030989D01*
X0024639Y0030883D01*
X0024770Y0030780D01*
X0024903Y0030681D01*
X0025039Y0030585D01*
X0025177Y0030492D01*
X0025318Y0030402D01*
X0025460Y0030316D01*
X0025605Y0030233D01*
X0025751Y0030154D01*
X0025899Y0030079D01*
X0026050Y0030007D01*
X0026201Y0029938D01*
X0026355Y0029874D01*
X0026510Y0029813D01*
X0026666Y0029756D01*
X0026824Y0029702D01*
X0026983Y0029653D01*
X0027143Y0029607D01*
X0027304Y0029565D01*
X0027466Y0029527D01*
X0027629Y0029493D01*
X0027793Y0029463D01*
X0027957Y0029437D01*
X0028123Y0029415D01*
X0028288Y0029397D01*
X0028454Y0029383D01*
X0028620Y0029373D01*
X0028787Y0029367D01*
X0028953Y0029365D01*
X0036629Y0045113D02*
X0036631Y0045199D01*
X0036636Y0045285D01*
X0036646Y0045370D01*
X0036659Y0045455D01*
X0036676Y0045539D01*
X0036696Y0045623D01*
X0036720Y0045705D01*
X0036748Y0045786D01*
X0036779Y0045867D01*
X0036813Y0045945D01*
X0036851Y0046022D01*
X0036893Y0046098D01*
X0036937Y0046171D01*
X0036985Y0046242D01*
X0037036Y0046312D01*
X0037090Y0046379D01*
X0037146Y0046443D01*
X0037206Y0046505D01*
X0037268Y0046565D01*
X0037332Y0046621D01*
X0037399Y0046675D01*
X0037469Y0046726D01*
X0037540Y0046774D01*
X0037614Y0046818D01*
X0037689Y0046860D01*
X0037766Y0046898D01*
X0037844Y0046932D01*
X0037925Y0046963D01*
X0038006Y0046991D01*
X0038088Y0047015D01*
X0038172Y0047035D01*
X0038256Y0047052D01*
X0038341Y0047065D01*
X0038426Y0047075D01*
X0038512Y0047080D01*
X0038598Y0047082D01*
X0022062Y0048936D02*
X0022060Y0049025D01*
X0022054Y0049114D01*
X0022044Y0049203D01*
X0022030Y0049291D01*
X0022013Y0049378D01*
X0021991Y0049465D01*
X0021966Y0049550D01*
X0021937Y0049634D01*
X0021904Y0049717D01*
X0021867Y0049799D01*
X0021827Y0049878D01*
X0021783Y0049956D01*
X0021736Y0050032D01*
X0021686Y0050105D01*
X0021633Y0050177D01*
X0021576Y0050246D01*
X0021516Y0050312D01*
X0021454Y0050375D01*
X0021388Y0050436D01*
X0124425Y0044326D02*
X0125035Y0046641D01*
X0125588Y0048971D01*
X0126086Y0051313D01*
X0126526Y0053666D01*
X0126910Y0056030D01*
X0127237Y0058402D01*
X0127506Y0060781D01*
X0127718Y0063166D01*
X0127872Y0065555D01*
X0127968Y0067948D01*
X0009071Y0139207D02*
X0008922Y0145008D01*
X0008898Y0150811D01*
X0008998Y0156613D01*
X0009224Y0162411D01*
X0009573Y0168203D01*
X0010047Y0173987D01*
X0010646Y0179758D01*
X0127968Y0067948D02*
X0127872Y0065555D01*
X0127718Y0063166D01*
X0127506Y0060781D01*
X0127237Y0058402D01*
X0126910Y0056030D01*
X0126526Y0053666D01*
X0126086Y0051313D01*
X0125588Y0048971D01*
X0125035Y0046641D01*
X0124425Y0044326D01*
X0009071Y0139207D02*
X0008922Y0145008D01*
X0008898Y0150811D01*
X0008998Y0156613D01*
X0009224Y0162411D01*
X0009573Y0168203D01*
X0010047Y0173987D01*
X0010646Y0179758D01*
X0127968Y0067948D02*
X0127872Y0065555D01*
X0127718Y0063166D01*
X0127506Y0060781D01*
X0127237Y0058402D01*
X0126910Y0056030D01*
X0126526Y0053666D01*
X0126086Y0051313D01*
X0125588Y0048971D01*
X0125035Y0046641D01*
X0124425Y0044326D01*
X0009071Y0139207D02*
X0008922Y0145008D01*
X0008898Y0150811D01*
X0008998Y0156613D01*
X0009224Y0162411D01*
X0009573Y0168203D01*
X0010047Y0173987D01*
X0010646Y0179758D01*
D11*
X0103845Y0113912D02*
X0103847Y0113961D01*
X0103853Y0114009D01*
X0103863Y0114057D01*
X0103877Y0114104D01*
X0103894Y0114150D01*
X0103915Y0114194D01*
X0103940Y0114236D01*
X0103968Y0114276D01*
X0104000Y0114314D01*
X0104034Y0114349D01*
X0104071Y0114381D01*
X0104110Y0114410D01*
X0104152Y0114436D01*
X0104196Y0114458D01*
X0104241Y0114476D01*
X0104288Y0114491D01*
X0104335Y0114502D01*
X0104384Y0114509D01*
X0104433Y0114512D01*
X0104482Y0114511D01*
X0104530Y0114506D01*
X0104579Y0114497D01*
X0104626Y0114484D01*
X0104672Y0114467D01*
X0104716Y0114447D01*
X0104759Y0114423D01*
X0104800Y0114396D01*
X0104838Y0114365D01*
X0104874Y0114332D01*
X0104906Y0114296D01*
X0104936Y0114257D01*
X0104963Y0114216D01*
X0104986Y0114172D01*
X0105005Y0114127D01*
X0105021Y0114081D01*
X0105033Y0114034D01*
X0105041Y0113985D01*
X0105045Y0113936D01*
X0105045Y0113888D01*
X0105041Y0113839D01*
X0105033Y0113790D01*
X0105021Y0113743D01*
X0105005Y0113697D01*
X0104986Y0113652D01*
X0104963Y0113608D01*
X0104936Y0113567D01*
X0104906Y0113528D01*
X0104874Y0113492D01*
X0104838Y0113459D01*
X0104800Y0113428D01*
X0104759Y0113401D01*
X0104716Y0113377D01*
X0104672Y0113357D01*
X0104626Y0113340D01*
X0104579Y0113327D01*
X0104530Y0113318D01*
X0104482Y0113313D01*
X0104433Y0113312D01*
X0104384Y0113315D01*
X0104335Y0113322D01*
X0104288Y0113333D01*
X0104241Y0113348D01*
X0104196Y0113366D01*
X0104152Y0113388D01*
X0104110Y0113414D01*
X0104071Y0113443D01*
X0104034Y0113475D01*
X0104000Y0113510D01*
X0103968Y0113548D01*
X0103940Y0113588D01*
X0103915Y0113630D01*
X0103894Y0113674D01*
X0103877Y0113720D01*
X0103863Y0113767D01*
X0103853Y0113815D01*
X0103847Y0113863D01*
X0103845Y0113912D01*
X0104435Y0116766D02*
X0104437Y0116815D01*
X0104443Y0116863D01*
X0104453Y0116911D01*
X0104467Y0116958D01*
X0104484Y0117004D01*
X0104505Y0117048D01*
X0104530Y0117090D01*
X0104558Y0117130D01*
X0104590Y0117168D01*
X0104624Y0117203D01*
X0104661Y0117235D01*
X0104700Y0117264D01*
X0104742Y0117290D01*
X0104786Y0117312D01*
X0104831Y0117330D01*
X0104878Y0117345D01*
X0104925Y0117356D01*
X0104974Y0117363D01*
X0105023Y0117366D01*
X0105072Y0117365D01*
X0105120Y0117360D01*
X0105169Y0117351D01*
X0105216Y0117338D01*
X0105262Y0117321D01*
X0105306Y0117301D01*
X0105349Y0117277D01*
X0105390Y0117250D01*
X0105428Y0117219D01*
X0105464Y0117186D01*
X0105496Y0117150D01*
X0105526Y0117111D01*
X0105553Y0117070D01*
X0105576Y0117026D01*
X0105595Y0116981D01*
X0105611Y0116935D01*
X0105623Y0116888D01*
X0105631Y0116839D01*
X0105635Y0116790D01*
X0105635Y0116742D01*
X0105631Y0116693D01*
X0105623Y0116644D01*
X0105611Y0116597D01*
X0105595Y0116551D01*
X0105576Y0116506D01*
X0105553Y0116462D01*
X0105526Y0116421D01*
X0105496Y0116382D01*
X0105464Y0116346D01*
X0105428Y0116313D01*
X0105390Y0116282D01*
X0105349Y0116255D01*
X0105306Y0116231D01*
X0105262Y0116211D01*
X0105216Y0116194D01*
X0105169Y0116181D01*
X0105120Y0116172D01*
X0105072Y0116167D01*
X0105023Y0116166D01*
X0104974Y0116169D01*
X0104925Y0116176D01*
X0104878Y0116187D01*
X0104831Y0116202D01*
X0104786Y0116220D01*
X0104742Y0116242D01*
X0104700Y0116268D01*
X0104661Y0116297D01*
X0104624Y0116329D01*
X0104590Y0116364D01*
X0104558Y0116402D01*
X0104530Y0116442D01*
X0104505Y0116484D01*
X0104484Y0116528D01*
X0104467Y0116574D01*
X0104453Y0116621D01*
X0104443Y0116669D01*
X0104437Y0116717D01*
X0104435Y0116766D01*
X0105420Y0119719D02*
X0105422Y0119768D01*
X0105428Y0119816D01*
X0105438Y0119864D01*
X0105452Y0119911D01*
X0105469Y0119957D01*
X0105490Y0120001D01*
X0105515Y0120043D01*
X0105543Y0120083D01*
X0105575Y0120121D01*
X0105609Y0120156D01*
X0105646Y0120188D01*
X0105685Y0120217D01*
X0105727Y0120243D01*
X0105771Y0120265D01*
X0105816Y0120283D01*
X0105863Y0120298D01*
X0105910Y0120309D01*
X0105959Y0120316D01*
X0106008Y0120319D01*
X0106057Y0120318D01*
X0106105Y0120313D01*
X0106154Y0120304D01*
X0106201Y0120291D01*
X0106247Y0120274D01*
X0106291Y0120254D01*
X0106334Y0120230D01*
X0106375Y0120203D01*
X0106413Y0120172D01*
X0106449Y0120139D01*
X0106481Y0120103D01*
X0106511Y0120064D01*
X0106538Y0120023D01*
X0106561Y0119979D01*
X0106580Y0119934D01*
X0106596Y0119888D01*
X0106608Y0119841D01*
X0106616Y0119792D01*
X0106620Y0119743D01*
X0106620Y0119695D01*
X0106616Y0119646D01*
X0106608Y0119597D01*
X0106596Y0119550D01*
X0106580Y0119504D01*
X0106561Y0119459D01*
X0106538Y0119415D01*
X0106511Y0119374D01*
X0106481Y0119335D01*
X0106449Y0119299D01*
X0106413Y0119266D01*
X0106375Y0119235D01*
X0106334Y0119208D01*
X0106291Y0119184D01*
X0106247Y0119164D01*
X0106201Y0119147D01*
X0106154Y0119134D01*
X0106105Y0119125D01*
X0106057Y0119120D01*
X0106008Y0119119D01*
X0105959Y0119122D01*
X0105910Y0119129D01*
X0105863Y0119140D01*
X0105816Y0119155D01*
X0105771Y0119173D01*
X0105727Y0119195D01*
X0105685Y0119221D01*
X0105646Y0119250D01*
X0105609Y0119282D01*
X0105575Y0119317D01*
X0105543Y0119355D01*
X0105515Y0119395D01*
X0105490Y0119437D01*
X0105469Y0119481D01*
X0105452Y0119527D01*
X0105438Y0119574D01*
X0105428Y0119622D01*
X0105422Y0119670D01*
X0105420Y0119719D01*
X0117329Y0120408D02*
X0117331Y0120457D01*
X0117337Y0120505D01*
X0117347Y0120553D01*
X0117361Y0120600D01*
X0117378Y0120646D01*
X0117399Y0120690D01*
X0117424Y0120732D01*
X0117452Y0120772D01*
X0117484Y0120810D01*
X0117518Y0120845D01*
X0117555Y0120877D01*
X0117594Y0120906D01*
X0117636Y0120932D01*
X0117680Y0120954D01*
X0117725Y0120972D01*
X0117772Y0120987D01*
X0117819Y0120998D01*
X0117868Y0121005D01*
X0117917Y0121008D01*
X0117966Y0121007D01*
X0118014Y0121002D01*
X0118063Y0120993D01*
X0118110Y0120980D01*
X0118156Y0120963D01*
X0118200Y0120943D01*
X0118243Y0120919D01*
X0118284Y0120892D01*
X0118322Y0120861D01*
X0118358Y0120828D01*
X0118390Y0120792D01*
X0118420Y0120753D01*
X0118447Y0120712D01*
X0118470Y0120668D01*
X0118489Y0120623D01*
X0118505Y0120577D01*
X0118517Y0120530D01*
X0118525Y0120481D01*
X0118529Y0120432D01*
X0118529Y0120384D01*
X0118525Y0120335D01*
X0118517Y0120286D01*
X0118505Y0120239D01*
X0118489Y0120193D01*
X0118470Y0120148D01*
X0118447Y0120104D01*
X0118420Y0120063D01*
X0118390Y0120024D01*
X0118358Y0119988D01*
X0118322Y0119955D01*
X0118284Y0119924D01*
X0118243Y0119897D01*
X0118200Y0119873D01*
X0118156Y0119853D01*
X0118110Y0119836D01*
X0118063Y0119823D01*
X0118014Y0119814D01*
X0117966Y0119809D01*
X0117917Y0119808D01*
X0117868Y0119811D01*
X0117819Y0119818D01*
X0117772Y0119829D01*
X0117725Y0119844D01*
X0117680Y0119862D01*
X0117636Y0119884D01*
X0117594Y0119910D01*
X0117555Y0119939D01*
X0117518Y0119971D01*
X0117484Y0120006D01*
X0117452Y0120044D01*
X0117424Y0120084D01*
X0117399Y0120126D01*
X0117378Y0120170D01*
X0117361Y0120216D01*
X0117347Y0120263D01*
X0117337Y0120311D01*
X0117331Y0120359D01*
X0117329Y0120408D01*
X0118510Y0117652D02*
X0118512Y0117701D01*
X0118518Y0117749D01*
X0118528Y0117797D01*
X0118542Y0117844D01*
X0118559Y0117890D01*
X0118580Y0117934D01*
X0118605Y0117976D01*
X0118633Y0118016D01*
X0118665Y0118054D01*
X0118699Y0118089D01*
X0118736Y0118121D01*
X0118775Y0118150D01*
X0118817Y0118176D01*
X0118861Y0118198D01*
X0118906Y0118216D01*
X0118953Y0118231D01*
X0119000Y0118242D01*
X0119049Y0118249D01*
X0119098Y0118252D01*
X0119147Y0118251D01*
X0119195Y0118246D01*
X0119244Y0118237D01*
X0119291Y0118224D01*
X0119337Y0118207D01*
X0119381Y0118187D01*
X0119424Y0118163D01*
X0119465Y0118136D01*
X0119503Y0118105D01*
X0119539Y0118072D01*
X0119571Y0118036D01*
X0119601Y0117997D01*
X0119628Y0117956D01*
X0119651Y0117912D01*
X0119670Y0117867D01*
X0119686Y0117821D01*
X0119698Y0117774D01*
X0119706Y0117725D01*
X0119710Y0117676D01*
X0119710Y0117628D01*
X0119706Y0117579D01*
X0119698Y0117530D01*
X0119686Y0117483D01*
X0119670Y0117437D01*
X0119651Y0117392D01*
X0119628Y0117348D01*
X0119601Y0117307D01*
X0119571Y0117268D01*
X0119539Y0117232D01*
X0119503Y0117199D01*
X0119465Y0117168D01*
X0119424Y0117141D01*
X0119381Y0117117D01*
X0119337Y0117097D01*
X0119291Y0117080D01*
X0119244Y0117067D01*
X0119195Y0117058D01*
X0119147Y0117053D01*
X0119098Y0117052D01*
X0119049Y0117055D01*
X0119000Y0117062D01*
X0118953Y0117073D01*
X0118906Y0117088D01*
X0118861Y0117106D01*
X0118817Y0117128D01*
X0118775Y0117154D01*
X0118736Y0117183D01*
X0118699Y0117215D01*
X0118665Y0117250D01*
X0118633Y0117288D01*
X0118605Y0117328D01*
X0118580Y0117370D01*
X0118559Y0117414D01*
X0118542Y0117460D01*
X0118528Y0117507D01*
X0118518Y0117555D01*
X0118512Y0117603D01*
X0118510Y0117652D01*
X0119691Y0114995D02*
X0119693Y0115044D01*
X0119699Y0115092D01*
X0119709Y0115140D01*
X0119723Y0115187D01*
X0119740Y0115233D01*
X0119761Y0115277D01*
X0119786Y0115319D01*
X0119814Y0115359D01*
X0119846Y0115397D01*
X0119880Y0115432D01*
X0119917Y0115464D01*
X0119956Y0115493D01*
X0119998Y0115519D01*
X0120042Y0115541D01*
X0120087Y0115559D01*
X0120134Y0115574D01*
X0120181Y0115585D01*
X0120230Y0115592D01*
X0120279Y0115595D01*
X0120328Y0115594D01*
X0120376Y0115589D01*
X0120425Y0115580D01*
X0120472Y0115567D01*
X0120518Y0115550D01*
X0120562Y0115530D01*
X0120605Y0115506D01*
X0120646Y0115479D01*
X0120684Y0115448D01*
X0120720Y0115415D01*
X0120752Y0115379D01*
X0120782Y0115340D01*
X0120809Y0115299D01*
X0120832Y0115255D01*
X0120851Y0115210D01*
X0120867Y0115164D01*
X0120879Y0115117D01*
X0120887Y0115068D01*
X0120891Y0115019D01*
X0120891Y0114971D01*
X0120887Y0114922D01*
X0120879Y0114873D01*
X0120867Y0114826D01*
X0120851Y0114780D01*
X0120832Y0114735D01*
X0120809Y0114691D01*
X0120782Y0114650D01*
X0120752Y0114611D01*
X0120720Y0114575D01*
X0120684Y0114542D01*
X0120646Y0114511D01*
X0120605Y0114484D01*
X0120562Y0114460D01*
X0120518Y0114440D01*
X0120472Y0114423D01*
X0120425Y0114410D01*
X0120376Y0114401D01*
X0120328Y0114396D01*
X0120279Y0114395D01*
X0120230Y0114398D01*
X0120181Y0114405D01*
X0120134Y0114416D01*
X0120087Y0114431D01*
X0120042Y0114449D01*
X0119998Y0114471D01*
X0119956Y0114497D01*
X0119917Y0114526D01*
X0119880Y0114558D01*
X0119846Y0114593D01*
X0119814Y0114631D01*
X0119786Y0114671D01*
X0119761Y0114713D01*
X0119740Y0114757D01*
X0119723Y0114803D01*
X0119709Y0114850D01*
X0119699Y0114898D01*
X0119693Y0114946D01*
X0119691Y0114995D01*
X0120676Y0112731D02*
X0120678Y0112780D01*
X0120684Y0112828D01*
X0120694Y0112876D01*
X0120708Y0112923D01*
X0120725Y0112969D01*
X0120746Y0113013D01*
X0120771Y0113055D01*
X0120799Y0113095D01*
X0120831Y0113133D01*
X0120865Y0113168D01*
X0120902Y0113200D01*
X0120941Y0113229D01*
X0120983Y0113255D01*
X0121027Y0113277D01*
X0121072Y0113295D01*
X0121119Y0113310D01*
X0121166Y0113321D01*
X0121215Y0113328D01*
X0121264Y0113331D01*
X0121313Y0113330D01*
X0121361Y0113325D01*
X0121410Y0113316D01*
X0121457Y0113303D01*
X0121503Y0113286D01*
X0121547Y0113266D01*
X0121590Y0113242D01*
X0121631Y0113215D01*
X0121669Y0113184D01*
X0121705Y0113151D01*
X0121737Y0113115D01*
X0121767Y0113076D01*
X0121794Y0113035D01*
X0121817Y0112991D01*
X0121836Y0112946D01*
X0121852Y0112900D01*
X0121864Y0112853D01*
X0121872Y0112804D01*
X0121876Y0112755D01*
X0121876Y0112707D01*
X0121872Y0112658D01*
X0121864Y0112609D01*
X0121852Y0112562D01*
X0121836Y0112516D01*
X0121817Y0112471D01*
X0121794Y0112427D01*
X0121767Y0112386D01*
X0121737Y0112347D01*
X0121705Y0112311D01*
X0121669Y0112278D01*
X0121631Y0112247D01*
X0121590Y0112220D01*
X0121547Y0112196D01*
X0121503Y0112176D01*
X0121457Y0112159D01*
X0121410Y0112146D01*
X0121361Y0112137D01*
X0121313Y0112132D01*
X0121264Y0112131D01*
X0121215Y0112134D01*
X0121166Y0112141D01*
X0121119Y0112152D01*
X0121072Y0112167D01*
X0121027Y0112185D01*
X0120983Y0112207D01*
X0120941Y0112233D01*
X0120902Y0112262D01*
X0120865Y0112294D01*
X0120831Y0112329D01*
X0120799Y0112367D01*
X0120771Y0112407D01*
X0120746Y0112449D01*
X0120725Y0112493D01*
X0120708Y0112539D01*
X0120694Y0112586D01*
X0120684Y0112634D01*
X0120678Y0112682D01*
X0120676Y0112731D01*
X0131699Y0123656D02*
X0131701Y0123705D01*
X0131707Y0123753D01*
X0131717Y0123801D01*
X0131731Y0123848D01*
X0131748Y0123894D01*
X0131769Y0123938D01*
X0131794Y0123980D01*
X0131822Y0124020D01*
X0131854Y0124058D01*
X0131888Y0124093D01*
X0131925Y0124125D01*
X0131964Y0124154D01*
X0132006Y0124180D01*
X0132050Y0124202D01*
X0132095Y0124220D01*
X0132142Y0124235D01*
X0132189Y0124246D01*
X0132238Y0124253D01*
X0132287Y0124256D01*
X0132336Y0124255D01*
X0132384Y0124250D01*
X0132433Y0124241D01*
X0132480Y0124228D01*
X0132526Y0124211D01*
X0132570Y0124191D01*
X0132613Y0124167D01*
X0132654Y0124140D01*
X0132692Y0124109D01*
X0132728Y0124076D01*
X0132760Y0124040D01*
X0132790Y0124001D01*
X0132817Y0123960D01*
X0132840Y0123916D01*
X0132859Y0123871D01*
X0132875Y0123825D01*
X0132887Y0123778D01*
X0132895Y0123729D01*
X0132899Y0123680D01*
X0132899Y0123632D01*
X0132895Y0123583D01*
X0132887Y0123534D01*
X0132875Y0123487D01*
X0132859Y0123441D01*
X0132840Y0123396D01*
X0132817Y0123352D01*
X0132790Y0123311D01*
X0132760Y0123272D01*
X0132728Y0123236D01*
X0132692Y0123203D01*
X0132654Y0123172D01*
X0132613Y0123145D01*
X0132570Y0123121D01*
X0132526Y0123101D01*
X0132480Y0123084D01*
X0132433Y0123071D01*
X0132384Y0123062D01*
X0132336Y0123057D01*
X0132287Y0123056D01*
X0132238Y0123059D01*
X0132189Y0123066D01*
X0132142Y0123077D01*
X0132095Y0123092D01*
X0132050Y0123110D01*
X0132006Y0123132D01*
X0131964Y0123158D01*
X0131925Y0123187D01*
X0131888Y0123219D01*
X0131854Y0123254D01*
X0131822Y0123292D01*
X0131794Y0123332D01*
X0131769Y0123374D01*
X0131748Y0123418D01*
X0131731Y0123464D01*
X0131717Y0123511D01*
X0131707Y0123559D01*
X0131701Y0123607D01*
X0131699Y0123656D01*
X0134061Y0123656D02*
X0134063Y0123705D01*
X0134069Y0123753D01*
X0134079Y0123801D01*
X0134093Y0123848D01*
X0134110Y0123894D01*
X0134131Y0123938D01*
X0134156Y0123980D01*
X0134184Y0124020D01*
X0134216Y0124058D01*
X0134250Y0124093D01*
X0134287Y0124125D01*
X0134326Y0124154D01*
X0134368Y0124180D01*
X0134412Y0124202D01*
X0134457Y0124220D01*
X0134504Y0124235D01*
X0134551Y0124246D01*
X0134600Y0124253D01*
X0134649Y0124256D01*
X0134698Y0124255D01*
X0134746Y0124250D01*
X0134795Y0124241D01*
X0134842Y0124228D01*
X0134888Y0124211D01*
X0134932Y0124191D01*
X0134975Y0124167D01*
X0135016Y0124140D01*
X0135054Y0124109D01*
X0135090Y0124076D01*
X0135122Y0124040D01*
X0135152Y0124001D01*
X0135179Y0123960D01*
X0135202Y0123916D01*
X0135221Y0123871D01*
X0135237Y0123825D01*
X0135249Y0123778D01*
X0135257Y0123729D01*
X0135261Y0123680D01*
X0135261Y0123632D01*
X0135257Y0123583D01*
X0135249Y0123534D01*
X0135237Y0123487D01*
X0135221Y0123441D01*
X0135202Y0123396D01*
X0135179Y0123352D01*
X0135152Y0123311D01*
X0135122Y0123272D01*
X0135090Y0123236D01*
X0135054Y0123203D01*
X0135016Y0123172D01*
X0134975Y0123145D01*
X0134932Y0123121D01*
X0134888Y0123101D01*
X0134842Y0123084D01*
X0134795Y0123071D01*
X0134746Y0123062D01*
X0134698Y0123057D01*
X0134649Y0123056D01*
X0134600Y0123059D01*
X0134551Y0123066D01*
X0134504Y0123077D01*
X0134457Y0123092D01*
X0134412Y0123110D01*
X0134368Y0123132D01*
X0134326Y0123158D01*
X0134287Y0123187D01*
X0134250Y0123219D01*
X0134216Y0123254D01*
X0134184Y0123292D01*
X0134156Y0123332D01*
X0134131Y0123374D01*
X0134110Y0123418D01*
X0134093Y0123464D01*
X0134079Y0123511D01*
X0134069Y0123559D01*
X0134063Y0123607D01*
X0134061Y0123656D01*
X0136424Y0123656D02*
X0136426Y0123705D01*
X0136432Y0123753D01*
X0136442Y0123801D01*
X0136456Y0123848D01*
X0136473Y0123894D01*
X0136494Y0123938D01*
X0136519Y0123980D01*
X0136547Y0124020D01*
X0136579Y0124058D01*
X0136613Y0124093D01*
X0136650Y0124125D01*
X0136689Y0124154D01*
X0136731Y0124180D01*
X0136775Y0124202D01*
X0136820Y0124220D01*
X0136867Y0124235D01*
X0136914Y0124246D01*
X0136963Y0124253D01*
X0137012Y0124256D01*
X0137061Y0124255D01*
X0137109Y0124250D01*
X0137158Y0124241D01*
X0137205Y0124228D01*
X0137251Y0124211D01*
X0137295Y0124191D01*
X0137338Y0124167D01*
X0137379Y0124140D01*
X0137417Y0124109D01*
X0137453Y0124076D01*
X0137485Y0124040D01*
X0137515Y0124001D01*
X0137542Y0123960D01*
X0137565Y0123916D01*
X0137584Y0123871D01*
X0137600Y0123825D01*
X0137612Y0123778D01*
X0137620Y0123729D01*
X0137624Y0123680D01*
X0137624Y0123632D01*
X0137620Y0123583D01*
X0137612Y0123534D01*
X0137600Y0123487D01*
X0137584Y0123441D01*
X0137565Y0123396D01*
X0137542Y0123352D01*
X0137515Y0123311D01*
X0137485Y0123272D01*
X0137453Y0123236D01*
X0137417Y0123203D01*
X0137379Y0123172D01*
X0137338Y0123145D01*
X0137295Y0123121D01*
X0137251Y0123101D01*
X0137205Y0123084D01*
X0137158Y0123071D01*
X0137109Y0123062D01*
X0137061Y0123057D01*
X0137012Y0123056D01*
X0136963Y0123059D01*
X0136914Y0123066D01*
X0136867Y0123077D01*
X0136820Y0123092D01*
X0136775Y0123110D01*
X0136731Y0123132D01*
X0136689Y0123158D01*
X0136650Y0123187D01*
X0136613Y0123219D01*
X0136579Y0123254D01*
X0136547Y0123292D01*
X0136519Y0123332D01*
X0136494Y0123374D01*
X0136473Y0123418D01*
X0136456Y0123464D01*
X0136442Y0123511D01*
X0136432Y0123559D01*
X0136426Y0123607D01*
X0136424Y0123656D01*
X0138786Y0123656D02*
X0138788Y0123705D01*
X0138794Y0123753D01*
X0138804Y0123801D01*
X0138818Y0123848D01*
X0138835Y0123894D01*
X0138856Y0123938D01*
X0138881Y0123980D01*
X0138909Y0124020D01*
X0138941Y0124058D01*
X0138975Y0124093D01*
X0139012Y0124125D01*
X0139051Y0124154D01*
X0139093Y0124180D01*
X0139137Y0124202D01*
X0139182Y0124220D01*
X0139229Y0124235D01*
X0139276Y0124246D01*
X0139325Y0124253D01*
X0139374Y0124256D01*
X0139423Y0124255D01*
X0139471Y0124250D01*
X0139520Y0124241D01*
X0139567Y0124228D01*
X0139613Y0124211D01*
X0139657Y0124191D01*
X0139700Y0124167D01*
X0139741Y0124140D01*
X0139779Y0124109D01*
X0139815Y0124076D01*
X0139847Y0124040D01*
X0139877Y0124001D01*
X0139904Y0123960D01*
X0139927Y0123916D01*
X0139946Y0123871D01*
X0139962Y0123825D01*
X0139974Y0123778D01*
X0139982Y0123729D01*
X0139986Y0123680D01*
X0139986Y0123632D01*
X0139982Y0123583D01*
X0139974Y0123534D01*
X0139962Y0123487D01*
X0139946Y0123441D01*
X0139927Y0123396D01*
X0139904Y0123352D01*
X0139877Y0123311D01*
X0139847Y0123272D01*
X0139815Y0123236D01*
X0139779Y0123203D01*
X0139741Y0123172D01*
X0139700Y0123145D01*
X0139657Y0123121D01*
X0139613Y0123101D01*
X0139567Y0123084D01*
X0139520Y0123071D01*
X0139471Y0123062D01*
X0139423Y0123057D01*
X0139374Y0123056D01*
X0139325Y0123059D01*
X0139276Y0123066D01*
X0139229Y0123077D01*
X0139182Y0123092D01*
X0139137Y0123110D01*
X0139093Y0123132D01*
X0139051Y0123158D01*
X0139012Y0123187D01*
X0138975Y0123219D01*
X0138941Y0123254D01*
X0138909Y0123292D01*
X0138881Y0123332D01*
X0138856Y0123374D01*
X0138835Y0123418D01*
X0138818Y0123464D01*
X0138804Y0123511D01*
X0138794Y0123559D01*
X0138788Y0123607D01*
X0138786Y0123656D01*
X0136620Y0135270D02*
X0136622Y0135319D01*
X0136628Y0135367D01*
X0136638Y0135415D01*
X0136652Y0135462D01*
X0136669Y0135508D01*
X0136690Y0135552D01*
X0136715Y0135594D01*
X0136743Y0135634D01*
X0136775Y0135672D01*
X0136809Y0135707D01*
X0136846Y0135739D01*
X0136885Y0135768D01*
X0136927Y0135794D01*
X0136971Y0135816D01*
X0137016Y0135834D01*
X0137063Y0135849D01*
X0137110Y0135860D01*
X0137159Y0135867D01*
X0137208Y0135870D01*
X0137257Y0135869D01*
X0137305Y0135864D01*
X0137354Y0135855D01*
X0137401Y0135842D01*
X0137447Y0135825D01*
X0137491Y0135805D01*
X0137534Y0135781D01*
X0137575Y0135754D01*
X0137613Y0135723D01*
X0137649Y0135690D01*
X0137681Y0135654D01*
X0137711Y0135615D01*
X0137738Y0135574D01*
X0137761Y0135530D01*
X0137780Y0135485D01*
X0137796Y0135439D01*
X0137808Y0135392D01*
X0137816Y0135343D01*
X0137820Y0135294D01*
X0137820Y0135246D01*
X0137816Y0135197D01*
X0137808Y0135148D01*
X0137796Y0135101D01*
X0137780Y0135055D01*
X0137761Y0135010D01*
X0137738Y0134966D01*
X0137711Y0134925D01*
X0137681Y0134886D01*
X0137649Y0134850D01*
X0137613Y0134817D01*
X0137575Y0134786D01*
X0137534Y0134759D01*
X0137491Y0134735D01*
X0137447Y0134715D01*
X0137401Y0134698D01*
X0137354Y0134685D01*
X0137305Y0134676D01*
X0137257Y0134671D01*
X0137208Y0134670D01*
X0137159Y0134673D01*
X0137110Y0134680D01*
X0137063Y0134691D01*
X0137016Y0134706D01*
X0136971Y0134724D01*
X0136927Y0134746D01*
X0136885Y0134772D01*
X0136846Y0134801D01*
X0136809Y0134833D01*
X0136775Y0134868D01*
X0136743Y0134906D01*
X0136715Y0134946D01*
X0136690Y0134988D01*
X0136669Y0135032D01*
X0136652Y0135078D01*
X0136638Y0135125D01*
X0136628Y0135173D01*
X0136622Y0135221D01*
X0136620Y0135270D01*
X0134258Y0135270D02*
X0134260Y0135319D01*
X0134266Y0135367D01*
X0134276Y0135415D01*
X0134290Y0135462D01*
X0134307Y0135508D01*
X0134328Y0135552D01*
X0134353Y0135594D01*
X0134381Y0135634D01*
X0134413Y0135672D01*
X0134447Y0135707D01*
X0134484Y0135739D01*
X0134523Y0135768D01*
X0134565Y0135794D01*
X0134609Y0135816D01*
X0134654Y0135834D01*
X0134701Y0135849D01*
X0134748Y0135860D01*
X0134797Y0135867D01*
X0134846Y0135870D01*
X0134895Y0135869D01*
X0134943Y0135864D01*
X0134992Y0135855D01*
X0135039Y0135842D01*
X0135085Y0135825D01*
X0135129Y0135805D01*
X0135172Y0135781D01*
X0135213Y0135754D01*
X0135251Y0135723D01*
X0135287Y0135690D01*
X0135319Y0135654D01*
X0135349Y0135615D01*
X0135376Y0135574D01*
X0135399Y0135530D01*
X0135418Y0135485D01*
X0135434Y0135439D01*
X0135446Y0135392D01*
X0135454Y0135343D01*
X0135458Y0135294D01*
X0135458Y0135246D01*
X0135454Y0135197D01*
X0135446Y0135148D01*
X0135434Y0135101D01*
X0135418Y0135055D01*
X0135399Y0135010D01*
X0135376Y0134966D01*
X0135349Y0134925D01*
X0135319Y0134886D01*
X0135287Y0134850D01*
X0135251Y0134817D01*
X0135213Y0134786D01*
X0135172Y0134759D01*
X0135129Y0134735D01*
X0135085Y0134715D01*
X0135039Y0134698D01*
X0134992Y0134685D01*
X0134943Y0134676D01*
X0134895Y0134671D01*
X0134846Y0134670D01*
X0134797Y0134673D01*
X0134748Y0134680D01*
X0134701Y0134691D01*
X0134654Y0134706D01*
X0134609Y0134724D01*
X0134565Y0134746D01*
X0134523Y0134772D01*
X0134484Y0134801D01*
X0134447Y0134833D01*
X0134413Y0134868D01*
X0134381Y0134906D01*
X0134353Y0134946D01*
X0134328Y0134988D01*
X0134307Y0135032D01*
X0134290Y0135078D01*
X0134276Y0135125D01*
X0134266Y0135173D01*
X0134260Y0135221D01*
X0134258Y0135270D01*
X0131896Y0135270D02*
X0131898Y0135319D01*
X0131904Y0135367D01*
X0131914Y0135415D01*
X0131928Y0135462D01*
X0131945Y0135508D01*
X0131966Y0135552D01*
X0131991Y0135594D01*
X0132019Y0135634D01*
X0132051Y0135672D01*
X0132085Y0135707D01*
X0132122Y0135739D01*
X0132161Y0135768D01*
X0132203Y0135794D01*
X0132247Y0135816D01*
X0132292Y0135834D01*
X0132339Y0135849D01*
X0132386Y0135860D01*
X0132435Y0135867D01*
X0132484Y0135870D01*
X0132533Y0135869D01*
X0132581Y0135864D01*
X0132630Y0135855D01*
X0132677Y0135842D01*
X0132723Y0135825D01*
X0132767Y0135805D01*
X0132810Y0135781D01*
X0132851Y0135754D01*
X0132889Y0135723D01*
X0132925Y0135690D01*
X0132957Y0135654D01*
X0132987Y0135615D01*
X0133014Y0135574D01*
X0133037Y0135530D01*
X0133056Y0135485D01*
X0133072Y0135439D01*
X0133084Y0135392D01*
X0133092Y0135343D01*
X0133096Y0135294D01*
X0133096Y0135246D01*
X0133092Y0135197D01*
X0133084Y0135148D01*
X0133072Y0135101D01*
X0133056Y0135055D01*
X0133037Y0135010D01*
X0133014Y0134966D01*
X0132987Y0134925D01*
X0132957Y0134886D01*
X0132925Y0134850D01*
X0132889Y0134817D01*
X0132851Y0134786D01*
X0132810Y0134759D01*
X0132767Y0134735D01*
X0132723Y0134715D01*
X0132677Y0134698D01*
X0132630Y0134685D01*
X0132581Y0134676D01*
X0132533Y0134671D01*
X0132484Y0134670D01*
X0132435Y0134673D01*
X0132386Y0134680D01*
X0132339Y0134691D01*
X0132292Y0134706D01*
X0132247Y0134724D01*
X0132203Y0134746D01*
X0132161Y0134772D01*
X0132122Y0134801D01*
X0132085Y0134833D01*
X0132051Y0134868D01*
X0132019Y0134906D01*
X0131991Y0134946D01*
X0131966Y0134988D01*
X0131945Y0135032D01*
X0131928Y0135078D01*
X0131914Y0135125D01*
X0131904Y0135173D01*
X0131898Y0135221D01*
X0131896Y0135270D01*
X0138983Y0135467D02*
X0138985Y0135516D01*
X0138991Y0135564D01*
X0139001Y0135612D01*
X0139015Y0135659D01*
X0139032Y0135705D01*
X0139053Y0135749D01*
X0139078Y0135791D01*
X0139106Y0135831D01*
X0139138Y0135869D01*
X0139172Y0135904D01*
X0139209Y0135936D01*
X0139248Y0135965D01*
X0139290Y0135991D01*
X0139334Y0136013D01*
X0139379Y0136031D01*
X0139426Y0136046D01*
X0139473Y0136057D01*
X0139522Y0136064D01*
X0139571Y0136067D01*
X0139620Y0136066D01*
X0139668Y0136061D01*
X0139717Y0136052D01*
X0139764Y0136039D01*
X0139810Y0136022D01*
X0139854Y0136002D01*
X0139897Y0135978D01*
X0139938Y0135951D01*
X0139976Y0135920D01*
X0140012Y0135887D01*
X0140044Y0135851D01*
X0140074Y0135812D01*
X0140101Y0135771D01*
X0140124Y0135727D01*
X0140143Y0135682D01*
X0140159Y0135636D01*
X0140171Y0135589D01*
X0140179Y0135540D01*
X0140183Y0135491D01*
X0140183Y0135443D01*
X0140179Y0135394D01*
X0140171Y0135345D01*
X0140159Y0135298D01*
X0140143Y0135252D01*
X0140124Y0135207D01*
X0140101Y0135163D01*
X0140074Y0135122D01*
X0140044Y0135083D01*
X0140012Y0135047D01*
X0139976Y0135014D01*
X0139938Y0134983D01*
X0139897Y0134956D01*
X0139854Y0134932D01*
X0139810Y0134912D01*
X0139764Y0134895D01*
X0139717Y0134882D01*
X0139668Y0134873D01*
X0139620Y0134868D01*
X0139571Y0134867D01*
X0139522Y0134870D01*
X0139473Y0134877D01*
X0139426Y0134888D01*
X0139379Y0134903D01*
X0139334Y0134921D01*
X0139290Y0134943D01*
X0139248Y0134969D01*
X0139209Y0134998D01*
X0139172Y0135030D01*
X0139138Y0135065D01*
X0139106Y0135103D01*
X0139078Y0135143D01*
X0139053Y0135185D01*
X0139032Y0135229D01*
X0139015Y0135275D01*
X0139001Y0135322D01*
X0138991Y0135370D01*
X0138985Y0135418D01*
X0138983Y0135467D01*
X0122546Y0136353D02*
X0122548Y0136402D01*
X0122554Y0136450D01*
X0122564Y0136498D01*
X0122578Y0136545D01*
X0122595Y0136591D01*
X0122616Y0136635D01*
X0122641Y0136677D01*
X0122669Y0136717D01*
X0122701Y0136755D01*
X0122735Y0136790D01*
X0122772Y0136822D01*
X0122811Y0136851D01*
X0122853Y0136877D01*
X0122897Y0136899D01*
X0122942Y0136917D01*
X0122989Y0136932D01*
X0123036Y0136943D01*
X0123085Y0136950D01*
X0123134Y0136953D01*
X0123183Y0136952D01*
X0123231Y0136947D01*
X0123280Y0136938D01*
X0123327Y0136925D01*
X0123373Y0136908D01*
X0123417Y0136888D01*
X0123460Y0136864D01*
X0123501Y0136837D01*
X0123539Y0136806D01*
X0123575Y0136773D01*
X0123607Y0136737D01*
X0123637Y0136698D01*
X0123664Y0136657D01*
X0123687Y0136613D01*
X0123706Y0136568D01*
X0123722Y0136522D01*
X0123734Y0136475D01*
X0123742Y0136426D01*
X0123746Y0136377D01*
X0123746Y0136329D01*
X0123742Y0136280D01*
X0123734Y0136231D01*
X0123722Y0136184D01*
X0123706Y0136138D01*
X0123687Y0136093D01*
X0123664Y0136049D01*
X0123637Y0136008D01*
X0123607Y0135969D01*
X0123575Y0135933D01*
X0123539Y0135900D01*
X0123501Y0135869D01*
X0123460Y0135842D01*
X0123417Y0135818D01*
X0123373Y0135798D01*
X0123327Y0135781D01*
X0123280Y0135768D01*
X0123231Y0135759D01*
X0123183Y0135754D01*
X0123134Y0135753D01*
X0123085Y0135756D01*
X0123036Y0135763D01*
X0122989Y0135774D01*
X0122942Y0135789D01*
X0122897Y0135807D01*
X0122853Y0135829D01*
X0122811Y0135855D01*
X0122772Y0135884D01*
X0122735Y0135916D01*
X0122701Y0135951D01*
X0122669Y0135989D01*
X0122641Y0136029D01*
X0122616Y0136071D01*
X0122595Y0136115D01*
X0122578Y0136161D01*
X0122564Y0136208D01*
X0122554Y0136256D01*
X0122548Y0136304D01*
X0122546Y0136353D01*
X0122546Y0138814D02*
X0122548Y0138863D01*
X0122554Y0138911D01*
X0122564Y0138959D01*
X0122578Y0139006D01*
X0122595Y0139052D01*
X0122616Y0139096D01*
X0122641Y0139138D01*
X0122669Y0139178D01*
X0122701Y0139216D01*
X0122735Y0139251D01*
X0122772Y0139283D01*
X0122811Y0139312D01*
X0122853Y0139338D01*
X0122897Y0139360D01*
X0122942Y0139378D01*
X0122989Y0139393D01*
X0123036Y0139404D01*
X0123085Y0139411D01*
X0123134Y0139414D01*
X0123183Y0139413D01*
X0123231Y0139408D01*
X0123280Y0139399D01*
X0123327Y0139386D01*
X0123373Y0139369D01*
X0123417Y0139349D01*
X0123460Y0139325D01*
X0123501Y0139298D01*
X0123539Y0139267D01*
X0123575Y0139234D01*
X0123607Y0139198D01*
X0123637Y0139159D01*
X0123664Y0139118D01*
X0123687Y0139074D01*
X0123706Y0139029D01*
X0123722Y0138983D01*
X0123734Y0138936D01*
X0123742Y0138887D01*
X0123746Y0138838D01*
X0123746Y0138790D01*
X0123742Y0138741D01*
X0123734Y0138692D01*
X0123722Y0138645D01*
X0123706Y0138599D01*
X0123687Y0138554D01*
X0123664Y0138510D01*
X0123637Y0138469D01*
X0123607Y0138430D01*
X0123575Y0138394D01*
X0123539Y0138361D01*
X0123501Y0138330D01*
X0123460Y0138303D01*
X0123417Y0138279D01*
X0123373Y0138259D01*
X0123327Y0138242D01*
X0123280Y0138229D01*
X0123231Y0138220D01*
X0123183Y0138215D01*
X0123134Y0138214D01*
X0123085Y0138217D01*
X0123036Y0138224D01*
X0122989Y0138235D01*
X0122942Y0138250D01*
X0122897Y0138268D01*
X0122853Y0138290D01*
X0122811Y0138316D01*
X0122772Y0138345D01*
X0122735Y0138377D01*
X0122701Y0138412D01*
X0122669Y0138450D01*
X0122641Y0138490D01*
X0122616Y0138532D01*
X0122595Y0138576D01*
X0122578Y0138622D01*
X0122564Y0138669D01*
X0122554Y0138717D01*
X0122548Y0138765D01*
X0122546Y0138814D01*
X0118510Y0140290D02*
X0118512Y0140339D01*
X0118518Y0140387D01*
X0118528Y0140435D01*
X0118542Y0140482D01*
X0118559Y0140528D01*
X0118580Y0140572D01*
X0118605Y0140614D01*
X0118633Y0140654D01*
X0118665Y0140692D01*
X0118699Y0140727D01*
X0118736Y0140759D01*
X0118775Y0140788D01*
X0118817Y0140814D01*
X0118861Y0140836D01*
X0118906Y0140854D01*
X0118953Y0140869D01*
X0119000Y0140880D01*
X0119049Y0140887D01*
X0119098Y0140890D01*
X0119147Y0140889D01*
X0119195Y0140884D01*
X0119244Y0140875D01*
X0119291Y0140862D01*
X0119337Y0140845D01*
X0119381Y0140825D01*
X0119424Y0140801D01*
X0119465Y0140774D01*
X0119503Y0140743D01*
X0119539Y0140710D01*
X0119571Y0140674D01*
X0119601Y0140635D01*
X0119628Y0140594D01*
X0119651Y0140550D01*
X0119670Y0140505D01*
X0119686Y0140459D01*
X0119698Y0140412D01*
X0119706Y0140363D01*
X0119710Y0140314D01*
X0119710Y0140266D01*
X0119706Y0140217D01*
X0119698Y0140168D01*
X0119686Y0140121D01*
X0119670Y0140075D01*
X0119651Y0140030D01*
X0119628Y0139986D01*
X0119601Y0139945D01*
X0119571Y0139906D01*
X0119539Y0139870D01*
X0119503Y0139837D01*
X0119465Y0139806D01*
X0119424Y0139779D01*
X0119381Y0139755D01*
X0119337Y0139735D01*
X0119291Y0139718D01*
X0119244Y0139705D01*
X0119195Y0139696D01*
X0119147Y0139691D01*
X0119098Y0139690D01*
X0119049Y0139693D01*
X0119000Y0139700D01*
X0118953Y0139711D01*
X0118906Y0139726D01*
X0118861Y0139744D01*
X0118817Y0139766D01*
X0118775Y0139792D01*
X0118736Y0139821D01*
X0118699Y0139853D01*
X0118665Y0139888D01*
X0118633Y0139926D01*
X0118605Y0139966D01*
X0118580Y0140008D01*
X0118559Y0140052D01*
X0118542Y0140098D01*
X0118528Y0140145D01*
X0118518Y0140193D01*
X0118512Y0140241D01*
X0118510Y0140290D01*
X0118215Y0137436D02*
X0118217Y0137485D01*
X0118223Y0137533D01*
X0118233Y0137581D01*
X0118247Y0137628D01*
X0118264Y0137674D01*
X0118285Y0137718D01*
X0118310Y0137760D01*
X0118338Y0137800D01*
X0118370Y0137838D01*
X0118404Y0137873D01*
X0118441Y0137905D01*
X0118480Y0137934D01*
X0118522Y0137960D01*
X0118566Y0137982D01*
X0118611Y0138000D01*
X0118658Y0138015D01*
X0118705Y0138026D01*
X0118754Y0138033D01*
X0118803Y0138036D01*
X0118852Y0138035D01*
X0118900Y0138030D01*
X0118949Y0138021D01*
X0118996Y0138008D01*
X0119042Y0137991D01*
X0119086Y0137971D01*
X0119129Y0137947D01*
X0119170Y0137920D01*
X0119208Y0137889D01*
X0119244Y0137856D01*
X0119276Y0137820D01*
X0119306Y0137781D01*
X0119333Y0137740D01*
X0119356Y0137696D01*
X0119375Y0137651D01*
X0119391Y0137605D01*
X0119403Y0137558D01*
X0119411Y0137509D01*
X0119415Y0137460D01*
X0119415Y0137412D01*
X0119411Y0137363D01*
X0119403Y0137314D01*
X0119391Y0137267D01*
X0119375Y0137221D01*
X0119356Y0137176D01*
X0119333Y0137132D01*
X0119306Y0137091D01*
X0119276Y0137052D01*
X0119244Y0137016D01*
X0119208Y0136983D01*
X0119170Y0136952D01*
X0119129Y0136925D01*
X0119086Y0136901D01*
X0119042Y0136881D01*
X0118996Y0136864D01*
X0118949Y0136851D01*
X0118900Y0136842D01*
X0118852Y0136837D01*
X0118803Y0136836D01*
X0118754Y0136839D01*
X0118705Y0136846D01*
X0118658Y0136857D01*
X0118611Y0136872D01*
X0118566Y0136890D01*
X0118522Y0136912D01*
X0118480Y0136938D01*
X0118441Y0136967D01*
X0118404Y0136999D01*
X0118370Y0137034D01*
X0118338Y0137072D01*
X0118310Y0137112D01*
X0118285Y0137154D01*
X0118264Y0137198D01*
X0118247Y0137244D01*
X0118233Y0137291D01*
X0118223Y0137339D01*
X0118217Y0137387D01*
X0118215Y0137436D01*
X0117428Y0134877D02*
X0117430Y0134926D01*
X0117436Y0134974D01*
X0117446Y0135022D01*
X0117460Y0135069D01*
X0117477Y0135115D01*
X0117498Y0135159D01*
X0117523Y0135201D01*
X0117551Y0135241D01*
X0117583Y0135279D01*
X0117617Y0135314D01*
X0117654Y0135346D01*
X0117693Y0135375D01*
X0117735Y0135401D01*
X0117779Y0135423D01*
X0117824Y0135441D01*
X0117871Y0135456D01*
X0117918Y0135467D01*
X0117967Y0135474D01*
X0118016Y0135477D01*
X0118065Y0135476D01*
X0118113Y0135471D01*
X0118162Y0135462D01*
X0118209Y0135449D01*
X0118255Y0135432D01*
X0118299Y0135412D01*
X0118342Y0135388D01*
X0118383Y0135361D01*
X0118421Y0135330D01*
X0118457Y0135297D01*
X0118489Y0135261D01*
X0118519Y0135222D01*
X0118546Y0135181D01*
X0118569Y0135137D01*
X0118588Y0135092D01*
X0118604Y0135046D01*
X0118616Y0134999D01*
X0118624Y0134950D01*
X0118628Y0134901D01*
X0118628Y0134853D01*
X0118624Y0134804D01*
X0118616Y0134755D01*
X0118604Y0134708D01*
X0118588Y0134662D01*
X0118569Y0134617D01*
X0118546Y0134573D01*
X0118519Y0134532D01*
X0118489Y0134493D01*
X0118457Y0134457D01*
X0118421Y0134424D01*
X0118383Y0134393D01*
X0118342Y0134366D01*
X0118299Y0134342D01*
X0118255Y0134322D01*
X0118209Y0134305D01*
X0118162Y0134292D01*
X0118113Y0134283D01*
X0118065Y0134278D01*
X0118016Y0134277D01*
X0117967Y0134280D01*
X0117918Y0134287D01*
X0117871Y0134298D01*
X0117824Y0134313D01*
X0117779Y0134331D01*
X0117735Y0134353D01*
X0117693Y0134379D01*
X0117654Y0134408D01*
X0117617Y0134440D01*
X0117583Y0134475D01*
X0117551Y0134513D01*
X0117523Y0134553D01*
X0117498Y0134595D01*
X0117477Y0134639D01*
X0117460Y0134685D01*
X0117446Y0134732D01*
X0117436Y0134780D01*
X0117430Y0134828D01*
X0117428Y0134877D01*
X0118313Y0157810D02*
X0118315Y0157859D01*
X0118321Y0157907D01*
X0118331Y0157955D01*
X0118345Y0158002D01*
X0118362Y0158048D01*
X0118383Y0158092D01*
X0118408Y0158134D01*
X0118436Y0158174D01*
X0118468Y0158212D01*
X0118502Y0158247D01*
X0118539Y0158279D01*
X0118578Y0158308D01*
X0118620Y0158334D01*
X0118664Y0158356D01*
X0118709Y0158374D01*
X0118756Y0158389D01*
X0118803Y0158400D01*
X0118852Y0158407D01*
X0118901Y0158410D01*
X0118950Y0158409D01*
X0118998Y0158404D01*
X0119047Y0158395D01*
X0119094Y0158382D01*
X0119140Y0158365D01*
X0119184Y0158345D01*
X0119227Y0158321D01*
X0119268Y0158294D01*
X0119306Y0158263D01*
X0119342Y0158230D01*
X0119374Y0158194D01*
X0119404Y0158155D01*
X0119431Y0158114D01*
X0119454Y0158070D01*
X0119473Y0158025D01*
X0119489Y0157979D01*
X0119501Y0157932D01*
X0119509Y0157883D01*
X0119513Y0157834D01*
X0119513Y0157786D01*
X0119509Y0157737D01*
X0119501Y0157688D01*
X0119489Y0157641D01*
X0119473Y0157595D01*
X0119454Y0157550D01*
X0119431Y0157506D01*
X0119404Y0157465D01*
X0119374Y0157426D01*
X0119342Y0157390D01*
X0119306Y0157357D01*
X0119268Y0157326D01*
X0119227Y0157299D01*
X0119184Y0157275D01*
X0119140Y0157255D01*
X0119094Y0157238D01*
X0119047Y0157225D01*
X0118998Y0157216D01*
X0118950Y0157211D01*
X0118901Y0157210D01*
X0118852Y0157213D01*
X0118803Y0157220D01*
X0118756Y0157231D01*
X0118709Y0157246D01*
X0118664Y0157264D01*
X0118620Y0157286D01*
X0118578Y0157312D01*
X0118539Y0157341D01*
X0118502Y0157373D01*
X0118468Y0157408D01*
X0118436Y0157446D01*
X0118408Y0157486D01*
X0118383Y0157528D01*
X0118362Y0157572D01*
X0118345Y0157618D01*
X0118331Y0157665D01*
X0118321Y0157713D01*
X0118315Y0157761D01*
X0118313Y0157810D01*
X0118117Y0160566D02*
X0118119Y0160615D01*
X0118125Y0160663D01*
X0118135Y0160711D01*
X0118149Y0160758D01*
X0118166Y0160804D01*
X0118187Y0160848D01*
X0118212Y0160890D01*
X0118240Y0160930D01*
X0118272Y0160968D01*
X0118306Y0161003D01*
X0118343Y0161035D01*
X0118382Y0161064D01*
X0118424Y0161090D01*
X0118468Y0161112D01*
X0118513Y0161130D01*
X0118560Y0161145D01*
X0118607Y0161156D01*
X0118656Y0161163D01*
X0118705Y0161166D01*
X0118754Y0161165D01*
X0118802Y0161160D01*
X0118851Y0161151D01*
X0118898Y0161138D01*
X0118944Y0161121D01*
X0118988Y0161101D01*
X0119031Y0161077D01*
X0119072Y0161050D01*
X0119110Y0161019D01*
X0119146Y0160986D01*
X0119178Y0160950D01*
X0119208Y0160911D01*
X0119235Y0160870D01*
X0119258Y0160826D01*
X0119277Y0160781D01*
X0119293Y0160735D01*
X0119305Y0160688D01*
X0119313Y0160639D01*
X0119317Y0160590D01*
X0119317Y0160542D01*
X0119313Y0160493D01*
X0119305Y0160444D01*
X0119293Y0160397D01*
X0119277Y0160351D01*
X0119258Y0160306D01*
X0119235Y0160262D01*
X0119208Y0160221D01*
X0119178Y0160182D01*
X0119146Y0160146D01*
X0119110Y0160113D01*
X0119072Y0160082D01*
X0119031Y0160055D01*
X0118988Y0160031D01*
X0118944Y0160011D01*
X0118898Y0159994D01*
X0118851Y0159981D01*
X0118802Y0159972D01*
X0118754Y0159967D01*
X0118705Y0159966D01*
X0118656Y0159969D01*
X0118607Y0159976D01*
X0118560Y0159987D01*
X0118513Y0160002D01*
X0118468Y0160020D01*
X0118424Y0160042D01*
X0118382Y0160068D01*
X0118343Y0160097D01*
X0118306Y0160129D01*
X0118272Y0160164D01*
X0118240Y0160202D01*
X0118212Y0160242D01*
X0118187Y0160284D01*
X0118166Y0160328D01*
X0118149Y0160374D01*
X0118135Y0160421D01*
X0118125Y0160469D01*
X0118119Y0160517D01*
X0118117Y0160566D01*
X0118117Y0162928D02*
X0118119Y0162977D01*
X0118125Y0163025D01*
X0118135Y0163073D01*
X0118149Y0163120D01*
X0118166Y0163166D01*
X0118187Y0163210D01*
X0118212Y0163252D01*
X0118240Y0163292D01*
X0118272Y0163330D01*
X0118306Y0163365D01*
X0118343Y0163397D01*
X0118382Y0163426D01*
X0118424Y0163452D01*
X0118468Y0163474D01*
X0118513Y0163492D01*
X0118560Y0163507D01*
X0118607Y0163518D01*
X0118656Y0163525D01*
X0118705Y0163528D01*
X0118754Y0163527D01*
X0118802Y0163522D01*
X0118851Y0163513D01*
X0118898Y0163500D01*
X0118944Y0163483D01*
X0118988Y0163463D01*
X0119031Y0163439D01*
X0119072Y0163412D01*
X0119110Y0163381D01*
X0119146Y0163348D01*
X0119178Y0163312D01*
X0119208Y0163273D01*
X0119235Y0163232D01*
X0119258Y0163188D01*
X0119277Y0163143D01*
X0119293Y0163097D01*
X0119305Y0163050D01*
X0119313Y0163001D01*
X0119317Y0162952D01*
X0119317Y0162904D01*
X0119313Y0162855D01*
X0119305Y0162806D01*
X0119293Y0162759D01*
X0119277Y0162713D01*
X0119258Y0162668D01*
X0119235Y0162624D01*
X0119208Y0162583D01*
X0119178Y0162544D01*
X0119146Y0162508D01*
X0119110Y0162475D01*
X0119072Y0162444D01*
X0119031Y0162417D01*
X0118988Y0162393D01*
X0118944Y0162373D01*
X0118898Y0162356D01*
X0118851Y0162343D01*
X0118802Y0162334D01*
X0118754Y0162329D01*
X0118705Y0162328D01*
X0118656Y0162331D01*
X0118607Y0162338D01*
X0118560Y0162349D01*
X0118513Y0162364D01*
X0118468Y0162382D01*
X0118424Y0162404D01*
X0118382Y0162430D01*
X0118343Y0162459D01*
X0118306Y0162491D01*
X0118272Y0162526D01*
X0118240Y0162564D01*
X0118212Y0162604D01*
X0118187Y0162646D01*
X0118166Y0162690D01*
X0118149Y0162736D01*
X0118135Y0162783D01*
X0118125Y0162831D01*
X0118119Y0162879D01*
X0118117Y0162928D01*
X0122644Y0160959D02*
X0122646Y0161008D01*
X0122652Y0161056D01*
X0122662Y0161104D01*
X0122676Y0161151D01*
X0122693Y0161197D01*
X0122714Y0161241D01*
X0122739Y0161283D01*
X0122767Y0161323D01*
X0122799Y0161361D01*
X0122833Y0161396D01*
X0122870Y0161428D01*
X0122909Y0161457D01*
X0122951Y0161483D01*
X0122995Y0161505D01*
X0123040Y0161523D01*
X0123087Y0161538D01*
X0123134Y0161549D01*
X0123183Y0161556D01*
X0123232Y0161559D01*
X0123281Y0161558D01*
X0123329Y0161553D01*
X0123378Y0161544D01*
X0123425Y0161531D01*
X0123471Y0161514D01*
X0123515Y0161494D01*
X0123558Y0161470D01*
X0123599Y0161443D01*
X0123637Y0161412D01*
X0123673Y0161379D01*
X0123705Y0161343D01*
X0123735Y0161304D01*
X0123762Y0161263D01*
X0123785Y0161219D01*
X0123804Y0161174D01*
X0123820Y0161128D01*
X0123832Y0161081D01*
X0123840Y0161032D01*
X0123844Y0160983D01*
X0123844Y0160935D01*
X0123840Y0160886D01*
X0123832Y0160837D01*
X0123820Y0160790D01*
X0123804Y0160744D01*
X0123785Y0160699D01*
X0123762Y0160655D01*
X0123735Y0160614D01*
X0123705Y0160575D01*
X0123673Y0160539D01*
X0123637Y0160506D01*
X0123599Y0160475D01*
X0123558Y0160448D01*
X0123515Y0160424D01*
X0123471Y0160404D01*
X0123425Y0160387D01*
X0123378Y0160374D01*
X0123329Y0160365D01*
X0123281Y0160360D01*
X0123232Y0160359D01*
X0123183Y0160362D01*
X0123134Y0160369D01*
X0123087Y0160380D01*
X0123040Y0160395D01*
X0122995Y0160413D01*
X0122951Y0160435D01*
X0122909Y0160461D01*
X0122870Y0160490D01*
X0122833Y0160522D01*
X0122799Y0160557D01*
X0122767Y0160595D01*
X0122739Y0160635D01*
X0122714Y0160677D01*
X0122693Y0160721D01*
X0122676Y0160767D01*
X0122662Y0160814D01*
X0122652Y0160862D01*
X0122646Y0160910D01*
X0122644Y0160959D01*
X0122644Y0158696D02*
X0122646Y0158745D01*
X0122652Y0158793D01*
X0122662Y0158841D01*
X0122676Y0158888D01*
X0122693Y0158934D01*
X0122714Y0158978D01*
X0122739Y0159020D01*
X0122767Y0159060D01*
X0122799Y0159098D01*
X0122833Y0159133D01*
X0122870Y0159165D01*
X0122909Y0159194D01*
X0122951Y0159220D01*
X0122995Y0159242D01*
X0123040Y0159260D01*
X0123087Y0159275D01*
X0123134Y0159286D01*
X0123183Y0159293D01*
X0123232Y0159296D01*
X0123281Y0159295D01*
X0123329Y0159290D01*
X0123378Y0159281D01*
X0123425Y0159268D01*
X0123471Y0159251D01*
X0123515Y0159231D01*
X0123558Y0159207D01*
X0123599Y0159180D01*
X0123637Y0159149D01*
X0123673Y0159116D01*
X0123705Y0159080D01*
X0123735Y0159041D01*
X0123762Y0159000D01*
X0123785Y0158956D01*
X0123804Y0158911D01*
X0123820Y0158865D01*
X0123832Y0158818D01*
X0123840Y0158769D01*
X0123844Y0158720D01*
X0123844Y0158672D01*
X0123840Y0158623D01*
X0123832Y0158574D01*
X0123820Y0158527D01*
X0123804Y0158481D01*
X0123785Y0158436D01*
X0123762Y0158392D01*
X0123735Y0158351D01*
X0123705Y0158312D01*
X0123673Y0158276D01*
X0123637Y0158243D01*
X0123599Y0158212D01*
X0123558Y0158185D01*
X0123515Y0158161D01*
X0123471Y0158141D01*
X0123425Y0158124D01*
X0123378Y0158111D01*
X0123329Y0158102D01*
X0123281Y0158097D01*
X0123232Y0158096D01*
X0123183Y0158099D01*
X0123134Y0158106D01*
X0123087Y0158117D01*
X0123040Y0158132D01*
X0122995Y0158150D01*
X0122951Y0158172D01*
X0122909Y0158198D01*
X0122870Y0158227D01*
X0122833Y0158259D01*
X0122799Y0158294D01*
X0122767Y0158332D01*
X0122739Y0158372D01*
X0122714Y0158414D01*
X0122693Y0158458D01*
X0122676Y0158504D01*
X0122662Y0158551D01*
X0122652Y0158599D01*
X0122646Y0158647D01*
X0122644Y0158696D01*
X0130912Y0161944D02*
X0130914Y0161993D01*
X0130920Y0162041D01*
X0130930Y0162089D01*
X0130944Y0162136D01*
X0130961Y0162182D01*
X0130982Y0162226D01*
X0131007Y0162268D01*
X0131035Y0162308D01*
X0131067Y0162346D01*
X0131101Y0162381D01*
X0131138Y0162413D01*
X0131177Y0162442D01*
X0131219Y0162468D01*
X0131263Y0162490D01*
X0131308Y0162508D01*
X0131355Y0162523D01*
X0131402Y0162534D01*
X0131451Y0162541D01*
X0131500Y0162544D01*
X0131549Y0162543D01*
X0131597Y0162538D01*
X0131646Y0162529D01*
X0131693Y0162516D01*
X0131739Y0162499D01*
X0131783Y0162479D01*
X0131826Y0162455D01*
X0131867Y0162428D01*
X0131905Y0162397D01*
X0131941Y0162364D01*
X0131973Y0162328D01*
X0132003Y0162289D01*
X0132030Y0162248D01*
X0132053Y0162204D01*
X0132072Y0162159D01*
X0132088Y0162113D01*
X0132100Y0162066D01*
X0132108Y0162017D01*
X0132112Y0161968D01*
X0132112Y0161920D01*
X0132108Y0161871D01*
X0132100Y0161822D01*
X0132088Y0161775D01*
X0132072Y0161729D01*
X0132053Y0161684D01*
X0132030Y0161640D01*
X0132003Y0161599D01*
X0131973Y0161560D01*
X0131941Y0161524D01*
X0131905Y0161491D01*
X0131867Y0161460D01*
X0131826Y0161433D01*
X0131783Y0161409D01*
X0131739Y0161389D01*
X0131693Y0161372D01*
X0131646Y0161359D01*
X0131597Y0161350D01*
X0131549Y0161345D01*
X0131500Y0161344D01*
X0131451Y0161347D01*
X0131402Y0161354D01*
X0131355Y0161365D01*
X0131308Y0161380D01*
X0131263Y0161398D01*
X0131219Y0161420D01*
X0131177Y0161446D01*
X0131138Y0161475D01*
X0131101Y0161507D01*
X0131067Y0161542D01*
X0131035Y0161580D01*
X0131007Y0161620D01*
X0130982Y0161662D01*
X0130961Y0161706D01*
X0130944Y0161752D01*
X0130930Y0161799D01*
X0130920Y0161847D01*
X0130914Y0161895D01*
X0130912Y0161944D01*
X0133471Y0162140D02*
X0133473Y0162189D01*
X0133479Y0162237D01*
X0133489Y0162285D01*
X0133503Y0162332D01*
X0133520Y0162378D01*
X0133541Y0162422D01*
X0133566Y0162464D01*
X0133594Y0162504D01*
X0133626Y0162542D01*
X0133660Y0162577D01*
X0133697Y0162609D01*
X0133736Y0162638D01*
X0133778Y0162664D01*
X0133822Y0162686D01*
X0133867Y0162704D01*
X0133914Y0162719D01*
X0133961Y0162730D01*
X0134010Y0162737D01*
X0134059Y0162740D01*
X0134108Y0162739D01*
X0134156Y0162734D01*
X0134205Y0162725D01*
X0134252Y0162712D01*
X0134298Y0162695D01*
X0134342Y0162675D01*
X0134385Y0162651D01*
X0134426Y0162624D01*
X0134464Y0162593D01*
X0134500Y0162560D01*
X0134532Y0162524D01*
X0134562Y0162485D01*
X0134589Y0162444D01*
X0134612Y0162400D01*
X0134631Y0162355D01*
X0134647Y0162309D01*
X0134659Y0162262D01*
X0134667Y0162213D01*
X0134671Y0162164D01*
X0134671Y0162116D01*
X0134667Y0162067D01*
X0134659Y0162018D01*
X0134647Y0161971D01*
X0134631Y0161925D01*
X0134612Y0161880D01*
X0134589Y0161836D01*
X0134562Y0161795D01*
X0134532Y0161756D01*
X0134500Y0161720D01*
X0134464Y0161687D01*
X0134426Y0161656D01*
X0134385Y0161629D01*
X0134342Y0161605D01*
X0134298Y0161585D01*
X0134252Y0161568D01*
X0134205Y0161555D01*
X0134156Y0161546D01*
X0134108Y0161541D01*
X0134059Y0161540D01*
X0134010Y0161543D01*
X0133961Y0161550D01*
X0133914Y0161561D01*
X0133867Y0161576D01*
X0133822Y0161594D01*
X0133778Y0161616D01*
X0133736Y0161642D01*
X0133697Y0161671D01*
X0133660Y0161703D01*
X0133626Y0161738D01*
X0133594Y0161776D01*
X0133566Y0161816D01*
X0133541Y0161858D01*
X0133520Y0161902D01*
X0133503Y0161948D01*
X0133489Y0161995D01*
X0133479Y0162043D01*
X0133473Y0162091D01*
X0133471Y0162140D01*
X0136030Y0161845D02*
X0136032Y0161894D01*
X0136038Y0161942D01*
X0136048Y0161990D01*
X0136062Y0162037D01*
X0136079Y0162083D01*
X0136100Y0162127D01*
X0136125Y0162169D01*
X0136153Y0162209D01*
X0136185Y0162247D01*
X0136219Y0162282D01*
X0136256Y0162314D01*
X0136295Y0162343D01*
X0136337Y0162369D01*
X0136381Y0162391D01*
X0136426Y0162409D01*
X0136473Y0162424D01*
X0136520Y0162435D01*
X0136569Y0162442D01*
X0136618Y0162445D01*
X0136667Y0162444D01*
X0136715Y0162439D01*
X0136764Y0162430D01*
X0136811Y0162417D01*
X0136857Y0162400D01*
X0136901Y0162380D01*
X0136944Y0162356D01*
X0136985Y0162329D01*
X0137023Y0162298D01*
X0137059Y0162265D01*
X0137091Y0162229D01*
X0137121Y0162190D01*
X0137148Y0162149D01*
X0137171Y0162105D01*
X0137190Y0162060D01*
X0137206Y0162014D01*
X0137218Y0161967D01*
X0137226Y0161918D01*
X0137230Y0161869D01*
X0137230Y0161821D01*
X0137226Y0161772D01*
X0137218Y0161723D01*
X0137206Y0161676D01*
X0137190Y0161630D01*
X0137171Y0161585D01*
X0137148Y0161541D01*
X0137121Y0161500D01*
X0137091Y0161461D01*
X0137059Y0161425D01*
X0137023Y0161392D01*
X0136985Y0161361D01*
X0136944Y0161334D01*
X0136901Y0161310D01*
X0136857Y0161290D01*
X0136811Y0161273D01*
X0136764Y0161260D01*
X0136715Y0161251D01*
X0136667Y0161246D01*
X0136618Y0161245D01*
X0136569Y0161248D01*
X0136520Y0161255D01*
X0136473Y0161266D01*
X0136426Y0161281D01*
X0136381Y0161299D01*
X0136337Y0161321D01*
X0136295Y0161347D01*
X0136256Y0161376D01*
X0136219Y0161408D01*
X0136185Y0161443D01*
X0136153Y0161481D01*
X0136125Y0161521D01*
X0136100Y0161563D01*
X0136079Y0161607D01*
X0136062Y0161653D01*
X0136048Y0161700D01*
X0136038Y0161748D01*
X0136032Y0161796D01*
X0136030Y0161845D01*
X0135735Y0171294D02*
X0135737Y0171343D01*
X0135743Y0171391D01*
X0135753Y0171439D01*
X0135767Y0171486D01*
X0135784Y0171532D01*
X0135805Y0171576D01*
X0135830Y0171618D01*
X0135858Y0171658D01*
X0135890Y0171696D01*
X0135924Y0171731D01*
X0135961Y0171763D01*
X0136000Y0171792D01*
X0136042Y0171818D01*
X0136086Y0171840D01*
X0136131Y0171858D01*
X0136178Y0171873D01*
X0136225Y0171884D01*
X0136274Y0171891D01*
X0136323Y0171894D01*
X0136372Y0171893D01*
X0136420Y0171888D01*
X0136469Y0171879D01*
X0136516Y0171866D01*
X0136562Y0171849D01*
X0136606Y0171829D01*
X0136649Y0171805D01*
X0136690Y0171778D01*
X0136728Y0171747D01*
X0136764Y0171714D01*
X0136796Y0171678D01*
X0136826Y0171639D01*
X0136853Y0171598D01*
X0136876Y0171554D01*
X0136895Y0171509D01*
X0136911Y0171463D01*
X0136923Y0171416D01*
X0136931Y0171367D01*
X0136935Y0171318D01*
X0136935Y0171270D01*
X0136931Y0171221D01*
X0136923Y0171172D01*
X0136911Y0171125D01*
X0136895Y0171079D01*
X0136876Y0171034D01*
X0136853Y0170990D01*
X0136826Y0170949D01*
X0136796Y0170910D01*
X0136764Y0170874D01*
X0136728Y0170841D01*
X0136690Y0170810D01*
X0136649Y0170783D01*
X0136606Y0170759D01*
X0136562Y0170739D01*
X0136516Y0170722D01*
X0136469Y0170709D01*
X0136420Y0170700D01*
X0136372Y0170695D01*
X0136323Y0170694D01*
X0136274Y0170697D01*
X0136225Y0170704D01*
X0136178Y0170715D01*
X0136131Y0170730D01*
X0136086Y0170748D01*
X0136042Y0170770D01*
X0136000Y0170796D01*
X0135961Y0170825D01*
X0135924Y0170857D01*
X0135890Y0170892D01*
X0135858Y0170930D01*
X0135830Y0170970D01*
X0135805Y0171012D01*
X0135784Y0171056D01*
X0135767Y0171102D01*
X0135753Y0171149D01*
X0135743Y0171197D01*
X0135737Y0171245D01*
X0135735Y0171294D01*
X0132979Y0171294D02*
X0132981Y0171343D01*
X0132987Y0171391D01*
X0132997Y0171439D01*
X0133011Y0171486D01*
X0133028Y0171532D01*
X0133049Y0171576D01*
X0133074Y0171618D01*
X0133102Y0171658D01*
X0133134Y0171696D01*
X0133168Y0171731D01*
X0133205Y0171763D01*
X0133244Y0171792D01*
X0133286Y0171818D01*
X0133330Y0171840D01*
X0133375Y0171858D01*
X0133422Y0171873D01*
X0133469Y0171884D01*
X0133518Y0171891D01*
X0133567Y0171894D01*
X0133616Y0171893D01*
X0133664Y0171888D01*
X0133713Y0171879D01*
X0133760Y0171866D01*
X0133806Y0171849D01*
X0133850Y0171829D01*
X0133893Y0171805D01*
X0133934Y0171778D01*
X0133972Y0171747D01*
X0134008Y0171714D01*
X0134040Y0171678D01*
X0134070Y0171639D01*
X0134097Y0171598D01*
X0134120Y0171554D01*
X0134139Y0171509D01*
X0134155Y0171463D01*
X0134167Y0171416D01*
X0134175Y0171367D01*
X0134179Y0171318D01*
X0134179Y0171270D01*
X0134175Y0171221D01*
X0134167Y0171172D01*
X0134155Y0171125D01*
X0134139Y0171079D01*
X0134120Y0171034D01*
X0134097Y0170990D01*
X0134070Y0170949D01*
X0134040Y0170910D01*
X0134008Y0170874D01*
X0133972Y0170841D01*
X0133934Y0170810D01*
X0133893Y0170783D01*
X0133850Y0170759D01*
X0133806Y0170739D01*
X0133760Y0170722D01*
X0133713Y0170709D01*
X0133664Y0170700D01*
X0133616Y0170695D01*
X0133567Y0170694D01*
X0133518Y0170697D01*
X0133469Y0170704D01*
X0133422Y0170715D01*
X0133375Y0170730D01*
X0133330Y0170748D01*
X0133286Y0170770D01*
X0133244Y0170796D01*
X0133205Y0170825D01*
X0133168Y0170857D01*
X0133134Y0170892D01*
X0133102Y0170930D01*
X0133074Y0170970D01*
X0133049Y0171012D01*
X0133028Y0171056D01*
X0133011Y0171102D01*
X0132997Y0171149D01*
X0132987Y0171197D01*
X0132981Y0171245D01*
X0132979Y0171294D01*
X0130715Y0171392D02*
X0130717Y0171441D01*
X0130723Y0171489D01*
X0130733Y0171537D01*
X0130747Y0171584D01*
X0130764Y0171630D01*
X0130785Y0171674D01*
X0130810Y0171716D01*
X0130838Y0171756D01*
X0130870Y0171794D01*
X0130904Y0171829D01*
X0130941Y0171861D01*
X0130980Y0171890D01*
X0131022Y0171916D01*
X0131066Y0171938D01*
X0131111Y0171956D01*
X0131158Y0171971D01*
X0131205Y0171982D01*
X0131254Y0171989D01*
X0131303Y0171992D01*
X0131352Y0171991D01*
X0131400Y0171986D01*
X0131449Y0171977D01*
X0131496Y0171964D01*
X0131542Y0171947D01*
X0131586Y0171927D01*
X0131629Y0171903D01*
X0131670Y0171876D01*
X0131708Y0171845D01*
X0131744Y0171812D01*
X0131776Y0171776D01*
X0131806Y0171737D01*
X0131833Y0171696D01*
X0131856Y0171652D01*
X0131875Y0171607D01*
X0131891Y0171561D01*
X0131903Y0171514D01*
X0131911Y0171465D01*
X0131915Y0171416D01*
X0131915Y0171368D01*
X0131911Y0171319D01*
X0131903Y0171270D01*
X0131891Y0171223D01*
X0131875Y0171177D01*
X0131856Y0171132D01*
X0131833Y0171088D01*
X0131806Y0171047D01*
X0131776Y0171008D01*
X0131744Y0170972D01*
X0131708Y0170939D01*
X0131670Y0170908D01*
X0131629Y0170881D01*
X0131586Y0170857D01*
X0131542Y0170837D01*
X0131496Y0170820D01*
X0131449Y0170807D01*
X0131400Y0170798D01*
X0131352Y0170793D01*
X0131303Y0170792D01*
X0131254Y0170795D01*
X0131205Y0170802D01*
X0131158Y0170813D01*
X0131111Y0170828D01*
X0131066Y0170846D01*
X0131022Y0170868D01*
X0130980Y0170894D01*
X0130941Y0170923D01*
X0130904Y0170955D01*
X0130870Y0170990D01*
X0130838Y0171028D01*
X0130810Y0171068D01*
X0130785Y0171110D01*
X0130764Y0171154D01*
X0130747Y0171200D01*
X0130733Y0171247D01*
X0130723Y0171295D01*
X0130717Y0171343D01*
X0130715Y0171392D01*
X0121857Y0172081D02*
X0121859Y0172130D01*
X0121865Y0172178D01*
X0121875Y0172226D01*
X0121889Y0172273D01*
X0121906Y0172319D01*
X0121927Y0172363D01*
X0121952Y0172405D01*
X0121980Y0172445D01*
X0122012Y0172483D01*
X0122046Y0172518D01*
X0122083Y0172550D01*
X0122122Y0172579D01*
X0122164Y0172605D01*
X0122208Y0172627D01*
X0122253Y0172645D01*
X0122300Y0172660D01*
X0122347Y0172671D01*
X0122396Y0172678D01*
X0122445Y0172681D01*
X0122494Y0172680D01*
X0122542Y0172675D01*
X0122591Y0172666D01*
X0122638Y0172653D01*
X0122684Y0172636D01*
X0122728Y0172616D01*
X0122771Y0172592D01*
X0122812Y0172565D01*
X0122850Y0172534D01*
X0122886Y0172501D01*
X0122918Y0172465D01*
X0122948Y0172426D01*
X0122975Y0172385D01*
X0122998Y0172341D01*
X0123017Y0172296D01*
X0123033Y0172250D01*
X0123045Y0172203D01*
X0123053Y0172154D01*
X0123057Y0172105D01*
X0123057Y0172057D01*
X0123053Y0172008D01*
X0123045Y0171959D01*
X0123033Y0171912D01*
X0123017Y0171866D01*
X0122998Y0171821D01*
X0122975Y0171777D01*
X0122948Y0171736D01*
X0122918Y0171697D01*
X0122886Y0171661D01*
X0122850Y0171628D01*
X0122812Y0171597D01*
X0122771Y0171570D01*
X0122728Y0171546D01*
X0122684Y0171526D01*
X0122638Y0171509D01*
X0122591Y0171496D01*
X0122542Y0171487D01*
X0122494Y0171482D01*
X0122445Y0171481D01*
X0122396Y0171484D01*
X0122347Y0171491D01*
X0122300Y0171502D01*
X0122253Y0171517D01*
X0122208Y0171535D01*
X0122164Y0171557D01*
X0122122Y0171583D01*
X0122083Y0171612D01*
X0122046Y0171644D01*
X0122012Y0171679D01*
X0121980Y0171717D01*
X0121952Y0171757D01*
X0121927Y0171799D01*
X0121906Y0171843D01*
X0121889Y0171889D01*
X0121875Y0171936D01*
X0121865Y0171984D01*
X0121859Y0172032D01*
X0121857Y0172081D01*
X0121758Y0174640D02*
X0121760Y0174689D01*
X0121766Y0174737D01*
X0121776Y0174785D01*
X0121790Y0174832D01*
X0121807Y0174878D01*
X0121828Y0174922D01*
X0121853Y0174964D01*
X0121881Y0175004D01*
X0121913Y0175042D01*
X0121947Y0175077D01*
X0121984Y0175109D01*
X0122023Y0175138D01*
X0122065Y0175164D01*
X0122109Y0175186D01*
X0122154Y0175204D01*
X0122201Y0175219D01*
X0122248Y0175230D01*
X0122297Y0175237D01*
X0122346Y0175240D01*
X0122395Y0175239D01*
X0122443Y0175234D01*
X0122492Y0175225D01*
X0122539Y0175212D01*
X0122585Y0175195D01*
X0122629Y0175175D01*
X0122672Y0175151D01*
X0122713Y0175124D01*
X0122751Y0175093D01*
X0122787Y0175060D01*
X0122819Y0175024D01*
X0122849Y0174985D01*
X0122876Y0174944D01*
X0122899Y0174900D01*
X0122918Y0174855D01*
X0122934Y0174809D01*
X0122946Y0174762D01*
X0122954Y0174713D01*
X0122958Y0174664D01*
X0122958Y0174616D01*
X0122954Y0174567D01*
X0122946Y0174518D01*
X0122934Y0174471D01*
X0122918Y0174425D01*
X0122899Y0174380D01*
X0122876Y0174336D01*
X0122849Y0174295D01*
X0122819Y0174256D01*
X0122787Y0174220D01*
X0122751Y0174187D01*
X0122713Y0174156D01*
X0122672Y0174129D01*
X0122629Y0174105D01*
X0122585Y0174085D01*
X0122539Y0174068D01*
X0122492Y0174055D01*
X0122443Y0174046D01*
X0122395Y0174041D01*
X0122346Y0174040D01*
X0122297Y0174043D01*
X0122248Y0174050D01*
X0122201Y0174061D01*
X0122154Y0174076D01*
X0122109Y0174094D01*
X0122065Y0174116D01*
X0122023Y0174142D01*
X0121984Y0174171D01*
X0121947Y0174203D01*
X0121913Y0174238D01*
X0121881Y0174276D01*
X0121853Y0174316D01*
X0121828Y0174358D01*
X0121807Y0174402D01*
X0121790Y0174448D01*
X0121776Y0174495D01*
X0121766Y0174543D01*
X0121760Y0174591D01*
X0121758Y0174640D01*
X0117526Y0173558D02*
X0117528Y0173607D01*
X0117534Y0173655D01*
X0117544Y0173703D01*
X0117558Y0173750D01*
X0117575Y0173796D01*
X0117596Y0173840D01*
X0117621Y0173882D01*
X0117649Y0173922D01*
X0117681Y0173960D01*
X0117715Y0173995D01*
X0117752Y0174027D01*
X0117791Y0174056D01*
X0117833Y0174082D01*
X0117877Y0174104D01*
X0117922Y0174122D01*
X0117969Y0174137D01*
X0118016Y0174148D01*
X0118065Y0174155D01*
X0118114Y0174158D01*
X0118163Y0174157D01*
X0118211Y0174152D01*
X0118260Y0174143D01*
X0118307Y0174130D01*
X0118353Y0174113D01*
X0118397Y0174093D01*
X0118440Y0174069D01*
X0118481Y0174042D01*
X0118519Y0174011D01*
X0118555Y0173978D01*
X0118587Y0173942D01*
X0118617Y0173903D01*
X0118644Y0173862D01*
X0118667Y0173818D01*
X0118686Y0173773D01*
X0118702Y0173727D01*
X0118714Y0173680D01*
X0118722Y0173631D01*
X0118726Y0173582D01*
X0118726Y0173534D01*
X0118722Y0173485D01*
X0118714Y0173436D01*
X0118702Y0173389D01*
X0118686Y0173343D01*
X0118667Y0173298D01*
X0118644Y0173254D01*
X0118617Y0173213D01*
X0118587Y0173174D01*
X0118555Y0173138D01*
X0118519Y0173105D01*
X0118481Y0173074D01*
X0118440Y0173047D01*
X0118397Y0173023D01*
X0118353Y0173003D01*
X0118307Y0172986D01*
X0118260Y0172973D01*
X0118211Y0172964D01*
X0118163Y0172959D01*
X0118114Y0172958D01*
X0118065Y0172961D01*
X0118016Y0172968D01*
X0117969Y0172979D01*
X0117922Y0172994D01*
X0117877Y0173012D01*
X0117833Y0173034D01*
X0117791Y0173060D01*
X0117752Y0173089D01*
X0117715Y0173121D01*
X0117681Y0173156D01*
X0117649Y0173194D01*
X0117621Y0173234D01*
X0117596Y0173276D01*
X0117575Y0173320D01*
X0117558Y0173366D01*
X0117544Y0173413D01*
X0117534Y0173461D01*
X0117528Y0173509D01*
X0117526Y0173558D01*
X0117428Y0176018D02*
X0117430Y0176067D01*
X0117436Y0176115D01*
X0117446Y0176163D01*
X0117460Y0176210D01*
X0117477Y0176256D01*
X0117498Y0176300D01*
X0117523Y0176342D01*
X0117551Y0176382D01*
X0117583Y0176420D01*
X0117617Y0176455D01*
X0117654Y0176487D01*
X0117693Y0176516D01*
X0117735Y0176542D01*
X0117779Y0176564D01*
X0117824Y0176582D01*
X0117871Y0176597D01*
X0117918Y0176608D01*
X0117967Y0176615D01*
X0118016Y0176618D01*
X0118065Y0176617D01*
X0118113Y0176612D01*
X0118162Y0176603D01*
X0118209Y0176590D01*
X0118255Y0176573D01*
X0118299Y0176553D01*
X0118342Y0176529D01*
X0118383Y0176502D01*
X0118421Y0176471D01*
X0118457Y0176438D01*
X0118489Y0176402D01*
X0118519Y0176363D01*
X0118546Y0176322D01*
X0118569Y0176278D01*
X0118588Y0176233D01*
X0118604Y0176187D01*
X0118616Y0176140D01*
X0118624Y0176091D01*
X0118628Y0176042D01*
X0118628Y0175994D01*
X0118624Y0175945D01*
X0118616Y0175896D01*
X0118604Y0175849D01*
X0118588Y0175803D01*
X0118569Y0175758D01*
X0118546Y0175714D01*
X0118519Y0175673D01*
X0118489Y0175634D01*
X0118457Y0175598D01*
X0118421Y0175565D01*
X0118383Y0175534D01*
X0118342Y0175507D01*
X0118299Y0175483D01*
X0118255Y0175463D01*
X0118209Y0175446D01*
X0118162Y0175433D01*
X0118113Y0175424D01*
X0118065Y0175419D01*
X0118016Y0175418D01*
X0117967Y0175421D01*
X0117918Y0175428D01*
X0117871Y0175439D01*
X0117824Y0175454D01*
X0117779Y0175472D01*
X0117735Y0175494D01*
X0117693Y0175520D01*
X0117654Y0175549D01*
X0117617Y0175581D01*
X0117583Y0175616D01*
X0117551Y0175654D01*
X0117523Y0175694D01*
X0117498Y0175736D01*
X0117477Y0175780D01*
X0117460Y0175826D01*
X0117446Y0175873D01*
X0117436Y0175921D01*
X0117430Y0175969D01*
X0117428Y0176018D01*
X0117624Y0170900D02*
X0117626Y0170949D01*
X0117632Y0170997D01*
X0117642Y0171045D01*
X0117656Y0171092D01*
X0117673Y0171138D01*
X0117694Y0171182D01*
X0117719Y0171224D01*
X0117747Y0171264D01*
X0117779Y0171302D01*
X0117813Y0171337D01*
X0117850Y0171369D01*
X0117889Y0171398D01*
X0117931Y0171424D01*
X0117975Y0171446D01*
X0118020Y0171464D01*
X0118067Y0171479D01*
X0118114Y0171490D01*
X0118163Y0171497D01*
X0118212Y0171500D01*
X0118261Y0171499D01*
X0118309Y0171494D01*
X0118358Y0171485D01*
X0118405Y0171472D01*
X0118451Y0171455D01*
X0118495Y0171435D01*
X0118538Y0171411D01*
X0118579Y0171384D01*
X0118617Y0171353D01*
X0118653Y0171320D01*
X0118685Y0171284D01*
X0118715Y0171245D01*
X0118742Y0171204D01*
X0118765Y0171160D01*
X0118784Y0171115D01*
X0118800Y0171069D01*
X0118812Y0171022D01*
X0118820Y0170973D01*
X0118824Y0170924D01*
X0118824Y0170876D01*
X0118820Y0170827D01*
X0118812Y0170778D01*
X0118800Y0170731D01*
X0118784Y0170685D01*
X0118765Y0170640D01*
X0118742Y0170596D01*
X0118715Y0170555D01*
X0118685Y0170516D01*
X0118653Y0170480D01*
X0118617Y0170447D01*
X0118579Y0170416D01*
X0118538Y0170389D01*
X0118495Y0170365D01*
X0118451Y0170345D01*
X0118405Y0170328D01*
X0118358Y0170315D01*
X0118309Y0170306D01*
X0118261Y0170301D01*
X0118212Y0170300D01*
X0118163Y0170303D01*
X0118114Y0170310D01*
X0118067Y0170321D01*
X0118020Y0170336D01*
X0117975Y0170354D01*
X0117931Y0170376D01*
X0117889Y0170402D01*
X0117850Y0170431D01*
X0117813Y0170463D01*
X0117779Y0170498D01*
X0117747Y0170536D01*
X0117719Y0170576D01*
X0117694Y0170618D01*
X0117673Y0170662D01*
X0117656Y0170708D01*
X0117642Y0170755D01*
X0117632Y0170803D01*
X0117626Y0170851D01*
X0117624Y0170900D01*
X0111719Y0191766D02*
X0111721Y0191815D01*
X0111727Y0191863D01*
X0111737Y0191911D01*
X0111751Y0191958D01*
X0111768Y0192004D01*
X0111789Y0192048D01*
X0111814Y0192090D01*
X0111842Y0192130D01*
X0111874Y0192168D01*
X0111908Y0192203D01*
X0111945Y0192235D01*
X0111984Y0192264D01*
X0112026Y0192290D01*
X0112070Y0192312D01*
X0112115Y0192330D01*
X0112162Y0192345D01*
X0112209Y0192356D01*
X0112258Y0192363D01*
X0112307Y0192366D01*
X0112356Y0192365D01*
X0112404Y0192360D01*
X0112453Y0192351D01*
X0112500Y0192338D01*
X0112546Y0192321D01*
X0112590Y0192301D01*
X0112633Y0192277D01*
X0112674Y0192250D01*
X0112712Y0192219D01*
X0112748Y0192186D01*
X0112780Y0192150D01*
X0112810Y0192111D01*
X0112837Y0192070D01*
X0112860Y0192026D01*
X0112879Y0191981D01*
X0112895Y0191935D01*
X0112907Y0191888D01*
X0112915Y0191839D01*
X0112919Y0191790D01*
X0112919Y0191742D01*
X0112915Y0191693D01*
X0112907Y0191644D01*
X0112895Y0191597D01*
X0112879Y0191551D01*
X0112860Y0191506D01*
X0112837Y0191462D01*
X0112810Y0191421D01*
X0112780Y0191382D01*
X0112748Y0191346D01*
X0112712Y0191313D01*
X0112674Y0191282D01*
X0112633Y0191255D01*
X0112590Y0191231D01*
X0112546Y0191211D01*
X0112500Y0191194D01*
X0112453Y0191181D01*
X0112404Y0191172D01*
X0112356Y0191167D01*
X0112307Y0191166D01*
X0112258Y0191169D01*
X0112209Y0191176D01*
X0112162Y0191187D01*
X0112115Y0191202D01*
X0112070Y0191220D01*
X0112026Y0191242D01*
X0111984Y0191268D01*
X0111945Y0191297D01*
X0111908Y0191329D01*
X0111874Y0191364D01*
X0111842Y0191402D01*
X0111814Y0191442D01*
X0111789Y0191484D01*
X0111768Y0191528D01*
X0111751Y0191574D01*
X0111737Y0191621D01*
X0111727Y0191669D01*
X0111721Y0191717D01*
X0111719Y0191766D01*
X0109849Y0193932D02*
X0109851Y0193981D01*
X0109857Y0194029D01*
X0109867Y0194077D01*
X0109881Y0194124D01*
X0109898Y0194170D01*
X0109919Y0194214D01*
X0109944Y0194256D01*
X0109972Y0194296D01*
X0110004Y0194334D01*
X0110038Y0194369D01*
X0110075Y0194401D01*
X0110114Y0194430D01*
X0110156Y0194456D01*
X0110200Y0194478D01*
X0110245Y0194496D01*
X0110292Y0194511D01*
X0110339Y0194522D01*
X0110388Y0194529D01*
X0110437Y0194532D01*
X0110486Y0194531D01*
X0110534Y0194526D01*
X0110583Y0194517D01*
X0110630Y0194504D01*
X0110676Y0194487D01*
X0110720Y0194467D01*
X0110763Y0194443D01*
X0110804Y0194416D01*
X0110842Y0194385D01*
X0110878Y0194352D01*
X0110910Y0194316D01*
X0110940Y0194277D01*
X0110967Y0194236D01*
X0110990Y0194192D01*
X0111009Y0194147D01*
X0111025Y0194101D01*
X0111037Y0194054D01*
X0111045Y0194005D01*
X0111049Y0193956D01*
X0111049Y0193908D01*
X0111045Y0193859D01*
X0111037Y0193810D01*
X0111025Y0193763D01*
X0111009Y0193717D01*
X0110990Y0193672D01*
X0110967Y0193628D01*
X0110940Y0193587D01*
X0110910Y0193548D01*
X0110878Y0193512D01*
X0110842Y0193479D01*
X0110804Y0193448D01*
X0110763Y0193421D01*
X0110720Y0193397D01*
X0110676Y0193377D01*
X0110630Y0193360D01*
X0110583Y0193347D01*
X0110534Y0193338D01*
X0110486Y0193333D01*
X0110437Y0193332D01*
X0110388Y0193335D01*
X0110339Y0193342D01*
X0110292Y0193353D01*
X0110245Y0193368D01*
X0110200Y0193386D01*
X0110156Y0193408D01*
X0110114Y0193434D01*
X0110075Y0193463D01*
X0110038Y0193495D01*
X0110004Y0193530D01*
X0109972Y0193568D01*
X0109944Y0193608D01*
X0109919Y0193650D01*
X0109898Y0193694D01*
X0109881Y0193740D01*
X0109867Y0193787D01*
X0109857Y0193835D01*
X0109851Y0193883D01*
X0109849Y0193932D01*
X0107880Y0195703D02*
X0107882Y0195752D01*
X0107888Y0195800D01*
X0107898Y0195848D01*
X0107912Y0195895D01*
X0107929Y0195941D01*
X0107950Y0195985D01*
X0107975Y0196027D01*
X0108003Y0196067D01*
X0108035Y0196105D01*
X0108069Y0196140D01*
X0108106Y0196172D01*
X0108145Y0196201D01*
X0108187Y0196227D01*
X0108231Y0196249D01*
X0108276Y0196267D01*
X0108323Y0196282D01*
X0108370Y0196293D01*
X0108419Y0196300D01*
X0108468Y0196303D01*
X0108517Y0196302D01*
X0108565Y0196297D01*
X0108614Y0196288D01*
X0108661Y0196275D01*
X0108707Y0196258D01*
X0108751Y0196238D01*
X0108794Y0196214D01*
X0108835Y0196187D01*
X0108873Y0196156D01*
X0108909Y0196123D01*
X0108941Y0196087D01*
X0108971Y0196048D01*
X0108998Y0196007D01*
X0109021Y0195963D01*
X0109040Y0195918D01*
X0109056Y0195872D01*
X0109068Y0195825D01*
X0109076Y0195776D01*
X0109080Y0195727D01*
X0109080Y0195679D01*
X0109076Y0195630D01*
X0109068Y0195581D01*
X0109056Y0195534D01*
X0109040Y0195488D01*
X0109021Y0195443D01*
X0108998Y0195399D01*
X0108971Y0195358D01*
X0108941Y0195319D01*
X0108909Y0195283D01*
X0108873Y0195250D01*
X0108835Y0195219D01*
X0108794Y0195192D01*
X0108751Y0195168D01*
X0108707Y0195148D01*
X0108661Y0195131D01*
X0108614Y0195118D01*
X0108565Y0195109D01*
X0108517Y0195104D01*
X0108468Y0195103D01*
X0108419Y0195106D01*
X0108370Y0195113D01*
X0108323Y0195124D01*
X0108276Y0195139D01*
X0108231Y0195157D01*
X0108187Y0195179D01*
X0108145Y0195205D01*
X0108106Y0195234D01*
X0108069Y0195266D01*
X0108035Y0195301D01*
X0108003Y0195339D01*
X0107975Y0195379D01*
X0107950Y0195421D01*
X0107929Y0195465D01*
X0107912Y0195511D01*
X0107898Y0195558D01*
X0107888Y0195606D01*
X0107882Y0195654D01*
X0107880Y0195703D01*
X0105813Y0197180D02*
X0105815Y0197229D01*
X0105821Y0197277D01*
X0105831Y0197325D01*
X0105845Y0197372D01*
X0105862Y0197418D01*
X0105883Y0197462D01*
X0105908Y0197504D01*
X0105936Y0197544D01*
X0105968Y0197582D01*
X0106002Y0197617D01*
X0106039Y0197649D01*
X0106078Y0197678D01*
X0106120Y0197704D01*
X0106164Y0197726D01*
X0106209Y0197744D01*
X0106256Y0197759D01*
X0106303Y0197770D01*
X0106352Y0197777D01*
X0106401Y0197780D01*
X0106450Y0197779D01*
X0106498Y0197774D01*
X0106547Y0197765D01*
X0106594Y0197752D01*
X0106640Y0197735D01*
X0106684Y0197715D01*
X0106727Y0197691D01*
X0106768Y0197664D01*
X0106806Y0197633D01*
X0106842Y0197600D01*
X0106874Y0197564D01*
X0106904Y0197525D01*
X0106931Y0197484D01*
X0106954Y0197440D01*
X0106973Y0197395D01*
X0106989Y0197349D01*
X0107001Y0197302D01*
X0107009Y0197253D01*
X0107013Y0197204D01*
X0107013Y0197156D01*
X0107009Y0197107D01*
X0107001Y0197058D01*
X0106989Y0197011D01*
X0106973Y0196965D01*
X0106954Y0196920D01*
X0106931Y0196876D01*
X0106904Y0196835D01*
X0106874Y0196796D01*
X0106842Y0196760D01*
X0106806Y0196727D01*
X0106768Y0196696D01*
X0106727Y0196669D01*
X0106684Y0196645D01*
X0106640Y0196625D01*
X0106594Y0196608D01*
X0106547Y0196595D01*
X0106498Y0196586D01*
X0106450Y0196581D01*
X0106401Y0196580D01*
X0106352Y0196583D01*
X0106303Y0196590D01*
X0106256Y0196601D01*
X0106209Y0196616D01*
X0106164Y0196634D01*
X0106120Y0196656D01*
X0106078Y0196682D01*
X0106039Y0196711D01*
X0106002Y0196743D01*
X0105968Y0196778D01*
X0105936Y0196816D01*
X0105908Y0196856D01*
X0105883Y0196898D01*
X0105862Y0196942D01*
X0105845Y0196988D01*
X0105831Y0197035D01*
X0105821Y0197083D01*
X0105815Y0197131D01*
X0105813Y0197180D01*
X0121955Y0197180D02*
X0121957Y0197229D01*
X0121963Y0197277D01*
X0121973Y0197325D01*
X0121987Y0197372D01*
X0122004Y0197418D01*
X0122025Y0197462D01*
X0122050Y0197504D01*
X0122078Y0197544D01*
X0122110Y0197582D01*
X0122144Y0197617D01*
X0122181Y0197649D01*
X0122220Y0197678D01*
X0122262Y0197704D01*
X0122306Y0197726D01*
X0122351Y0197744D01*
X0122398Y0197759D01*
X0122445Y0197770D01*
X0122494Y0197777D01*
X0122543Y0197780D01*
X0122592Y0197779D01*
X0122640Y0197774D01*
X0122689Y0197765D01*
X0122736Y0197752D01*
X0122782Y0197735D01*
X0122826Y0197715D01*
X0122869Y0197691D01*
X0122910Y0197664D01*
X0122948Y0197633D01*
X0122984Y0197600D01*
X0123016Y0197564D01*
X0123046Y0197525D01*
X0123073Y0197484D01*
X0123096Y0197440D01*
X0123115Y0197395D01*
X0123131Y0197349D01*
X0123143Y0197302D01*
X0123151Y0197253D01*
X0123155Y0197204D01*
X0123155Y0197156D01*
X0123151Y0197107D01*
X0123143Y0197058D01*
X0123131Y0197011D01*
X0123115Y0196965D01*
X0123096Y0196920D01*
X0123073Y0196876D01*
X0123046Y0196835D01*
X0123016Y0196796D01*
X0122984Y0196760D01*
X0122948Y0196727D01*
X0122910Y0196696D01*
X0122869Y0196669D01*
X0122826Y0196645D01*
X0122782Y0196625D01*
X0122736Y0196608D01*
X0122689Y0196595D01*
X0122640Y0196586D01*
X0122592Y0196581D01*
X0122543Y0196580D01*
X0122494Y0196583D01*
X0122445Y0196590D01*
X0122398Y0196601D01*
X0122351Y0196616D01*
X0122306Y0196634D01*
X0122262Y0196656D01*
X0122220Y0196682D01*
X0122181Y0196711D01*
X0122144Y0196743D01*
X0122110Y0196778D01*
X0122078Y0196816D01*
X0122050Y0196856D01*
X0122025Y0196898D01*
X0122004Y0196942D01*
X0121987Y0196988D01*
X0121973Y0197035D01*
X0121963Y0197083D01*
X0121957Y0197131D01*
X0121955Y0197180D01*
X0121857Y0194916D02*
X0121859Y0194965D01*
X0121865Y0195013D01*
X0121875Y0195061D01*
X0121889Y0195108D01*
X0121906Y0195154D01*
X0121927Y0195198D01*
X0121952Y0195240D01*
X0121980Y0195280D01*
X0122012Y0195318D01*
X0122046Y0195353D01*
X0122083Y0195385D01*
X0122122Y0195414D01*
X0122164Y0195440D01*
X0122208Y0195462D01*
X0122253Y0195480D01*
X0122300Y0195495D01*
X0122347Y0195506D01*
X0122396Y0195513D01*
X0122445Y0195516D01*
X0122494Y0195515D01*
X0122542Y0195510D01*
X0122591Y0195501D01*
X0122638Y0195488D01*
X0122684Y0195471D01*
X0122728Y0195451D01*
X0122771Y0195427D01*
X0122812Y0195400D01*
X0122850Y0195369D01*
X0122886Y0195336D01*
X0122918Y0195300D01*
X0122948Y0195261D01*
X0122975Y0195220D01*
X0122998Y0195176D01*
X0123017Y0195131D01*
X0123033Y0195085D01*
X0123045Y0195038D01*
X0123053Y0194989D01*
X0123057Y0194940D01*
X0123057Y0194892D01*
X0123053Y0194843D01*
X0123045Y0194794D01*
X0123033Y0194747D01*
X0123017Y0194701D01*
X0122998Y0194656D01*
X0122975Y0194612D01*
X0122948Y0194571D01*
X0122918Y0194532D01*
X0122886Y0194496D01*
X0122850Y0194463D01*
X0122812Y0194432D01*
X0122771Y0194405D01*
X0122728Y0194381D01*
X0122684Y0194361D01*
X0122638Y0194344D01*
X0122591Y0194331D01*
X0122542Y0194322D01*
X0122494Y0194317D01*
X0122445Y0194316D01*
X0122396Y0194319D01*
X0122347Y0194326D01*
X0122300Y0194337D01*
X0122253Y0194352D01*
X0122208Y0194370D01*
X0122164Y0194392D01*
X0122122Y0194418D01*
X0122083Y0194447D01*
X0122046Y0194479D01*
X0122012Y0194514D01*
X0121980Y0194552D01*
X0121952Y0194592D01*
X0121927Y0194634D01*
X0121906Y0194678D01*
X0121889Y0194724D01*
X0121875Y0194771D01*
X0121865Y0194819D01*
X0121859Y0194867D01*
X0121857Y0194916D01*
X0151975Y0161451D02*
X0151977Y0161500D01*
X0151983Y0161548D01*
X0151993Y0161596D01*
X0152007Y0161643D01*
X0152024Y0161689D01*
X0152045Y0161733D01*
X0152070Y0161775D01*
X0152098Y0161815D01*
X0152130Y0161853D01*
X0152164Y0161888D01*
X0152201Y0161920D01*
X0152240Y0161949D01*
X0152282Y0161975D01*
X0152326Y0161997D01*
X0152371Y0162015D01*
X0152418Y0162030D01*
X0152465Y0162041D01*
X0152514Y0162048D01*
X0152563Y0162051D01*
X0152612Y0162050D01*
X0152660Y0162045D01*
X0152709Y0162036D01*
X0152756Y0162023D01*
X0152802Y0162006D01*
X0152846Y0161986D01*
X0152889Y0161962D01*
X0152930Y0161935D01*
X0152968Y0161904D01*
X0153004Y0161871D01*
X0153036Y0161835D01*
X0153066Y0161796D01*
X0153093Y0161755D01*
X0153116Y0161711D01*
X0153135Y0161666D01*
X0153151Y0161620D01*
X0153163Y0161573D01*
X0153171Y0161524D01*
X0153175Y0161475D01*
X0153175Y0161427D01*
X0153171Y0161378D01*
X0153163Y0161329D01*
X0153151Y0161282D01*
X0153135Y0161236D01*
X0153116Y0161191D01*
X0153093Y0161147D01*
X0153066Y0161106D01*
X0153036Y0161067D01*
X0153004Y0161031D01*
X0152968Y0160998D01*
X0152930Y0160967D01*
X0152889Y0160940D01*
X0152846Y0160916D01*
X0152802Y0160896D01*
X0152756Y0160879D01*
X0152709Y0160866D01*
X0152660Y0160857D01*
X0152612Y0160852D01*
X0152563Y0160851D01*
X0152514Y0160854D01*
X0152465Y0160861D01*
X0152418Y0160872D01*
X0152371Y0160887D01*
X0152326Y0160905D01*
X0152282Y0160927D01*
X0152240Y0160953D01*
X0152201Y0160982D01*
X0152164Y0161014D01*
X0152130Y0161049D01*
X0152098Y0161087D01*
X0152070Y0161127D01*
X0152045Y0161169D01*
X0152024Y0161213D01*
X0152007Y0161259D01*
X0151993Y0161306D01*
X0151983Y0161354D01*
X0151977Y0161402D01*
X0151975Y0161451D01*
X0154632Y0161156D02*
X0154634Y0161205D01*
X0154640Y0161253D01*
X0154650Y0161301D01*
X0154664Y0161348D01*
X0154681Y0161394D01*
X0154702Y0161438D01*
X0154727Y0161480D01*
X0154755Y0161520D01*
X0154787Y0161558D01*
X0154821Y0161593D01*
X0154858Y0161625D01*
X0154897Y0161654D01*
X0154939Y0161680D01*
X0154983Y0161702D01*
X0155028Y0161720D01*
X0155075Y0161735D01*
X0155122Y0161746D01*
X0155171Y0161753D01*
X0155220Y0161756D01*
X0155269Y0161755D01*
X0155317Y0161750D01*
X0155366Y0161741D01*
X0155413Y0161728D01*
X0155459Y0161711D01*
X0155503Y0161691D01*
X0155546Y0161667D01*
X0155587Y0161640D01*
X0155625Y0161609D01*
X0155661Y0161576D01*
X0155693Y0161540D01*
X0155723Y0161501D01*
X0155750Y0161460D01*
X0155773Y0161416D01*
X0155792Y0161371D01*
X0155808Y0161325D01*
X0155820Y0161278D01*
X0155828Y0161229D01*
X0155832Y0161180D01*
X0155832Y0161132D01*
X0155828Y0161083D01*
X0155820Y0161034D01*
X0155808Y0160987D01*
X0155792Y0160941D01*
X0155773Y0160896D01*
X0155750Y0160852D01*
X0155723Y0160811D01*
X0155693Y0160772D01*
X0155661Y0160736D01*
X0155625Y0160703D01*
X0155587Y0160672D01*
X0155546Y0160645D01*
X0155503Y0160621D01*
X0155459Y0160601D01*
X0155413Y0160584D01*
X0155366Y0160571D01*
X0155317Y0160562D01*
X0155269Y0160557D01*
X0155220Y0160556D01*
X0155171Y0160559D01*
X0155122Y0160566D01*
X0155075Y0160577D01*
X0155028Y0160592D01*
X0154983Y0160610D01*
X0154939Y0160632D01*
X0154897Y0160658D01*
X0154858Y0160687D01*
X0154821Y0160719D01*
X0154787Y0160754D01*
X0154755Y0160792D01*
X0154727Y0160832D01*
X0154702Y0160874D01*
X0154681Y0160918D01*
X0154664Y0160964D01*
X0154650Y0161011D01*
X0154640Y0161059D01*
X0154634Y0161107D01*
X0154632Y0161156D01*
X0149514Y0156530D02*
X0149516Y0156579D01*
X0149522Y0156627D01*
X0149532Y0156675D01*
X0149546Y0156722D01*
X0149563Y0156768D01*
X0149584Y0156812D01*
X0149609Y0156854D01*
X0149637Y0156894D01*
X0149669Y0156932D01*
X0149703Y0156967D01*
X0149740Y0156999D01*
X0149779Y0157028D01*
X0149821Y0157054D01*
X0149865Y0157076D01*
X0149910Y0157094D01*
X0149957Y0157109D01*
X0150004Y0157120D01*
X0150053Y0157127D01*
X0150102Y0157130D01*
X0150151Y0157129D01*
X0150199Y0157124D01*
X0150248Y0157115D01*
X0150295Y0157102D01*
X0150341Y0157085D01*
X0150385Y0157065D01*
X0150428Y0157041D01*
X0150469Y0157014D01*
X0150507Y0156983D01*
X0150543Y0156950D01*
X0150575Y0156914D01*
X0150605Y0156875D01*
X0150632Y0156834D01*
X0150655Y0156790D01*
X0150674Y0156745D01*
X0150690Y0156699D01*
X0150702Y0156652D01*
X0150710Y0156603D01*
X0150714Y0156554D01*
X0150714Y0156506D01*
X0150710Y0156457D01*
X0150702Y0156408D01*
X0150690Y0156361D01*
X0150674Y0156315D01*
X0150655Y0156270D01*
X0150632Y0156226D01*
X0150605Y0156185D01*
X0150575Y0156146D01*
X0150543Y0156110D01*
X0150507Y0156077D01*
X0150469Y0156046D01*
X0150428Y0156019D01*
X0150385Y0155995D01*
X0150341Y0155975D01*
X0150295Y0155958D01*
X0150248Y0155945D01*
X0150199Y0155936D01*
X0150151Y0155931D01*
X0150102Y0155930D01*
X0150053Y0155933D01*
X0150004Y0155940D01*
X0149957Y0155951D01*
X0149910Y0155966D01*
X0149865Y0155984D01*
X0149821Y0156006D01*
X0149779Y0156032D01*
X0149740Y0156061D01*
X0149703Y0156093D01*
X0149669Y0156128D01*
X0149637Y0156166D01*
X0149609Y0156206D01*
X0149584Y0156248D01*
X0149563Y0156292D01*
X0149546Y0156338D01*
X0149532Y0156385D01*
X0149522Y0156433D01*
X0149516Y0156481D01*
X0149514Y0156530D01*
X0151483Y0155054D02*
X0151485Y0155103D01*
X0151491Y0155151D01*
X0151501Y0155199D01*
X0151515Y0155246D01*
X0151532Y0155292D01*
X0151553Y0155336D01*
X0151578Y0155378D01*
X0151606Y0155418D01*
X0151638Y0155456D01*
X0151672Y0155491D01*
X0151709Y0155523D01*
X0151748Y0155552D01*
X0151790Y0155578D01*
X0151834Y0155600D01*
X0151879Y0155618D01*
X0151926Y0155633D01*
X0151973Y0155644D01*
X0152022Y0155651D01*
X0152071Y0155654D01*
X0152120Y0155653D01*
X0152168Y0155648D01*
X0152217Y0155639D01*
X0152264Y0155626D01*
X0152310Y0155609D01*
X0152354Y0155589D01*
X0152397Y0155565D01*
X0152438Y0155538D01*
X0152476Y0155507D01*
X0152512Y0155474D01*
X0152544Y0155438D01*
X0152574Y0155399D01*
X0152601Y0155358D01*
X0152624Y0155314D01*
X0152643Y0155269D01*
X0152659Y0155223D01*
X0152671Y0155176D01*
X0152679Y0155127D01*
X0152683Y0155078D01*
X0152683Y0155030D01*
X0152679Y0154981D01*
X0152671Y0154932D01*
X0152659Y0154885D01*
X0152643Y0154839D01*
X0152624Y0154794D01*
X0152601Y0154750D01*
X0152574Y0154709D01*
X0152544Y0154670D01*
X0152512Y0154634D01*
X0152476Y0154601D01*
X0152438Y0154570D01*
X0152397Y0154543D01*
X0152354Y0154519D01*
X0152310Y0154499D01*
X0152264Y0154482D01*
X0152217Y0154469D01*
X0152168Y0154460D01*
X0152120Y0154455D01*
X0152071Y0154454D01*
X0152022Y0154457D01*
X0151973Y0154464D01*
X0151926Y0154475D01*
X0151879Y0154490D01*
X0151834Y0154508D01*
X0151790Y0154530D01*
X0151748Y0154556D01*
X0151709Y0154585D01*
X0151672Y0154617D01*
X0151638Y0154652D01*
X0151606Y0154690D01*
X0151578Y0154730D01*
X0151553Y0154772D01*
X0151532Y0154816D01*
X0151515Y0154862D01*
X0151501Y0154909D01*
X0151491Y0154957D01*
X0151485Y0155005D01*
X0151483Y0155054D01*
X0153353Y0153085D02*
X0153355Y0153134D01*
X0153361Y0153182D01*
X0153371Y0153230D01*
X0153385Y0153277D01*
X0153402Y0153323D01*
X0153423Y0153367D01*
X0153448Y0153409D01*
X0153476Y0153449D01*
X0153508Y0153487D01*
X0153542Y0153522D01*
X0153579Y0153554D01*
X0153618Y0153583D01*
X0153660Y0153609D01*
X0153704Y0153631D01*
X0153749Y0153649D01*
X0153796Y0153664D01*
X0153843Y0153675D01*
X0153892Y0153682D01*
X0153941Y0153685D01*
X0153990Y0153684D01*
X0154038Y0153679D01*
X0154087Y0153670D01*
X0154134Y0153657D01*
X0154180Y0153640D01*
X0154224Y0153620D01*
X0154267Y0153596D01*
X0154308Y0153569D01*
X0154346Y0153538D01*
X0154382Y0153505D01*
X0154414Y0153469D01*
X0154444Y0153430D01*
X0154471Y0153389D01*
X0154494Y0153345D01*
X0154513Y0153300D01*
X0154529Y0153254D01*
X0154541Y0153207D01*
X0154549Y0153158D01*
X0154553Y0153109D01*
X0154553Y0153061D01*
X0154549Y0153012D01*
X0154541Y0152963D01*
X0154529Y0152916D01*
X0154513Y0152870D01*
X0154494Y0152825D01*
X0154471Y0152781D01*
X0154444Y0152740D01*
X0154414Y0152701D01*
X0154382Y0152665D01*
X0154346Y0152632D01*
X0154308Y0152601D01*
X0154267Y0152574D01*
X0154224Y0152550D01*
X0154180Y0152530D01*
X0154134Y0152513D01*
X0154087Y0152500D01*
X0154038Y0152491D01*
X0153990Y0152486D01*
X0153941Y0152485D01*
X0153892Y0152488D01*
X0153843Y0152495D01*
X0153796Y0152506D01*
X0153749Y0152521D01*
X0153704Y0152539D01*
X0153660Y0152561D01*
X0153618Y0152587D01*
X0153579Y0152616D01*
X0153542Y0152648D01*
X0153508Y0152683D01*
X0153476Y0152721D01*
X0153448Y0152761D01*
X0153423Y0152803D01*
X0153402Y0152847D01*
X0153385Y0152893D01*
X0153371Y0152940D01*
X0153361Y0152988D01*
X0153355Y0153036D01*
X0153353Y0153085D01*
X0127959Y0078085D02*
X0127961Y0078134D01*
X0127967Y0078182D01*
X0127977Y0078230D01*
X0127991Y0078277D01*
X0128008Y0078323D01*
X0128029Y0078367D01*
X0128054Y0078409D01*
X0128082Y0078449D01*
X0128114Y0078487D01*
X0128148Y0078522D01*
X0128185Y0078554D01*
X0128224Y0078583D01*
X0128266Y0078609D01*
X0128310Y0078631D01*
X0128355Y0078649D01*
X0128402Y0078664D01*
X0128449Y0078675D01*
X0128498Y0078682D01*
X0128547Y0078685D01*
X0128596Y0078684D01*
X0128644Y0078679D01*
X0128693Y0078670D01*
X0128740Y0078657D01*
X0128786Y0078640D01*
X0128830Y0078620D01*
X0128873Y0078596D01*
X0128914Y0078569D01*
X0128952Y0078538D01*
X0128988Y0078505D01*
X0129020Y0078469D01*
X0129050Y0078430D01*
X0129077Y0078389D01*
X0129100Y0078345D01*
X0129119Y0078300D01*
X0129135Y0078254D01*
X0129147Y0078207D01*
X0129155Y0078158D01*
X0129159Y0078109D01*
X0129159Y0078061D01*
X0129155Y0078012D01*
X0129147Y0077963D01*
X0129135Y0077916D01*
X0129119Y0077870D01*
X0129100Y0077825D01*
X0129077Y0077781D01*
X0129050Y0077740D01*
X0129020Y0077701D01*
X0128988Y0077665D01*
X0128952Y0077632D01*
X0128914Y0077601D01*
X0128873Y0077574D01*
X0128830Y0077550D01*
X0128786Y0077530D01*
X0128740Y0077513D01*
X0128693Y0077500D01*
X0128644Y0077491D01*
X0128596Y0077486D01*
X0128547Y0077485D01*
X0128498Y0077488D01*
X0128449Y0077495D01*
X0128402Y0077506D01*
X0128355Y0077521D01*
X0128310Y0077539D01*
X0128266Y0077561D01*
X0128224Y0077587D01*
X0128185Y0077616D01*
X0128148Y0077648D01*
X0128114Y0077683D01*
X0128082Y0077721D01*
X0128054Y0077761D01*
X0128029Y0077803D01*
X0128008Y0077847D01*
X0127991Y0077893D01*
X0127977Y0077940D01*
X0127967Y0077988D01*
X0127961Y0078036D01*
X0127959Y0078085D01*
X0127959Y0075034D02*
X0127961Y0075083D01*
X0127967Y0075131D01*
X0127977Y0075179D01*
X0127991Y0075226D01*
X0128008Y0075272D01*
X0128029Y0075316D01*
X0128054Y0075358D01*
X0128082Y0075398D01*
X0128114Y0075436D01*
X0128148Y0075471D01*
X0128185Y0075503D01*
X0128224Y0075532D01*
X0128266Y0075558D01*
X0128310Y0075580D01*
X0128355Y0075598D01*
X0128402Y0075613D01*
X0128449Y0075624D01*
X0128498Y0075631D01*
X0128547Y0075634D01*
X0128596Y0075633D01*
X0128644Y0075628D01*
X0128693Y0075619D01*
X0128740Y0075606D01*
X0128786Y0075589D01*
X0128830Y0075569D01*
X0128873Y0075545D01*
X0128914Y0075518D01*
X0128952Y0075487D01*
X0128988Y0075454D01*
X0129020Y0075418D01*
X0129050Y0075379D01*
X0129077Y0075338D01*
X0129100Y0075294D01*
X0129119Y0075249D01*
X0129135Y0075203D01*
X0129147Y0075156D01*
X0129155Y0075107D01*
X0129159Y0075058D01*
X0129159Y0075010D01*
X0129155Y0074961D01*
X0129147Y0074912D01*
X0129135Y0074865D01*
X0129119Y0074819D01*
X0129100Y0074774D01*
X0129077Y0074730D01*
X0129050Y0074689D01*
X0129020Y0074650D01*
X0128988Y0074614D01*
X0128952Y0074581D01*
X0128914Y0074550D01*
X0128873Y0074523D01*
X0128830Y0074499D01*
X0128786Y0074479D01*
X0128740Y0074462D01*
X0128693Y0074449D01*
X0128644Y0074440D01*
X0128596Y0074435D01*
X0128547Y0074434D01*
X0128498Y0074437D01*
X0128449Y0074444D01*
X0128402Y0074455D01*
X0128355Y0074470D01*
X0128310Y0074488D01*
X0128266Y0074510D01*
X0128224Y0074536D01*
X0128185Y0074565D01*
X0128148Y0074597D01*
X0128114Y0074632D01*
X0128082Y0074670D01*
X0128054Y0074710D01*
X0128029Y0074752D01*
X0128008Y0074796D01*
X0127991Y0074842D01*
X0127977Y0074889D01*
X0127967Y0074937D01*
X0127961Y0074985D01*
X0127959Y0075034D01*
X0127959Y0072475D02*
X0127961Y0072524D01*
X0127967Y0072572D01*
X0127977Y0072620D01*
X0127991Y0072667D01*
X0128008Y0072713D01*
X0128029Y0072757D01*
X0128054Y0072799D01*
X0128082Y0072839D01*
X0128114Y0072877D01*
X0128148Y0072912D01*
X0128185Y0072944D01*
X0128224Y0072973D01*
X0128266Y0072999D01*
X0128310Y0073021D01*
X0128355Y0073039D01*
X0128402Y0073054D01*
X0128449Y0073065D01*
X0128498Y0073072D01*
X0128547Y0073075D01*
X0128596Y0073074D01*
X0128644Y0073069D01*
X0128693Y0073060D01*
X0128740Y0073047D01*
X0128786Y0073030D01*
X0128830Y0073010D01*
X0128873Y0072986D01*
X0128914Y0072959D01*
X0128952Y0072928D01*
X0128988Y0072895D01*
X0129020Y0072859D01*
X0129050Y0072820D01*
X0129077Y0072779D01*
X0129100Y0072735D01*
X0129119Y0072690D01*
X0129135Y0072644D01*
X0129147Y0072597D01*
X0129155Y0072548D01*
X0129159Y0072499D01*
X0129159Y0072451D01*
X0129155Y0072402D01*
X0129147Y0072353D01*
X0129135Y0072306D01*
X0129119Y0072260D01*
X0129100Y0072215D01*
X0129077Y0072171D01*
X0129050Y0072130D01*
X0129020Y0072091D01*
X0128988Y0072055D01*
X0128952Y0072022D01*
X0128914Y0071991D01*
X0128873Y0071964D01*
X0128830Y0071940D01*
X0128786Y0071920D01*
X0128740Y0071903D01*
X0128693Y0071890D01*
X0128644Y0071881D01*
X0128596Y0071876D01*
X0128547Y0071875D01*
X0128498Y0071878D01*
X0128449Y0071885D01*
X0128402Y0071896D01*
X0128355Y0071911D01*
X0128310Y0071929D01*
X0128266Y0071951D01*
X0128224Y0071977D01*
X0128185Y0072006D01*
X0128148Y0072038D01*
X0128114Y0072073D01*
X0128082Y0072111D01*
X0128054Y0072151D01*
X0128029Y0072193D01*
X0128008Y0072237D01*
X0127991Y0072283D01*
X0127977Y0072330D01*
X0127967Y0072378D01*
X0127961Y0072426D01*
X0127959Y0072475D01*
X0127959Y0069325D02*
X0127961Y0069374D01*
X0127967Y0069422D01*
X0127977Y0069470D01*
X0127991Y0069517D01*
X0128008Y0069563D01*
X0128029Y0069607D01*
X0128054Y0069649D01*
X0128082Y0069689D01*
X0128114Y0069727D01*
X0128148Y0069762D01*
X0128185Y0069794D01*
X0128224Y0069823D01*
X0128266Y0069849D01*
X0128310Y0069871D01*
X0128355Y0069889D01*
X0128402Y0069904D01*
X0128449Y0069915D01*
X0128498Y0069922D01*
X0128547Y0069925D01*
X0128596Y0069924D01*
X0128644Y0069919D01*
X0128693Y0069910D01*
X0128740Y0069897D01*
X0128786Y0069880D01*
X0128830Y0069860D01*
X0128873Y0069836D01*
X0128914Y0069809D01*
X0128952Y0069778D01*
X0128988Y0069745D01*
X0129020Y0069709D01*
X0129050Y0069670D01*
X0129077Y0069629D01*
X0129100Y0069585D01*
X0129119Y0069540D01*
X0129135Y0069494D01*
X0129147Y0069447D01*
X0129155Y0069398D01*
X0129159Y0069349D01*
X0129159Y0069301D01*
X0129155Y0069252D01*
X0129147Y0069203D01*
X0129135Y0069156D01*
X0129119Y0069110D01*
X0129100Y0069065D01*
X0129077Y0069021D01*
X0129050Y0068980D01*
X0129020Y0068941D01*
X0128988Y0068905D01*
X0128952Y0068872D01*
X0128914Y0068841D01*
X0128873Y0068814D01*
X0128830Y0068790D01*
X0128786Y0068770D01*
X0128740Y0068753D01*
X0128693Y0068740D01*
X0128644Y0068731D01*
X0128596Y0068726D01*
X0128547Y0068725D01*
X0128498Y0068728D01*
X0128449Y0068735D01*
X0128402Y0068746D01*
X0128355Y0068761D01*
X0128310Y0068779D01*
X0128266Y0068801D01*
X0128224Y0068827D01*
X0128185Y0068856D01*
X0128148Y0068888D01*
X0128114Y0068923D01*
X0128082Y0068961D01*
X0128054Y0069001D01*
X0128029Y0069043D01*
X0128008Y0069087D01*
X0127991Y0069133D01*
X0127977Y0069180D01*
X0127967Y0069228D01*
X0127961Y0069276D01*
X0127959Y0069325D01*
X0117132Y0069916D02*
X0117134Y0069965D01*
X0117140Y0070013D01*
X0117150Y0070061D01*
X0117164Y0070108D01*
X0117181Y0070154D01*
X0117202Y0070198D01*
X0117227Y0070240D01*
X0117255Y0070280D01*
X0117287Y0070318D01*
X0117321Y0070353D01*
X0117358Y0070385D01*
X0117397Y0070414D01*
X0117439Y0070440D01*
X0117483Y0070462D01*
X0117528Y0070480D01*
X0117575Y0070495D01*
X0117622Y0070506D01*
X0117671Y0070513D01*
X0117720Y0070516D01*
X0117769Y0070515D01*
X0117817Y0070510D01*
X0117866Y0070501D01*
X0117913Y0070488D01*
X0117959Y0070471D01*
X0118003Y0070451D01*
X0118046Y0070427D01*
X0118087Y0070400D01*
X0118125Y0070369D01*
X0118161Y0070336D01*
X0118193Y0070300D01*
X0118223Y0070261D01*
X0118250Y0070220D01*
X0118273Y0070176D01*
X0118292Y0070131D01*
X0118308Y0070085D01*
X0118320Y0070038D01*
X0118328Y0069989D01*
X0118332Y0069940D01*
X0118332Y0069892D01*
X0118328Y0069843D01*
X0118320Y0069794D01*
X0118308Y0069747D01*
X0118292Y0069701D01*
X0118273Y0069656D01*
X0118250Y0069612D01*
X0118223Y0069571D01*
X0118193Y0069532D01*
X0118161Y0069496D01*
X0118125Y0069463D01*
X0118087Y0069432D01*
X0118046Y0069405D01*
X0118003Y0069381D01*
X0117959Y0069361D01*
X0117913Y0069344D01*
X0117866Y0069331D01*
X0117817Y0069322D01*
X0117769Y0069317D01*
X0117720Y0069316D01*
X0117671Y0069319D01*
X0117622Y0069326D01*
X0117575Y0069337D01*
X0117528Y0069352D01*
X0117483Y0069370D01*
X0117439Y0069392D01*
X0117397Y0069418D01*
X0117358Y0069447D01*
X0117321Y0069479D01*
X0117287Y0069514D01*
X0117255Y0069552D01*
X0117227Y0069592D01*
X0117202Y0069634D01*
X0117181Y0069678D01*
X0117164Y0069724D01*
X0117150Y0069771D01*
X0117140Y0069819D01*
X0117134Y0069867D01*
X0117132Y0069916D01*
X0117231Y0072869D02*
X0117233Y0072918D01*
X0117239Y0072966D01*
X0117249Y0073014D01*
X0117263Y0073061D01*
X0117280Y0073107D01*
X0117301Y0073151D01*
X0117326Y0073193D01*
X0117354Y0073233D01*
X0117386Y0073271D01*
X0117420Y0073306D01*
X0117457Y0073338D01*
X0117496Y0073367D01*
X0117538Y0073393D01*
X0117582Y0073415D01*
X0117627Y0073433D01*
X0117674Y0073448D01*
X0117721Y0073459D01*
X0117770Y0073466D01*
X0117819Y0073469D01*
X0117868Y0073468D01*
X0117916Y0073463D01*
X0117965Y0073454D01*
X0118012Y0073441D01*
X0118058Y0073424D01*
X0118102Y0073404D01*
X0118145Y0073380D01*
X0118186Y0073353D01*
X0118224Y0073322D01*
X0118260Y0073289D01*
X0118292Y0073253D01*
X0118322Y0073214D01*
X0118349Y0073173D01*
X0118372Y0073129D01*
X0118391Y0073084D01*
X0118407Y0073038D01*
X0118419Y0072991D01*
X0118427Y0072942D01*
X0118431Y0072893D01*
X0118431Y0072845D01*
X0118427Y0072796D01*
X0118419Y0072747D01*
X0118407Y0072700D01*
X0118391Y0072654D01*
X0118372Y0072609D01*
X0118349Y0072565D01*
X0118322Y0072524D01*
X0118292Y0072485D01*
X0118260Y0072449D01*
X0118224Y0072416D01*
X0118186Y0072385D01*
X0118145Y0072358D01*
X0118102Y0072334D01*
X0118058Y0072314D01*
X0118012Y0072297D01*
X0117965Y0072284D01*
X0117916Y0072275D01*
X0117868Y0072270D01*
X0117819Y0072269D01*
X0117770Y0072272D01*
X0117721Y0072279D01*
X0117674Y0072290D01*
X0117627Y0072305D01*
X0117582Y0072323D01*
X0117538Y0072345D01*
X0117496Y0072371D01*
X0117457Y0072400D01*
X0117420Y0072432D01*
X0117386Y0072467D01*
X0117354Y0072505D01*
X0117326Y0072545D01*
X0117301Y0072587D01*
X0117280Y0072631D01*
X0117263Y0072677D01*
X0117249Y0072724D01*
X0117239Y0072772D01*
X0117233Y0072820D01*
X0117231Y0072869D01*
X0117231Y0075329D02*
X0117233Y0075378D01*
X0117239Y0075426D01*
X0117249Y0075474D01*
X0117263Y0075521D01*
X0117280Y0075567D01*
X0117301Y0075611D01*
X0117326Y0075653D01*
X0117354Y0075693D01*
X0117386Y0075731D01*
X0117420Y0075766D01*
X0117457Y0075798D01*
X0117496Y0075827D01*
X0117538Y0075853D01*
X0117582Y0075875D01*
X0117627Y0075893D01*
X0117674Y0075908D01*
X0117721Y0075919D01*
X0117770Y0075926D01*
X0117819Y0075929D01*
X0117868Y0075928D01*
X0117916Y0075923D01*
X0117965Y0075914D01*
X0118012Y0075901D01*
X0118058Y0075884D01*
X0118102Y0075864D01*
X0118145Y0075840D01*
X0118186Y0075813D01*
X0118224Y0075782D01*
X0118260Y0075749D01*
X0118292Y0075713D01*
X0118322Y0075674D01*
X0118349Y0075633D01*
X0118372Y0075589D01*
X0118391Y0075544D01*
X0118407Y0075498D01*
X0118419Y0075451D01*
X0118427Y0075402D01*
X0118431Y0075353D01*
X0118431Y0075305D01*
X0118427Y0075256D01*
X0118419Y0075207D01*
X0118407Y0075160D01*
X0118391Y0075114D01*
X0118372Y0075069D01*
X0118349Y0075025D01*
X0118322Y0074984D01*
X0118292Y0074945D01*
X0118260Y0074909D01*
X0118224Y0074876D01*
X0118186Y0074845D01*
X0118145Y0074818D01*
X0118102Y0074794D01*
X0118058Y0074774D01*
X0118012Y0074757D01*
X0117965Y0074744D01*
X0117916Y0074735D01*
X0117868Y0074730D01*
X0117819Y0074729D01*
X0117770Y0074732D01*
X0117721Y0074739D01*
X0117674Y0074750D01*
X0117627Y0074765D01*
X0117582Y0074783D01*
X0117538Y0074805D01*
X0117496Y0074831D01*
X0117457Y0074860D01*
X0117420Y0074892D01*
X0117386Y0074927D01*
X0117354Y0074965D01*
X0117326Y0075005D01*
X0117301Y0075047D01*
X0117280Y0075091D01*
X0117263Y0075137D01*
X0117249Y0075184D01*
X0117239Y0075232D01*
X0117233Y0075280D01*
X0117231Y0075329D01*
X0109947Y0054365D02*
X0109949Y0054414D01*
X0109955Y0054462D01*
X0109965Y0054510D01*
X0109979Y0054557D01*
X0109996Y0054603D01*
X0110017Y0054647D01*
X0110042Y0054689D01*
X0110070Y0054729D01*
X0110102Y0054767D01*
X0110136Y0054802D01*
X0110173Y0054834D01*
X0110212Y0054863D01*
X0110254Y0054889D01*
X0110298Y0054911D01*
X0110343Y0054929D01*
X0110390Y0054944D01*
X0110437Y0054955D01*
X0110486Y0054962D01*
X0110535Y0054965D01*
X0110584Y0054964D01*
X0110632Y0054959D01*
X0110681Y0054950D01*
X0110728Y0054937D01*
X0110774Y0054920D01*
X0110818Y0054900D01*
X0110861Y0054876D01*
X0110902Y0054849D01*
X0110940Y0054818D01*
X0110976Y0054785D01*
X0111008Y0054749D01*
X0111038Y0054710D01*
X0111065Y0054669D01*
X0111088Y0054625D01*
X0111107Y0054580D01*
X0111123Y0054534D01*
X0111135Y0054487D01*
X0111143Y0054438D01*
X0111147Y0054389D01*
X0111147Y0054341D01*
X0111143Y0054292D01*
X0111135Y0054243D01*
X0111123Y0054196D01*
X0111107Y0054150D01*
X0111088Y0054105D01*
X0111065Y0054061D01*
X0111038Y0054020D01*
X0111008Y0053981D01*
X0110976Y0053945D01*
X0110940Y0053912D01*
X0110902Y0053881D01*
X0110861Y0053854D01*
X0110818Y0053830D01*
X0110774Y0053810D01*
X0110728Y0053793D01*
X0110681Y0053780D01*
X0110632Y0053771D01*
X0110584Y0053766D01*
X0110535Y0053765D01*
X0110486Y0053768D01*
X0110437Y0053775D01*
X0110390Y0053786D01*
X0110343Y0053801D01*
X0110298Y0053819D01*
X0110254Y0053841D01*
X0110212Y0053867D01*
X0110173Y0053896D01*
X0110136Y0053928D01*
X0110102Y0053963D01*
X0110070Y0054001D01*
X0110042Y0054041D01*
X0110017Y0054083D01*
X0109996Y0054127D01*
X0109979Y0054173D01*
X0109965Y0054220D01*
X0109955Y0054268D01*
X0109949Y0054316D01*
X0109947Y0054365D01*
X0107782Y0052003D02*
X0107784Y0052052D01*
X0107790Y0052100D01*
X0107800Y0052148D01*
X0107814Y0052195D01*
X0107831Y0052241D01*
X0107852Y0052285D01*
X0107877Y0052327D01*
X0107905Y0052367D01*
X0107937Y0052405D01*
X0107971Y0052440D01*
X0108008Y0052472D01*
X0108047Y0052501D01*
X0108089Y0052527D01*
X0108133Y0052549D01*
X0108178Y0052567D01*
X0108225Y0052582D01*
X0108272Y0052593D01*
X0108321Y0052600D01*
X0108370Y0052603D01*
X0108419Y0052602D01*
X0108467Y0052597D01*
X0108516Y0052588D01*
X0108563Y0052575D01*
X0108609Y0052558D01*
X0108653Y0052538D01*
X0108696Y0052514D01*
X0108737Y0052487D01*
X0108775Y0052456D01*
X0108811Y0052423D01*
X0108843Y0052387D01*
X0108873Y0052348D01*
X0108900Y0052307D01*
X0108923Y0052263D01*
X0108942Y0052218D01*
X0108958Y0052172D01*
X0108970Y0052125D01*
X0108978Y0052076D01*
X0108982Y0052027D01*
X0108982Y0051979D01*
X0108978Y0051930D01*
X0108970Y0051881D01*
X0108958Y0051834D01*
X0108942Y0051788D01*
X0108923Y0051743D01*
X0108900Y0051699D01*
X0108873Y0051658D01*
X0108843Y0051619D01*
X0108811Y0051583D01*
X0108775Y0051550D01*
X0108737Y0051519D01*
X0108696Y0051492D01*
X0108653Y0051468D01*
X0108609Y0051448D01*
X0108563Y0051431D01*
X0108516Y0051418D01*
X0108467Y0051409D01*
X0108419Y0051404D01*
X0108370Y0051403D01*
X0108321Y0051406D01*
X0108272Y0051413D01*
X0108225Y0051424D01*
X0108178Y0051439D01*
X0108133Y0051457D01*
X0108089Y0051479D01*
X0108047Y0051505D01*
X0108008Y0051534D01*
X0107971Y0051566D01*
X0107937Y0051601D01*
X0107905Y0051639D01*
X0107877Y0051679D01*
X0107852Y0051721D01*
X0107831Y0051765D01*
X0107814Y0051811D01*
X0107800Y0051858D01*
X0107790Y0051906D01*
X0107784Y0051954D01*
X0107782Y0052003D01*
X0105420Y0050034D02*
X0105422Y0050083D01*
X0105428Y0050131D01*
X0105438Y0050179D01*
X0105452Y0050226D01*
X0105469Y0050272D01*
X0105490Y0050316D01*
X0105515Y0050358D01*
X0105543Y0050398D01*
X0105575Y0050436D01*
X0105609Y0050471D01*
X0105646Y0050503D01*
X0105685Y0050532D01*
X0105727Y0050558D01*
X0105771Y0050580D01*
X0105816Y0050598D01*
X0105863Y0050613D01*
X0105910Y0050624D01*
X0105959Y0050631D01*
X0106008Y0050634D01*
X0106057Y0050633D01*
X0106105Y0050628D01*
X0106154Y0050619D01*
X0106201Y0050606D01*
X0106247Y0050589D01*
X0106291Y0050569D01*
X0106334Y0050545D01*
X0106375Y0050518D01*
X0106413Y0050487D01*
X0106449Y0050454D01*
X0106481Y0050418D01*
X0106511Y0050379D01*
X0106538Y0050338D01*
X0106561Y0050294D01*
X0106580Y0050249D01*
X0106596Y0050203D01*
X0106608Y0050156D01*
X0106616Y0050107D01*
X0106620Y0050058D01*
X0106620Y0050010D01*
X0106616Y0049961D01*
X0106608Y0049912D01*
X0106596Y0049865D01*
X0106580Y0049819D01*
X0106561Y0049774D01*
X0106538Y0049730D01*
X0106511Y0049689D01*
X0106481Y0049650D01*
X0106449Y0049614D01*
X0106413Y0049581D01*
X0106375Y0049550D01*
X0106334Y0049523D01*
X0106291Y0049499D01*
X0106247Y0049479D01*
X0106201Y0049462D01*
X0106154Y0049449D01*
X0106105Y0049440D01*
X0106057Y0049435D01*
X0106008Y0049434D01*
X0105959Y0049437D01*
X0105910Y0049444D01*
X0105863Y0049455D01*
X0105816Y0049470D01*
X0105771Y0049488D01*
X0105727Y0049510D01*
X0105685Y0049536D01*
X0105646Y0049565D01*
X0105609Y0049597D01*
X0105575Y0049632D01*
X0105543Y0049670D01*
X0105515Y0049710D01*
X0105490Y0049752D01*
X0105469Y0049796D01*
X0105452Y0049842D01*
X0105438Y0049889D01*
X0105428Y0049937D01*
X0105422Y0049985D01*
X0105420Y0050034D01*
X0102861Y0048459D02*
X0102863Y0048508D01*
X0102869Y0048556D01*
X0102879Y0048604D01*
X0102893Y0048651D01*
X0102910Y0048697D01*
X0102931Y0048741D01*
X0102956Y0048783D01*
X0102984Y0048823D01*
X0103016Y0048861D01*
X0103050Y0048896D01*
X0103087Y0048928D01*
X0103126Y0048957D01*
X0103168Y0048983D01*
X0103212Y0049005D01*
X0103257Y0049023D01*
X0103304Y0049038D01*
X0103351Y0049049D01*
X0103400Y0049056D01*
X0103449Y0049059D01*
X0103498Y0049058D01*
X0103546Y0049053D01*
X0103595Y0049044D01*
X0103642Y0049031D01*
X0103688Y0049014D01*
X0103732Y0048994D01*
X0103775Y0048970D01*
X0103816Y0048943D01*
X0103854Y0048912D01*
X0103890Y0048879D01*
X0103922Y0048843D01*
X0103952Y0048804D01*
X0103979Y0048763D01*
X0104002Y0048719D01*
X0104021Y0048674D01*
X0104037Y0048628D01*
X0104049Y0048581D01*
X0104057Y0048532D01*
X0104061Y0048483D01*
X0104061Y0048435D01*
X0104057Y0048386D01*
X0104049Y0048337D01*
X0104037Y0048290D01*
X0104021Y0048244D01*
X0104002Y0048199D01*
X0103979Y0048155D01*
X0103952Y0048114D01*
X0103922Y0048075D01*
X0103890Y0048039D01*
X0103854Y0048006D01*
X0103816Y0047975D01*
X0103775Y0047948D01*
X0103732Y0047924D01*
X0103688Y0047904D01*
X0103642Y0047887D01*
X0103595Y0047874D01*
X0103546Y0047865D01*
X0103498Y0047860D01*
X0103449Y0047859D01*
X0103400Y0047862D01*
X0103351Y0047869D01*
X0103304Y0047880D01*
X0103257Y0047895D01*
X0103212Y0047913D01*
X0103168Y0047935D01*
X0103126Y0047961D01*
X0103087Y0047990D01*
X0103050Y0048022D01*
X0103016Y0048057D01*
X0102984Y0048095D01*
X0102956Y0048135D01*
X0102931Y0048177D01*
X0102910Y0048221D01*
X0102893Y0048267D01*
X0102879Y0048314D01*
X0102869Y0048362D01*
X0102863Y0048410D01*
X0102861Y0048459D01*
X0118510Y0027790D02*
X0118512Y0027839D01*
X0118518Y0027887D01*
X0118528Y0027935D01*
X0118542Y0027982D01*
X0118559Y0028028D01*
X0118580Y0028072D01*
X0118605Y0028114D01*
X0118633Y0028154D01*
X0118665Y0028192D01*
X0118699Y0028227D01*
X0118736Y0028259D01*
X0118775Y0028288D01*
X0118817Y0028314D01*
X0118861Y0028336D01*
X0118906Y0028354D01*
X0118953Y0028369D01*
X0119000Y0028380D01*
X0119049Y0028387D01*
X0119098Y0028390D01*
X0119147Y0028389D01*
X0119195Y0028384D01*
X0119244Y0028375D01*
X0119291Y0028362D01*
X0119337Y0028345D01*
X0119381Y0028325D01*
X0119424Y0028301D01*
X0119465Y0028274D01*
X0119503Y0028243D01*
X0119539Y0028210D01*
X0119571Y0028174D01*
X0119601Y0028135D01*
X0119628Y0028094D01*
X0119651Y0028050D01*
X0119670Y0028005D01*
X0119686Y0027959D01*
X0119698Y0027912D01*
X0119706Y0027863D01*
X0119710Y0027814D01*
X0119710Y0027766D01*
X0119706Y0027717D01*
X0119698Y0027668D01*
X0119686Y0027621D01*
X0119670Y0027575D01*
X0119651Y0027530D01*
X0119628Y0027486D01*
X0119601Y0027445D01*
X0119571Y0027406D01*
X0119539Y0027370D01*
X0119503Y0027337D01*
X0119465Y0027306D01*
X0119424Y0027279D01*
X0119381Y0027255D01*
X0119337Y0027235D01*
X0119291Y0027218D01*
X0119244Y0027205D01*
X0119195Y0027196D01*
X0119147Y0027191D01*
X0119098Y0027190D01*
X0119049Y0027193D01*
X0119000Y0027200D01*
X0118953Y0027211D01*
X0118906Y0027226D01*
X0118861Y0027244D01*
X0118817Y0027266D01*
X0118775Y0027292D01*
X0118736Y0027321D01*
X0118699Y0027353D01*
X0118665Y0027388D01*
X0118633Y0027426D01*
X0118605Y0027466D01*
X0118580Y0027508D01*
X0118559Y0027552D01*
X0118542Y0027598D01*
X0118528Y0027645D01*
X0118518Y0027693D01*
X0118512Y0027741D01*
X0118510Y0027790D01*
X0119888Y0030841D02*
X0119890Y0030890D01*
X0119896Y0030938D01*
X0119906Y0030986D01*
X0119920Y0031033D01*
X0119937Y0031079D01*
X0119958Y0031123D01*
X0119983Y0031165D01*
X0120011Y0031205D01*
X0120043Y0031243D01*
X0120077Y0031278D01*
X0120114Y0031310D01*
X0120153Y0031339D01*
X0120195Y0031365D01*
X0120239Y0031387D01*
X0120284Y0031405D01*
X0120331Y0031420D01*
X0120378Y0031431D01*
X0120427Y0031438D01*
X0120476Y0031441D01*
X0120525Y0031440D01*
X0120573Y0031435D01*
X0120622Y0031426D01*
X0120669Y0031413D01*
X0120715Y0031396D01*
X0120759Y0031376D01*
X0120802Y0031352D01*
X0120843Y0031325D01*
X0120881Y0031294D01*
X0120917Y0031261D01*
X0120949Y0031225D01*
X0120979Y0031186D01*
X0121006Y0031145D01*
X0121029Y0031101D01*
X0121048Y0031056D01*
X0121064Y0031010D01*
X0121076Y0030963D01*
X0121084Y0030914D01*
X0121088Y0030865D01*
X0121088Y0030817D01*
X0121084Y0030768D01*
X0121076Y0030719D01*
X0121064Y0030672D01*
X0121048Y0030626D01*
X0121029Y0030581D01*
X0121006Y0030537D01*
X0120979Y0030496D01*
X0120949Y0030457D01*
X0120917Y0030421D01*
X0120881Y0030388D01*
X0120843Y0030357D01*
X0120802Y0030330D01*
X0120759Y0030306D01*
X0120715Y0030286D01*
X0120669Y0030269D01*
X0120622Y0030256D01*
X0120573Y0030247D01*
X0120525Y0030242D01*
X0120476Y0030241D01*
X0120427Y0030244D01*
X0120378Y0030251D01*
X0120331Y0030262D01*
X0120284Y0030277D01*
X0120239Y0030295D01*
X0120195Y0030317D01*
X0120153Y0030343D01*
X0120114Y0030372D01*
X0120077Y0030404D01*
X0120043Y0030439D01*
X0120011Y0030477D01*
X0119983Y0030517D01*
X0119958Y0030559D01*
X0119937Y0030603D01*
X0119920Y0030649D01*
X0119906Y0030696D01*
X0119896Y0030744D01*
X0119890Y0030792D01*
X0119888Y0030841D01*
X0120774Y0033499D02*
X0120776Y0033548D01*
X0120782Y0033596D01*
X0120792Y0033644D01*
X0120806Y0033691D01*
X0120823Y0033737D01*
X0120844Y0033781D01*
X0120869Y0033823D01*
X0120897Y0033863D01*
X0120929Y0033901D01*
X0120963Y0033936D01*
X0121000Y0033968D01*
X0121039Y0033997D01*
X0121081Y0034023D01*
X0121125Y0034045D01*
X0121170Y0034063D01*
X0121217Y0034078D01*
X0121264Y0034089D01*
X0121313Y0034096D01*
X0121362Y0034099D01*
X0121411Y0034098D01*
X0121459Y0034093D01*
X0121508Y0034084D01*
X0121555Y0034071D01*
X0121601Y0034054D01*
X0121645Y0034034D01*
X0121688Y0034010D01*
X0121729Y0033983D01*
X0121767Y0033952D01*
X0121803Y0033919D01*
X0121835Y0033883D01*
X0121865Y0033844D01*
X0121892Y0033803D01*
X0121915Y0033759D01*
X0121934Y0033714D01*
X0121950Y0033668D01*
X0121962Y0033621D01*
X0121970Y0033572D01*
X0121974Y0033523D01*
X0121974Y0033475D01*
X0121970Y0033426D01*
X0121962Y0033377D01*
X0121950Y0033330D01*
X0121934Y0033284D01*
X0121915Y0033239D01*
X0121892Y0033195D01*
X0121865Y0033154D01*
X0121835Y0033115D01*
X0121803Y0033079D01*
X0121767Y0033046D01*
X0121729Y0033015D01*
X0121688Y0032988D01*
X0121645Y0032964D01*
X0121601Y0032944D01*
X0121555Y0032927D01*
X0121508Y0032914D01*
X0121459Y0032905D01*
X0121411Y0032900D01*
X0121362Y0032899D01*
X0121313Y0032902D01*
X0121264Y0032909D01*
X0121217Y0032920D01*
X0121170Y0032935D01*
X0121125Y0032953D01*
X0121081Y0032975D01*
X0121039Y0033001D01*
X0121000Y0033030D01*
X0120963Y0033062D01*
X0120929Y0033097D01*
X0120897Y0033135D01*
X0120869Y0033175D01*
X0120844Y0033217D01*
X0120823Y0033261D01*
X0120806Y0033307D01*
X0120792Y0033354D01*
X0120782Y0033402D01*
X0120776Y0033450D01*
X0120774Y0033499D01*
X0121857Y0036156D02*
X0121859Y0036205D01*
X0121865Y0036253D01*
X0121875Y0036301D01*
X0121889Y0036348D01*
X0121906Y0036394D01*
X0121927Y0036438D01*
X0121952Y0036480D01*
X0121980Y0036520D01*
X0122012Y0036558D01*
X0122046Y0036593D01*
X0122083Y0036625D01*
X0122122Y0036654D01*
X0122164Y0036680D01*
X0122208Y0036702D01*
X0122253Y0036720D01*
X0122300Y0036735D01*
X0122347Y0036746D01*
X0122396Y0036753D01*
X0122445Y0036756D01*
X0122494Y0036755D01*
X0122542Y0036750D01*
X0122591Y0036741D01*
X0122638Y0036728D01*
X0122684Y0036711D01*
X0122728Y0036691D01*
X0122771Y0036667D01*
X0122812Y0036640D01*
X0122850Y0036609D01*
X0122886Y0036576D01*
X0122918Y0036540D01*
X0122948Y0036501D01*
X0122975Y0036460D01*
X0122998Y0036416D01*
X0123017Y0036371D01*
X0123033Y0036325D01*
X0123045Y0036278D01*
X0123053Y0036229D01*
X0123057Y0036180D01*
X0123057Y0036132D01*
X0123053Y0036083D01*
X0123045Y0036034D01*
X0123033Y0035987D01*
X0123017Y0035941D01*
X0122998Y0035896D01*
X0122975Y0035852D01*
X0122948Y0035811D01*
X0122918Y0035772D01*
X0122886Y0035736D01*
X0122850Y0035703D01*
X0122812Y0035672D01*
X0122771Y0035645D01*
X0122728Y0035621D01*
X0122684Y0035601D01*
X0122638Y0035584D01*
X0122591Y0035571D01*
X0122542Y0035562D01*
X0122494Y0035557D01*
X0122445Y0035556D01*
X0122396Y0035559D01*
X0122347Y0035566D01*
X0122300Y0035577D01*
X0122253Y0035592D01*
X0122208Y0035610D01*
X0122164Y0035632D01*
X0122122Y0035658D01*
X0122083Y0035687D01*
X0122046Y0035719D01*
X0122012Y0035754D01*
X0121980Y0035792D01*
X0121952Y0035832D01*
X0121927Y0035874D01*
X0121906Y0035918D01*
X0121889Y0035964D01*
X0121875Y0036011D01*
X0121865Y0036059D01*
X0121859Y0036107D01*
X0121857Y0036156D01*
X0122743Y0039404D02*
X0122745Y0039453D01*
X0122751Y0039501D01*
X0122761Y0039549D01*
X0122775Y0039596D01*
X0122792Y0039642D01*
X0122813Y0039686D01*
X0122838Y0039728D01*
X0122866Y0039768D01*
X0122898Y0039806D01*
X0122932Y0039841D01*
X0122969Y0039873D01*
X0123008Y0039902D01*
X0123050Y0039928D01*
X0123094Y0039950D01*
X0123139Y0039968D01*
X0123186Y0039983D01*
X0123233Y0039994D01*
X0123282Y0040001D01*
X0123331Y0040004D01*
X0123380Y0040003D01*
X0123428Y0039998D01*
X0123477Y0039989D01*
X0123524Y0039976D01*
X0123570Y0039959D01*
X0123614Y0039939D01*
X0123657Y0039915D01*
X0123698Y0039888D01*
X0123736Y0039857D01*
X0123772Y0039824D01*
X0123804Y0039788D01*
X0123834Y0039749D01*
X0123861Y0039708D01*
X0123884Y0039664D01*
X0123903Y0039619D01*
X0123919Y0039573D01*
X0123931Y0039526D01*
X0123939Y0039477D01*
X0123943Y0039428D01*
X0123943Y0039380D01*
X0123939Y0039331D01*
X0123931Y0039282D01*
X0123919Y0039235D01*
X0123903Y0039189D01*
X0123884Y0039144D01*
X0123861Y0039100D01*
X0123834Y0039059D01*
X0123804Y0039020D01*
X0123772Y0038984D01*
X0123736Y0038951D01*
X0123698Y0038920D01*
X0123657Y0038893D01*
X0123614Y0038869D01*
X0123570Y0038849D01*
X0123524Y0038832D01*
X0123477Y0038819D01*
X0123428Y0038810D01*
X0123380Y0038805D01*
X0123331Y0038804D01*
X0123282Y0038807D01*
X0123233Y0038814D01*
X0123186Y0038825D01*
X0123139Y0038840D01*
X0123094Y0038858D01*
X0123050Y0038880D01*
X0123008Y0038906D01*
X0122969Y0038935D01*
X0122932Y0038967D01*
X0122898Y0039002D01*
X0122866Y0039040D01*
X0122838Y0039080D01*
X0122813Y0039122D01*
X0122792Y0039166D01*
X0122775Y0039212D01*
X0122761Y0039259D01*
X0122751Y0039307D01*
X0122745Y0039355D01*
X0122743Y0039404D01*
X0123628Y0042259D02*
X0123630Y0042308D01*
X0123636Y0042356D01*
X0123646Y0042404D01*
X0123660Y0042451D01*
X0123677Y0042497D01*
X0123698Y0042541D01*
X0123723Y0042583D01*
X0123751Y0042623D01*
X0123783Y0042661D01*
X0123817Y0042696D01*
X0123854Y0042728D01*
X0123893Y0042757D01*
X0123935Y0042783D01*
X0123979Y0042805D01*
X0124024Y0042823D01*
X0124071Y0042838D01*
X0124118Y0042849D01*
X0124167Y0042856D01*
X0124216Y0042859D01*
X0124265Y0042858D01*
X0124313Y0042853D01*
X0124362Y0042844D01*
X0124409Y0042831D01*
X0124455Y0042814D01*
X0124499Y0042794D01*
X0124542Y0042770D01*
X0124583Y0042743D01*
X0124621Y0042712D01*
X0124657Y0042679D01*
X0124689Y0042643D01*
X0124719Y0042604D01*
X0124746Y0042563D01*
X0124769Y0042519D01*
X0124788Y0042474D01*
X0124804Y0042428D01*
X0124816Y0042381D01*
X0124824Y0042332D01*
X0124828Y0042283D01*
X0124828Y0042235D01*
X0124824Y0042186D01*
X0124816Y0042137D01*
X0124804Y0042090D01*
X0124788Y0042044D01*
X0124769Y0041999D01*
X0124746Y0041955D01*
X0124719Y0041914D01*
X0124689Y0041875D01*
X0124657Y0041839D01*
X0124621Y0041806D01*
X0124583Y0041775D01*
X0124542Y0041748D01*
X0124499Y0041724D01*
X0124455Y0041704D01*
X0124409Y0041687D01*
X0124362Y0041674D01*
X0124313Y0041665D01*
X0124265Y0041660D01*
X0124216Y0041659D01*
X0124167Y0041662D01*
X0124118Y0041669D01*
X0124071Y0041680D01*
X0124024Y0041695D01*
X0123979Y0041713D01*
X0123935Y0041735D01*
X0123893Y0041761D01*
X0123854Y0041790D01*
X0123817Y0041822D01*
X0123783Y0041857D01*
X0123751Y0041895D01*
X0123723Y0041935D01*
X0123698Y0041977D01*
X0123677Y0042021D01*
X0123660Y0042067D01*
X0123646Y0042114D01*
X0123636Y0042162D01*
X0123630Y0042210D01*
X0123628Y0042259D01*
X0036030Y0047475D02*
X0036032Y0047524D01*
X0036038Y0047572D01*
X0036048Y0047620D01*
X0036062Y0047667D01*
X0036079Y0047713D01*
X0036100Y0047757D01*
X0036125Y0047799D01*
X0036153Y0047839D01*
X0036185Y0047877D01*
X0036219Y0047912D01*
X0036256Y0047944D01*
X0036295Y0047973D01*
X0036337Y0047999D01*
X0036381Y0048021D01*
X0036426Y0048039D01*
X0036473Y0048054D01*
X0036520Y0048065D01*
X0036569Y0048072D01*
X0036618Y0048075D01*
X0036667Y0048074D01*
X0036715Y0048069D01*
X0036764Y0048060D01*
X0036811Y0048047D01*
X0036857Y0048030D01*
X0036901Y0048010D01*
X0036944Y0047986D01*
X0036985Y0047959D01*
X0037023Y0047928D01*
X0037059Y0047895D01*
X0037091Y0047859D01*
X0037121Y0047820D01*
X0037148Y0047779D01*
X0037171Y0047735D01*
X0037190Y0047690D01*
X0037206Y0047644D01*
X0037218Y0047597D01*
X0037226Y0047548D01*
X0037230Y0047499D01*
X0037230Y0047451D01*
X0037226Y0047402D01*
X0037218Y0047353D01*
X0037206Y0047306D01*
X0037190Y0047260D01*
X0037171Y0047215D01*
X0037148Y0047171D01*
X0037121Y0047130D01*
X0037091Y0047091D01*
X0037059Y0047055D01*
X0037023Y0047022D01*
X0036985Y0046991D01*
X0036944Y0046964D01*
X0036901Y0046940D01*
X0036857Y0046920D01*
X0036811Y0046903D01*
X0036764Y0046890D01*
X0036715Y0046881D01*
X0036667Y0046876D01*
X0036618Y0046875D01*
X0036569Y0046878D01*
X0036520Y0046885D01*
X0036473Y0046896D01*
X0036426Y0046911D01*
X0036381Y0046929D01*
X0036337Y0046951D01*
X0036295Y0046977D01*
X0036256Y0047006D01*
X0036219Y0047038D01*
X0036185Y0047073D01*
X0036153Y0047111D01*
X0036125Y0047151D01*
X0036100Y0047193D01*
X0036079Y0047237D01*
X0036062Y0047283D01*
X0036048Y0047330D01*
X0036038Y0047378D01*
X0036032Y0047426D01*
X0036030Y0047475D01*
X0033274Y0047475D02*
X0033276Y0047524D01*
X0033282Y0047572D01*
X0033292Y0047620D01*
X0033306Y0047667D01*
X0033323Y0047713D01*
X0033344Y0047757D01*
X0033369Y0047799D01*
X0033397Y0047839D01*
X0033429Y0047877D01*
X0033463Y0047912D01*
X0033500Y0047944D01*
X0033539Y0047973D01*
X0033581Y0047999D01*
X0033625Y0048021D01*
X0033670Y0048039D01*
X0033717Y0048054D01*
X0033764Y0048065D01*
X0033813Y0048072D01*
X0033862Y0048075D01*
X0033911Y0048074D01*
X0033959Y0048069D01*
X0034008Y0048060D01*
X0034055Y0048047D01*
X0034101Y0048030D01*
X0034145Y0048010D01*
X0034188Y0047986D01*
X0034229Y0047959D01*
X0034267Y0047928D01*
X0034303Y0047895D01*
X0034335Y0047859D01*
X0034365Y0047820D01*
X0034392Y0047779D01*
X0034415Y0047735D01*
X0034434Y0047690D01*
X0034450Y0047644D01*
X0034462Y0047597D01*
X0034470Y0047548D01*
X0034474Y0047499D01*
X0034474Y0047451D01*
X0034470Y0047402D01*
X0034462Y0047353D01*
X0034450Y0047306D01*
X0034434Y0047260D01*
X0034415Y0047215D01*
X0034392Y0047171D01*
X0034365Y0047130D01*
X0034335Y0047091D01*
X0034303Y0047055D01*
X0034267Y0047022D01*
X0034229Y0046991D01*
X0034188Y0046964D01*
X0034145Y0046940D01*
X0034101Y0046920D01*
X0034055Y0046903D01*
X0034008Y0046890D01*
X0033959Y0046881D01*
X0033911Y0046876D01*
X0033862Y0046875D01*
X0033813Y0046878D01*
X0033764Y0046885D01*
X0033717Y0046896D01*
X0033670Y0046911D01*
X0033625Y0046929D01*
X0033581Y0046951D01*
X0033539Y0046977D01*
X0033500Y0047006D01*
X0033463Y0047038D01*
X0033429Y0047073D01*
X0033397Y0047111D01*
X0033369Y0047151D01*
X0033344Y0047193D01*
X0033323Y0047237D01*
X0033306Y0047283D01*
X0033292Y0047330D01*
X0033282Y0047378D01*
X0033276Y0047426D01*
X0033274Y0047475D01*
X0030124Y0047475D02*
X0030126Y0047524D01*
X0030132Y0047572D01*
X0030142Y0047620D01*
X0030156Y0047667D01*
X0030173Y0047713D01*
X0030194Y0047757D01*
X0030219Y0047799D01*
X0030247Y0047839D01*
X0030279Y0047877D01*
X0030313Y0047912D01*
X0030350Y0047944D01*
X0030389Y0047973D01*
X0030431Y0047999D01*
X0030475Y0048021D01*
X0030520Y0048039D01*
X0030567Y0048054D01*
X0030614Y0048065D01*
X0030663Y0048072D01*
X0030712Y0048075D01*
X0030761Y0048074D01*
X0030809Y0048069D01*
X0030858Y0048060D01*
X0030905Y0048047D01*
X0030951Y0048030D01*
X0030995Y0048010D01*
X0031038Y0047986D01*
X0031079Y0047959D01*
X0031117Y0047928D01*
X0031153Y0047895D01*
X0031185Y0047859D01*
X0031215Y0047820D01*
X0031242Y0047779D01*
X0031265Y0047735D01*
X0031284Y0047690D01*
X0031300Y0047644D01*
X0031312Y0047597D01*
X0031320Y0047548D01*
X0031324Y0047499D01*
X0031324Y0047451D01*
X0031320Y0047402D01*
X0031312Y0047353D01*
X0031300Y0047306D01*
X0031284Y0047260D01*
X0031265Y0047215D01*
X0031242Y0047171D01*
X0031215Y0047130D01*
X0031185Y0047091D01*
X0031153Y0047055D01*
X0031117Y0047022D01*
X0031079Y0046991D01*
X0031038Y0046964D01*
X0030995Y0046940D01*
X0030951Y0046920D01*
X0030905Y0046903D01*
X0030858Y0046890D01*
X0030809Y0046881D01*
X0030761Y0046876D01*
X0030712Y0046875D01*
X0030663Y0046878D01*
X0030614Y0046885D01*
X0030567Y0046896D01*
X0030520Y0046911D01*
X0030475Y0046929D01*
X0030431Y0046951D01*
X0030389Y0046977D01*
X0030350Y0047006D01*
X0030313Y0047038D01*
X0030279Y0047073D01*
X0030247Y0047111D01*
X0030219Y0047151D01*
X0030194Y0047193D01*
X0030173Y0047237D01*
X0030156Y0047283D01*
X0030142Y0047330D01*
X0030132Y0047378D01*
X0030126Y0047426D01*
X0030124Y0047475D01*
X0027369Y0047672D02*
X0027371Y0047721D01*
X0027377Y0047769D01*
X0027387Y0047817D01*
X0027401Y0047864D01*
X0027418Y0047910D01*
X0027439Y0047954D01*
X0027464Y0047996D01*
X0027492Y0048036D01*
X0027524Y0048074D01*
X0027558Y0048109D01*
X0027595Y0048141D01*
X0027634Y0048170D01*
X0027676Y0048196D01*
X0027720Y0048218D01*
X0027765Y0048236D01*
X0027812Y0048251D01*
X0027859Y0048262D01*
X0027908Y0048269D01*
X0027957Y0048272D01*
X0028006Y0048271D01*
X0028054Y0048266D01*
X0028103Y0048257D01*
X0028150Y0048244D01*
X0028196Y0048227D01*
X0028240Y0048207D01*
X0028283Y0048183D01*
X0028324Y0048156D01*
X0028362Y0048125D01*
X0028398Y0048092D01*
X0028430Y0048056D01*
X0028460Y0048017D01*
X0028487Y0047976D01*
X0028510Y0047932D01*
X0028529Y0047887D01*
X0028545Y0047841D01*
X0028557Y0047794D01*
X0028565Y0047745D01*
X0028569Y0047696D01*
X0028569Y0047648D01*
X0028565Y0047599D01*
X0028557Y0047550D01*
X0028545Y0047503D01*
X0028529Y0047457D01*
X0028510Y0047412D01*
X0028487Y0047368D01*
X0028460Y0047327D01*
X0028430Y0047288D01*
X0028398Y0047252D01*
X0028362Y0047219D01*
X0028324Y0047188D01*
X0028283Y0047161D01*
X0028240Y0047137D01*
X0028196Y0047117D01*
X0028150Y0047100D01*
X0028103Y0047087D01*
X0028054Y0047078D01*
X0028006Y0047073D01*
X0027957Y0047072D01*
X0027908Y0047075D01*
X0027859Y0047082D01*
X0027812Y0047093D01*
X0027765Y0047108D01*
X0027720Y0047126D01*
X0027676Y0047148D01*
X0027634Y0047174D01*
X0027595Y0047203D01*
X0027558Y0047235D01*
X0027524Y0047270D01*
X0027492Y0047308D01*
X0027464Y0047348D01*
X0027439Y0047390D01*
X0027418Y0047434D01*
X0027401Y0047480D01*
X0027387Y0047527D01*
X0027377Y0047575D01*
X0027371Y0047623D01*
X0027369Y0047672D01*
X0024613Y0048459D02*
X0024615Y0048508D01*
X0024621Y0048556D01*
X0024631Y0048604D01*
X0024645Y0048651D01*
X0024662Y0048697D01*
X0024683Y0048741D01*
X0024708Y0048783D01*
X0024736Y0048823D01*
X0024768Y0048861D01*
X0024802Y0048896D01*
X0024839Y0048928D01*
X0024878Y0048957D01*
X0024920Y0048983D01*
X0024964Y0049005D01*
X0025009Y0049023D01*
X0025056Y0049038D01*
X0025103Y0049049D01*
X0025152Y0049056D01*
X0025201Y0049059D01*
X0025250Y0049058D01*
X0025298Y0049053D01*
X0025347Y0049044D01*
X0025394Y0049031D01*
X0025440Y0049014D01*
X0025484Y0048994D01*
X0025527Y0048970D01*
X0025568Y0048943D01*
X0025606Y0048912D01*
X0025642Y0048879D01*
X0025674Y0048843D01*
X0025704Y0048804D01*
X0025731Y0048763D01*
X0025754Y0048719D01*
X0025773Y0048674D01*
X0025789Y0048628D01*
X0025801Y0048581D01*
X0025809Y0048532D01*
X0025813Y0048483D01*
X0025813Y0048435D01*
X0025809Y0048386D01*
X0025801Y0048337D01*
X0025789Y0048290D01*
X0025773Y0048244D01*
X0025754Y0048199D01*
X0025731Y0048155D01*
X0025704Y0048114D01*
X0025674Y0048075D01*
X0025642Y0048039D01*
X0025606Y0048006D01*
X0025568Y0047975D01*
X0025527Y0047948D01*
X0025484Y0047924D01*
X0025440Y0047904D01*
X0025394Y0047887D01*
X0025347Y0047874D01*
X0025298Y0047865D01*
X0025250Y0047860D01*
X0025201Y0047859D01*
X0025152Y0047862D01*
X0025103Y0047869D01*
X0025056Y0047880D01*
X0025009Y0047895D01*
X0024964Y0047913D01*
X0024920Y0047935D01*
X0024878Y0047961D01*
X0024839Y0047990D01*
X0024802Y0048022D01*
X0024768Y0048057D01*
X0024736Y0048095D01*
X0024708Y0048135D01*
X0024683Y0048177D01*
X0024662Y0048221D01*
X0024645Y0048267D01*
X0024631Y0048314D01*
X0024621Y0048362D01*
X0024615Y0048410D01*
X0024613Y0048459D01*
X0021955Y0049837D02*
X0021957Y0049886D01*
X0021963Y0049934D01*
X0021973Y0049982D01*
X0021987Y0050029D01*
X0022004Y0050075D01*
X0022025Y0050119D01*
X0022050Y0050161D01*
X0022078Y0050201D01*
X0022110Y0050239D01*
X0022144Y0050274D01*
X0022181Y0050306D01*
X0022220Y0050335D01*
X0022262Y0050361D01*
X0022306Y0050383D01*
X0022351Y0050401D01*
X0022398Y0050416D01*
X0022445Y0050427D01*
X0022494Y0050434D01*
X0022543Y0050437D01*
X0022592Y0050436D01*
X0022640Y0050431D01*
X0022689Y0050422D01*
X0022736Y0050409D01*
X0022782Y0050392D01*
X0022826Y0050372D01*
X0022869Y0050348D01*
X0022910Y0050321D01*
X0022948Y0050290D01*
X0022984Y0050257D01*
X0023016Y0050221D01*
X0023046Y0050182D01*
X0023073Y0050141D01*
X0023096Y0050097D01*
X0023115Y0050052D01*
X0023131Y0050006D01*
X0023143Y0049959D01*
X0023151Y0049910D01*
X0023155Y0049861D01*
X0023155Y0049813D01*
X0023151Y0049764D01*
X0023143Y0049715D01*
X0023131Y0049668D01*
X0023115Y0049622D01*
X0023096Y0049577D01*
X0023073Y0049533D01*
X0023046Y0049492D01*
X0023016Y0049453D01*
X0022984Y0049417D01*
X0022948Y0049384D01*
X0022910Y0049353D01*
X0022869Y0049326D01*
X0022826Y0049302D01*
X0022782Y0049282D01*
X0022736Y0049265D01*
X0022689Y0049252D01*
X0022640Y0049243D01*
X0022592Y0049238D01*
X0022543Y0049237D01*
X0022494Y0049240D01*
X0022445Y0049247D01*
X0022398Y0049258D01*
X0022351Y0049273D01*
X0022306Y0049291D01*
X0022262Y0049313D01*
X0022220Y0049339D01*
X0022181Y0049368D01*
X0022144Y0049400D01*
X0022110Y0049435D01*
X0022078Y0049473D01*
X0022050Y0049513D01*
X0022025Y0049555D01*
X0022004Y0049599D01*
X0021987Y0049645D01*
X0021973Y0049692D01*
X0021963Y0049740D01*
X0021957Y0049788D01*
X0021955Y0049837D01*
M02*
