%
M48
M72
T01C0.01200
T02C0.03200
T03C0.03600
T04C0.05906
T05C0.07874
T06C0.15748
%
T01
X22555Y49837
X25213Y48459
X27969Y47672
X30724Y47475
X33874Y47475
X36630Y47475
X52971Y56948
X39484Y109830
X48071Y121648
X56571Y117148
X60750Y192995
X65071Y192248
X55071Y191648
X45887Y172538
X35071Y178022
X22284Y182230
X35071Y164022
X39571Y159022
X40071Y150522
X35071Y146522
X28571Y132522
X35071Y128522
X123244Y158696
X123244Y160959
X118224Y170900
X131512Y161944
X134071Y162140
X136630Y161845
X136335Y171294
X133579Y171294
X112319Y191766
X110449Y193932
X108480Y195703
X106413Y197180
X122555Y197180
X122457Y194916
X106984Y181530
X118028Y176018
X118126Y173558
X122457Y172081
X122358Y174640
X152575Y161451
X155232Y161156
X150114Y156530
X152083Y155054
X153953Y153085
X139583Y135467
X137220Y135270
X134858Y135270
X132496Y135270
X117929Y120408
X119110Y117652
X120291Y114995
X121276Y112731
X104445Y113912
X105035Y116766
X106020Y119719
X100257Y120537
X98571Y134648
X123146Y136353
X123146Y138814
X119110Y140290
X118815Y137436
X118028Y134877
X132299Y123656
X134661Y123656
X137024Y123656
X139386Y123656
X49271Y144348
X48171Y140848
X52571Y152648
X56354Y151412
X60488Y152514
X62571Y145148
X68071Y151648
X71236Y152869
X73126Y142003
X81171Y148848
X82071Y152648
X83370Y157949
X78371Y167748
X79071Y181048
X81471Y183648
X74071Y192148
X80080Y195048
X91571Y178648
X118717Y162928
X118717Y160566
X118913Y157810
X131315Y171392
X96371Y186948
X93071Y160648
X92840Y156964
X104370Y158649
X83740Y138064
X84571Y131648
X81571Y117148
X70571Y107848
X64391Y118096
X65504Y162885
X62850Y164995
X58071Y165648
X61551Y130585
X70071Y130648
X51571Y85648
X64171Y78348
X71884Y85830
X64171Y95548
X56571Y102148
X124228Y42259
X123343Y39404
X122457Y36156
X121374Y33499
X120488Y30841
X119110Y27790
X127969Y35270
X117732Y69916
X117831Y72869
X117831Y75329
X127969Y110073
X128559Y78085
X128559Y75034
X128559Y72475
X128559Y69325
X110547Y54365
X108382Y52003
X106020Y50034
X103461Y48459
X88874Y71097
T02
X54189Y50625
X64189Y50924
X74189Y50625
X74189Y63223
X64189Y63223
X54189Y63223
T03
X84000Y100207
X83646Y73436
X44354Y100207
X44709Y73436
T04
X111433Y145507
X16945Y145507
T05
X95685Y98656
X95685Y76215
X139780Y41176
X139780Y104168
X32693Y98656
X32693Y76215
T06
X64189Y177003
M30
